SplineFontDB: 3.0
FontName: AbhayaLibre-Regular
FullName: Abhaya Libre Regular
FamilyName: Abhaya Libre
Weight: Regular
Copyright: Copyright (c) 2000, Modular Infotech, Pune, INDIA.
Version: 1.00
ItalicAngle: 0
UnderlinePosition: -282
UnderlineWidth: 20
Ascent: 700
Descent: 300
InvalidEm: 0
sfntRevision: 0x00010000
LayerCount: 2
Layer: 0 1 "Back" 1
Layer: 1 1 "Fore" 0
XUID: [1021 779 -1439063335 3738324]
FSType: 0
OS2Version: 3
OS2_WeightWidthSlopeOnly: 0
OS2_UseTypoMetrics: 1
CreationTime: 1442707200
ModificationTime: 1443334573
PfmFamily: 17
TTFWeight: 400
TTFWidth: 5
LineGap: 127
VLineGap: 0
Panose: 2 0 6 0 0 0 0 0 0 0
OS2TypoAscent: 700
OS2TypoAOffset: 0
OS2TypoDescent: -300
OS2TypoDOffset: 0
OS2TypoLinegap: 127
OS2WinAscent: 825
OS2WinAOffset: 0
OS2WinDescent: 302
OS2WinDOffset: 0
HheadAscent: 700
HheadAOffset: 0
HheadDescent: -300
HheadDOffset: 0
OS2SubXSize: 700
OS2SubYSize: 650
OS2SubXOff: 0
OS2SubYOff: 200
OS2SupXSize: 700
OS2SupYSize: 650
OS2SupXOff: 0
OS2SupYOff: 500
OS2StrikeYSize: 50
OS2StrikeYPos: 250
OS2CapHeight: 604
OS2XHeight: 411
OS2Vendor: 'MODI'
OS2CodePages: 00000003.00000000
OS2UnicodeRanges: 80108003.00000000.00000000.00000000
Lookup: 4 0 0 "'akhn' Akhand in Tamil lookup 0" { "'akhn' Akhand in Tamil lookup 0 subtable"  } ['akhn' ('taml' <'dflt' > ) ]
Lookup: 4 0 0 "'abvs' Above Base Substitutions in Tamil lookup 1" { "'abvs' Above Base Substitutions in Tamil lookup 1 subtable"  } ['abvs' ('taml' <'dflt' > ) ]
Lookup: 4 0 0 "'abvs' Above Base Substitutions in Tamil lookup 2" { "'abvs' Above Base Substitutions in Tamil lookup 2 subtable"  } ['abvs' ('taml' <'dflt' > ) ]
Lookup: 4 0 0 "'blws' Below Base Substitutions in Tamil lookup 3" { "'blws' Below Base Substitutions in Tamil lookup 3 subtable"  } ['blws' ('taml' <'dflt' > ) ]
Lookup: 4 0 0 "'haln' Halant Forms in Tamil lookup 4" { "'haln' Halant Forms in Tamil lookup 4 subtable"  } ['haln' ('taml' <'dflt' > ) ]

StartChar: .notdef
Encoding: 256 -1 0
Width: 800
GlyphClass: 2
Flags: W
LayerCount: 2
Back
Fore
SplineSet
100 0 m 1,0,-1
 100 700 l 1,1,-1
 700 700 l 1,2,-1
 700 0 l 1,3,-1
 100 0 l 1,4,-1
 100 0 l 1,0,-1
150 50 m 1,5,-1
 650 50 l 1,6,-1
 650 650 l 1,7,-1
 150 650 l 1,8,-1
 150 50 l 1,9,-1
 150 50 l 1,5,-1
EndSplineSet
EndChar

StartChar: uni0B83
Encoding: 259 2947 4
Width: 685
GlyphClass: 2
Flags: W
LayerCount: 2
Back
Fore
SplineSet
304 136 m 1,0,1
 304 78 304 78 264 36 c 0,2,3
 225 -5 225 -5 169 -5 c 0,4,5
 107 -5 107 -5 70 34 c 0,6,7
 33 72 33 72 33 136 c 0,8,9
 33 201 33 201 70 240 c 256,10,11
 107 279 107 279 169 279 c 0,12,13
 225 279 225 279 264 237 c 0,14,15
 304 195 304 195 304 136 c 1,16,-1
 304 136 l 1,0,1
229 136 m 1,17,18
 229 183 229 183 205 216 c 0,19,20
 182 249 182 249 148 249 c 0,21,22
 113 249 113 249 88 216 c 256,23,24
 63 183 63 183 63 136 c 0,25,26
 63 90 63 90 88 58 c 0,27,28
 113 25 113 25 148 25 c 0,29,30
 182 25 182 25 205 58 c 0,31,32
 229 90 229 90 229 136 c 1,33,-1
 229 136 l 1,17,18
654 136 m 1,34,35
 654 78 654 78 614 36 c 0,36,37
 575 -5 575 -5 519 -5 c 0,38,39
 458 -5 458 -5 421 34 c 0,40,41
 384 72 384 72 384 136 c 0,42,43
 384 201 384 201 421 240 c 256,44,45
 458 279 458 279 519 279 c 0,46,47
 575 279 575 279 614 237 c 0,48,49
 654 195 654 195 654 136 c 1,50,-1
 654 136 l 1,34,35
579 136 m 1,51,52
 579 183 579 183 556 216 c 0,53,54
 532 249 532 249 499 249 c 0,55,56
 464 249 464 249 439 216 c 256,57,58
 414 183 414 183 414 136 c 0,59,60
 414 90 414 90 439 58 c 0,61,62
 464 25 464 25 499 25 c 0,63,64
 532 25 532 25 556 58 c 0,65,66
 579 90 579 90 579 136 c 1,67,-1
 579 136 l 1,51,52
479 501 m 1,68,69
 479 443 479 443 439 401 c 0,70,71
 400 360 400 360 344 360 c 0,72,73
 282 360 282 360 245 399 c 0,74,75
 208 437 208 437 208 501 c 0,76,77
 208 566 208 566 245 605 c 256,78,79
 282 644 282 644 344 644 c 0,80,81
 400 644 400 644 439 602 c 0,82,83
 479 560 479 560 479 501 c 1,84,-1
 479 501 l 1,68,69
404 501 m 1,85,86
 404 548 404 548 380 581 c 0,87,88
 357 614 357 614 323 614 c 0,89,90
 288 614 288 614 263 581 c 256,91,92
 238 548 238 548 238 501 c 0,93,94
 238 455 238 455 263 423 c 0,95,96
 288 390 288 390 323 390 c 0,97,98
 357 390 357 390 380 423 c 0,99,100
 404 455 404 455 404 501 c 1,101,-1
 404 501 l 1,85,86
EndSplineSet
EndChar

StartChar: uni0B85
Encoding: 260 2949 5
Width: 908
GlyphClass: 2
Flags: W
LayerCount: 2
Back
Fore
SplineSet
12 32 m 1,0,1
 12 51 12 51 30 65 c 0,2,3
 48 78 48 78 73 78 c 2,4,-1
 565 78 l 1,5,6
 597 141 597 141 597 215 c 0,7,8
 597 282 597 282 557 330 c 0,9,10
 518 377 518 377 462 377 c 1,11,12
 490 360 490 360 507 329 c 0,13,14
 523 298 523 298 523 262 c 0,15,16
 523 219 523 219 486 188 c 0,17,18
 448 158 448 158 395 158 c 0,19,20
 352 158 352 158 321 192 c 0,21,22
 290 225 290 225 290 273 c 0,23,24
 290 334 290 334 339 370 c 0,25,26
 387 407 387 407 468 407 c 0,27,28
 552 407 552 407 612 349 c 256,29,30
 672 291 672 291 672 209 c 256,31,32
 672 127 672 127 648 78 c 1,33,-1
 763 78 l 1,34,-1
 763 400 l 1,35,-1
 838 400 l 1,36,-1
 838 -134 l 1,37,-1
 763 -134 l 1,38,-1
 763 48 l 1,39,-1
 635 48 l 1,40,41
 592 -30 592 -30 500 -75 c 256,42,43
 408 -120 408 -120 292 -120 c 256,44,45
 176 -120 176 -120 94 -75 c 0,46,47
 12 -31 12 -31 12 32 c 1,48,-1
 12 32 l 1,0,1
448 270 m 1,49,50
 448 306 448 306 429 332 c 0,51,52
 411 358 411 358 384 358 c 256,53,54
 357 358 357 358 339 332 c 0,55,56
 320 306 320 306 320 270 c 0,57,58
 320 236 320 236 338 212 c 0,59,60
 357 188 357 188 383 188 c 0,61,62
 410 188 410 188 429 212 c 256,63,64
 448 236 448 236 448 270 c 1,65,-1
 448 270 l 1,49,50
550 48 m 1,66,-1
 75 48 l 2,67,68
 62 48 62 48 53 44 c 0,69,70
 45 40 45 40 43 33 c 0,71,72
 32 -14 32 -14 102 -52 c 0,73,74
 173 -90 173 -90 271 -90 c 0,75,76
 361 -90 361 -90 435 -53 c 0,77,78
 510 -16 510 -16 550 48 c 1,79,-1
 550 48 l 1,66,-1
EndSplineSet
EndChar

StartChar: uni0B86
Encoding: 261 2950 6
Width: 999
GlyphClass: 2
Flags: W
LayerCount: 2
Back
Fore
SplineSet
999 -58 m 1,0,1
 999 -167 999 -167 914 -232 c 0,2,3
 829 -298 829 -298 687 -298 c 0,4,5
 579 -298 579 -298 503 -267 c 256,6,7
 427 -236 427 -236 427 -193 c 0,8,9
 427 -174 427 -174 448 -160 c 0,10,11
 468 -146 468 -146 497 -146 c 2,12,-1
 612 -146 l 1,13,-1
 612 -176 l 1,14,-1
 495 -176 l 2,15,16
 479 -176 479 -176 468 -181 c 0,17,18
 457 -187 457 -187 457 -194 c 0,19,20
 457 -225 457 -225 524 -246 c 0,21,22
 592 -268 592 -268 687 -268 c 0,23,24
 795 -268 795 -268 859 -212 c 0,25,26
 924 -155 924 -155 924 -62 c 0,27,28
 924 -24 924 -24 908 3 c 256,29,30
 892 30 892 30 869 30 c 0,31,32
 859 30 859 30 851 27 c 0,33,34
 843 25 843 25 838 20 c 1,35,-1
 838 -113 l 1,36,-1
 763 -113 l 1,37,-1
 763 48 l 1,38,-1
 635 48 l 1,39,40
 592 -30 592 -30 500 -75 c 256,41,42
 408 -120 408 -120 292 -120 c 256,43,44
 176 -120 176 -120 94 -75 c 0,45,46
 12 -31 12 -31 12 32 c 0,47,48
 12 51 12 51 30 65 c 0,49,50
 48 78 48 78 73 78 c 2,51,-1
 564 78 l 1,52,53
 597 143 597 143 597 215 c 0,54,55
 597 282 597 282 557 330 c 0,56,57
 518 377 518 377 462 377 c 1,58,59
 490 360 490 360 507 329 c 0,60,61
 523 298 523 298 523 262 c 0,62,63
 523 219 523 219 486 188 c 0,64,65
 448 158 448 158 395 158 c 0,66,67
 352 158 352 158 321 192 c 0,68,69
 290 225 290 225 290 273 c 0,70,71
 290 334 290 334 339 370 c 0,72,73
 387 407 387 407 468 407 c 0,74,75
 552 407 552 407 612 349 c 256,76,77
 672 291 672 291 672 209 c 256,78,79
 672 127 672 127 648 78 c 1,80,-1
 763 78 l 1,81,-1
 763 400 l 1,82,-1
 838 400 l 1,83,-1
 838 48 l 1,84,85
 859 60 859 60 882 60 c 0,86,87
 930 60 930 60 965 25 c 0,88,89
 999 -9 999 -9 999 -58 c 1,90,-1
 999 -58 l 1,0,1
448 270 m 1,91,92
 448 306 448 306 429 332 c 0,93,94
 411 358 411 358 384 358 c 256,95,96
 357 358 357 358 339 332 c 0,97,98
 320 306 320 306 320 270 c 0,99,100
 320 236 320 236 338 212 c 256,101,102
 356 188 356 188 382 188 c 0,103,104
 409 188 409 188 429 212 c 0,105,106
 448 236 448 236 448 270 c 1,107,-1
 448 270 l 1,91,92
550 48 m 1,108,-1
 75 48 l 2,109,110
 62 48 62 48 53 44 c 0,111,112
 45 40 45 40 43 33 c 0,113,114
 32 -14 32 -14 102 -52 c 0,115,116
 173 -90 173 -90 271 -90 c 0,117,118
 361 -90 361 -90 435 -53 c 0,119,120
 510 -16 510 -16 550 48 c 1,121,-1
 550 48 l 1,108,-1
EndSplineSet
EndChar

StartChar: uni0B87
Encoding: 262 2951 7
Width: 913
GlyphClass: 2
Flags: W
LayerCount: 2
Back
Fore
SplineSet
848 -273 m 1,0,-1
 818 -273 l 1,1,-1
 818 189 l 2,2,3
 818 373 818 373 717 483 c 0,4,5
 617 594 617 594 450 594 c 0,6,7
 289 594 289 594 193 496 c 0,8,9
 96 398 96 398 96 236 c 0,10,11
 96 113 96 113 174 2 c 1,12,13
 270 53 270 53 418 53 c 0,14,15
 480 53 480 53 539 36 c 1,16,17
 585 113 585 113 585 201 c 0,18,19
 585 272 585 272 548 323 c 0,20,21
 511 373 511 373 458 373 c 1,22,23
 486 357 486 357 502 326 c 0,24,25
 518 294 518 294 518 256 c 0,26,27
 518 206 518 206 483 176 c 256,28,29
 448 146 448 146 390 146 c 0,30,31
 341 146 341 146 311 177 c 0,32,33
 282 209 282 209 282 261 c 0,34,35
 282 325 282 325 328 364 c 0,36,37
 375 403 375 403 452 403 c 0,38,39
 538 403 538 403 599 341 c 0,40,41
 660 280 660 280 660 193 c 0,42,43
 660 86 660 86 612 15 c 1,44,45
 672 -10 672 -10 707 -52 c 0,46,47
 743 -94 743 -94 743 -139 c 0,48,49
 743 -199 743 -199 686 -242 c 256,50,51
 629 -285 629 -285 549 -285 c 0,52,53
 441 -285 441 -285 348 -222 c 1,54,55
 258 -285 258 -285 149 -285 c 0,56,57
 95 -285 95 -285 56 -256 c 0,58,59
 18 -227 18 -227 18 -186 c 0,60,61
 18 -136 18 -136 51 -90 c 256,62,63
 84 -44 84 -44 141 -15 c 1,64,65
 98 40 98 40 75 111 c 0,66,67
 52 181 52 181 52 259 c 0,68,69
 52 446 52 446 161 558 c 0,70,71
 271 671 271 671 452 671 c 0,72,73
 632 671 632 671 740 539 c 256,74,75
 848 407 848 407 848 188 c 2,76,-1
 848 -273 l 1,77,-1
 848 -273 l 1,0,-1
443 262 m 1,78,79
 443 298 443 298 426 324 c 0,80,81
 408 349 408 349 384 349 c 0,82,83
 354 349 354 349 333 324 c 256,84,85
 312 299 312 299 312 264 c 0,86,87
 312 228 312 228 332 202 c 256,88,89
 352 176 352 176 380 176 c 0,90,91
 406 176 406 176 425 201 c 0,92,93
 443 226 443 226 443 262 c 1,94,-1
 443 262 l 1,78,79
509 -9 m 1,95,96
 460 7 460 7 402 7 c 0,97,98
 267 7 267 7 194 -32 c 1,99,100
 259 -119 259 -119 346 -175 c 1,101,102
 440 -112 440 -112 509 -9 c 1,103,-1
 509 -9 l 1,95,96
656 -137 m 1,104,105
 656 -102 656 -102 635 -74 c 0,106,107
 613 -46 613 -46 579 -36 c 1,108,109
 501 -133 501 -133 392 -198 c 1,110,111
 450 -229 450 -229 520 -229 c 0,112,113
 576 -229 576 -229 616 -202 c 256,114,115
 656 -175 656 -175 656 -137 c 1,116,-1
 656 -137 l 1,104,105
314 -198 m 1,117,118
 223 -132 223 -132 159 -50 c 1,119,120
 108 -76 108 -76 78 -113 c 0,121,122
 48 -149 48 -149 48 -186 c 0,123,124
 48 -215 48 -215 79 -235 c 256,125,126
 110 -255 110 -255 153 -255 c 0,127,128
 233 -255 233 -255 314 -198 c 1,129,-1
 314 -198 l 1,117,118
EndSplineSet
EndChar

StartChar: uni0B88
Encoding: 263 2952 8
Width: 583
GlyphClass: 2
Flags: W
LayerCount: 2
Back
Fore
SplineSet
555 370 m 1,0,-1
 409 370 l 1,1,-1
 409 0 l 1,2,-1
 334 0 l 1,3,-1
 334 370 l 1,4,-1
 100 370 l 1,5,-1
 100 0 l 1,6,-1
 70 0 l 1,7,-1
 70 400 l 1,8,-1
 555 400 l 1,9,-1
 555 370 l 1,10,-1
 555 370 l 1,0,-1
272 199 m 1,11,12
 272 178 272 178 255 163 c 0,13,14
 239 148 239 148 215 148 c 0,15,16
 192 148 192 148 175 163 c 0,17,18
 159 178 159 178 159 199 c 256,19,20
 159 220 159 220 175 234 c 0,21,22
 192 249 192 249 215 249 c 0,23,24
 239 249 239 249 255 234 c 0,25,26
 272 220 272 220 272 199 c 1,27,-1
 272 199 l 1,11,12
564 199 m 1,28,29
 564 178 564 178 547 163 c 0,30,31
 531 148 531 148 507 148 c 0,32,33
 484 148 484 148 467 163 c 0,34,35
 451 178 451 178 451 199 c 256,36,37
 451 220 451 220 467 234 c 0,38,39
 484 249 484 249 507 249 c 0,40,41
 531 249 531 249 547 234 c 0,42,43
 564 220 564 220 564 199 c 1,44,-1
 564 199 l 1,28,29
EndSplineSet
EndChar

StartChar: uni0B89
Encoding: 264 2953 9
Width: 709
GlyphClass: 2
Flags: W
LayerCount: 2
Back
Fore
SplineSet
704 0 m 1,0,-1
 128 0 l 2,1,2
 90 0 90 0 63 19 c 0,3,4
 36 37 36 37 36 64 c 0,5,6
 36 89 36 89 59 107 c 256,7,8
 82 125 82 125 115 125 c 2,9,-1
 266 125 l 2,10,11
 308 125 308 125 338 162 c 0,12,13
 368 200 368 200 368 253 c 0,14,15
 368 302 368 302 337 337 c 256,16,17
 306 372 306 372 263 372 c 2,18,-1
 192 372 l 1,19,20
 220 364 220 364 238 338 c 0,21,22
 256 313 256 313 256 280 c 0,23,24
 256 237 256 237 225 212 c 0,25,26
 193 186 193 186 141 186 c 0,27,28
 102 186 102 186 74 214 c 0,29,30
 46 241 46 241 46 280 c 0,31,32
 46 340 46 340 94 371 c 256,33,34
 142 402 142 402 236 402 c 256,35,36
 330 402 330 402 386 361 c 0,37,38
 443 320 443 320 443 252 c 0,39,40
 443 187 443 187 394 141 c 256,41,42
 345 95 345 95 275 95 c 2,43,-1
 156 95 l 2,44,45
 137 95 137 95 124 86 c 0,46,47
 111 76 111 76 111 63 c 0,48,49
 111 49 111 49 124 40 c 0,50,51
 136 30 136 30 154 30 c 2,52,-1
 704 30 l 1,53,-1
 704 0 l 1,54,-1
 704 0 l 1,0,-1
181 286 m 1,55,56
 181 315 181 315 165 335 c 0,57,58
 149 356 149 356 127 356 c 0,59,60
 106 356 106 356 91 335 c 0,61,62
 76 315 76 315 76 286 c 256,63,64
 76 257 76 257 90 237 c 0,65,66
 105 216 105 216 125 216 c 0,67,68
 148 216 148 216 165 237 c 0,69,70
 181 257 181 257 181 286 c 1,71,-1
 181 286 l 1,55,56
EndSplineSet
EndChar

StartChar: uni0B8A
Encoding: 265 2954 10
Width: 1215
GlyphClass: 2
Flags: W
LayerCount: 2
Back
Fore
SplineSet
1189 370 m 1,0,-1
 1141 370 l 1,1,-1
 1141 90 l 1,2,-1
 1066 90 l 1,3,-1
 1066 370 l 1,4,-1
 948 370 l 1,5,-1
 948 90 l 1,6,-1
 873 90 l 1,7,-1
 873 285 l 1,8,9
 842 325 842 325 796 348 c 0,10,11
 750 370 750 370 700 370 c 0,12,13
 636 370 636 370 590 327 c 0,14,15
 545 284 545 284 545 224 c 0,16,17
 545 194 545 194 557 168 c 0,18,19
 570 141 570 141 592 123 c 1,20,21
 583 135 583 135 578 152 c 0,22,23
 573 170 573 170 573 190 c 0,24,25
 573 237 573 237 601 265 c 0,26,27
 630 293 630 293 677 293 c 0,28,29
 725 293 725 293 754 265 c 256,30,31
 783 237 783 237 783 191 c 0,32,33
 783 142 783 142 750 112 c 0,34,35
 717 83 717 83 662 83 c 0,36,37
 601 83 601 83 558 125 c 0,38,39
 515 168 515 168 515 228 c 0,40,41
 515 299 515 299 569 350 c 0,42,43
 623 400 623 400 699 400 c 0,44,45
 769 400 769 400 822 383 c 0,46,47
 876 365 876 365 902 334 c 1,48,-1
 902 400 l 1,49,-1
 1189 400 l 1,50,-1
 1189 370 l 1,51,-1
 1189 370 l 1,0,-1
708 189 m 1,52,53
 708 220 708 220 692 241 c 0,54,55
 677 263 677 263 655 263 c 256,56,57
 633 263 633 263 618 241 c 256,58,59
 603 219 603 219 603 188 c 256,60,61
 603 157 603 157 619 135 c 0,62,63
 636 113 636 113 659 113 c 0,64,65
 679 113 679 113 694 135 c 0,66,67
 708 158 708 158 708 189 c 1,68,-1
 708 189 l 1,52,53
1189 0 m 1,69,-1
 128 0 l 2,70,71
 90 0 90 0 63 19 c 0,72,73
 36 37 36 37 36 64 c 0,74,75
 36 87 36 87 59 104 c 0,76,77
 82 120 82 120 115 120 c 2,78,-1
 266 120 l 2,79,80
 308 120 308 120 338 159 c 256,81,82
 368 198 368 198 368 253 c 0,83,84
 368 301 368 301 337 336 c 0,85,86
 306 370 306 370 263 370 c 2,87,-1
 192 370 l 1,88,89
 220 362 220 362 238 337 c 256,90,91
 256 312 256 312 256 280 c 0,92,93
 256 237 256 237 225 212 c 0,94,95
 193 186 193 186 141 186 c 0,96,97
 102 186 102 186 74 214 c 0,98,99
 46 241 46 241 46 280 c 0,100,101
 46 339 46 339 94 370 c 0,102,103
 142 400 142 400 236 400 c 256,104,105
 330 400 330 400 386 360 c 0,106,107
 443 319 443 319 443 252 c 256,108,109
 443 185 443 185 394 137 c 0,110,111
 345 90 345 90 275 90 c 2,112,-1
 156 90 l 2,113,114
 137 90 137 90 124 82 c 256,115,116
 111 74 111 74 111 63 c 0,117,118
 111 49 111 49 124 40 c 0,119,120
 136 30 136 30 154 30 c 2,121,-1
 1189 30 l 1,122,-1
 1189 0 l 1,123,-1
 1189 0 l 1,69,-1
181 286 m 1,124,125
 181 315 181 315 165 335 c 0,126,127
 149 356 149 356 127 356 c 0,128,129
 106 356 106 356 91 335 c 0,130,131
 76 315 76 315 76 286 c 256,132,133
 76 257 76 257 90 237 c 0,134,135
 105 216 105 216 125 216 c 0,136,137
 148 216 148 216 165 237 c 0,138,139
 181 257 181 257 181 286 c 1,140,-1
 181 286 l 1,124,125
EndSplineSet
EndChar

StartChar: uni0B8E
Encoding: 266 2958 11
Width: 695
GlyphClass: 2
Flags: W
LayerCount: 2
Back
Fore
SplineSet
503 0 m 1,0,-1
 503 370 l 1,1,-1
 246 370 l 2,2,3
 172 370 172 370 120 314 c 0,4,5
 68 259 68 259 68 180 c 0,6,7
 68 130 68 130 86 93 c 256,8,9
 104 56 104 56 133 44 c 1,10,11
 106 80 106 80 106 120 c 0,12,13
 106 166 106 166 141 198 c 256,14,15
 176 230 176 230 226 230 c 256,16,17
 276 230 276 230 312 199 c 0,18,19
 347 167 347 167 347 123 c 0,20,21
 347 72 347 72 307 36 c 0,22,23
 268 0 268 0 212 0 c 0,24,25
 140 0 140 0 89 54 c 0,26,27
 38 107 38 107 38 183 c 0,28,29
 38 273 38 273 99 336 c 0,30,31
 160 400 160 400 246 400 c 2,32,-1
 690 400 l 1,33,-1
 690 370 l 1,34,-1
 578 370 l 1,35,-1
 578 0 l 1,36,-1
 503 0 l 1,37,-1
 503 0 l 1,0,-1
272 119 m 1,38,39
 272 153 272 153 253 176 c 0,40,41
 233 200 233 200 206 200 c 0,42,43
 177 200 177 200 157 176 c 0,44,45
 136 151 136 151 136 117 c 0,46,47
 136 84 136 84 155 60 c 0,48,49
 173 37 173 37 200 37 c 0,50,51
 230 37 230 37 251 61 c 256,52,53
 272 85 272 85 272 119 c 1,54,-1
 272 119 l 1,38,39
EndSplineSet
EndChar

StartChar: uni0B8F
Encoding: 267 2959 12
Width: 695
GlyphClass: 2
Flags: W
LayerCount: 2
Back
Fore
SplineSet
260 -117 m 1,0,-1
 505 -1 l 1,1,-1
 505 370 l 1,2,-1
 246 370 l 2,3,4
 172 370 172 370 120 314 c 0,5,6
 68 259 68 259 68 180 c 0,7,8
 68 133 68 133 86 96 c 256,9,10
 104 59 104 59 134 44 c 1,11,12
 120 62 120 62 113 82 c 0,13,14
 106 101 106 101 106 120 c 0,15,16
 106 166 106 166 141 198 c 256,17,18
 176 230 176 230 226 230 c 256,19,20
 276 230 276 230 312 199 c 0,21,22
 347 167 347 167 347 123 c 0,23,24
 347 72 347 72 307 36 c 0,25,26
 268 0 268 0 212 0 c 0,27,28
 140 0 140 0 89 54 c 0,29,30
 38 107 38 107 38 183 c 0,31,32
 38 273 38 273 99 336 c 0,33,34
 160 400 160 400 246 400 c 2,35,-1
 690 400 l 1,36,-1
 690 370 l 1,37,-1
 580 370 l 1,38,-1
 580 0 l 1,39,-1
 277 -141 l 1,40,-1
 260 -117 l 1,41,-1
 260 -117 l 1,0,-1
272 119 m 1,42,43
 272 153 272 153 253 176 c 0,44,45
 233 200 233 200 206 200 c 0,46,47
 177 200 177 200 157 176 c 0,48,49
 136 151 136 151 136 117 c 0,50,51
 136 84 136 84 155 60 c 0,52,53
 173 37 173 37 200 37 c 0,54,55
 230 37 230 37 251 61 c 256,56,57
 272 85 272 85 272 119 c 1,58,-1
 272 119 l 1,42,43
EndSplineSet
EndChar

StartChar: uni0B90
Encoding: 268 2960 13
Width: 708
GlyphClass: 2
Flags: W
LayerCount: 2
Back
Fore
SplineSet
34 258 m 1,0,1
 34 316 34 316 85 357 c 0,2,3
 135 398 135 398 207 398 c 0,4,5
 273 398 273 398 324 377 c 0,6,7
 374 356 374 356 397 320 c 1,8,9
 410 355 410 355 444 377 c 0,10,11
 477 398 477 398 520 398 c 0,12,13
 583 398 583 398 628 350 c 0,14,15
 673 301 673 301 673 233 c 0,16,17
 673 157 673 157 619 104 c 0,18,19
 564 50 564 50 487 50 c 2,20,-1
 215 50 l 2,21,22
 168 50 168 50 134 17 c 0,23,24
 101 -17 101 -17 101 -64 c 0,25,26
 101 -115 101 -115 131 -150 c 0,27,28
 162 -186 162 -186 205 -186 c 0,29,30
 263 -186 263 -186 305 -157 c 0,31,32
 346 -127 346 -127 346 -86 c 2,33,-1
 346 2 l 1,34,-1
 421 2 l 1,35,-1
 421 -91 l 2,36,37
 421 -130 421 -130 452 -158 c 256,38,39
 483 -186 483 -186 526 -186 c 0,40,41
 572 -186 572 -186 604 -157 c 256,42,43
 636 -128 636 -128 636 -87 c 2,44,-1
 636 2 l 1,45,-1
 666 2 l 1,46,-1
 666 -87 l 2,47,48
 666 -140 666 -140 626 -178 c 256,49,50
 586 -216 586 -216 529 -216 c 0,51,52
 470 -216 470 -216 425 -194 c 0,53,54
 379 -172 379 -172 362 -135 c 1,55,56
 336 -173 336 -173 293 -194 c 0,57,58
 249 -216 249 -216 197 -216 c 0,59,60
 126 -216 126 -216 76 -170 c 256,61,62
 26 -124 26 -124 26 -59 c 0,63,64
 26 -1 26 -1 77 39 c 0,65,66
 128 80 128 80 200 80 c 2,67,-1
 478 80 l 2,68,69
 528 80 528 80 563 124 c 256,70,71
 598 168 598 168 598 231 c 0,72,73
 598 288 598 288 572 328 c 256,74,75
 546 368 546 368 510 368 c 0,76,77
 473 368 473 368 447 339 c 0,78,79
 421 311 421 311 421 270 c 2,80,-1
 421 138 l 1,81,-1
 346 138 l 1,82,-1
 346 259 l 2,83,84
 346 304 346 304 303 336 c 256,85,86
 260 368 260 368 199 368 c 0,87,88
 143 368 143 368 104 335 c 0,89,90
 64 303 64 303 64 257 c 0,91,92
 64 223 64 223 80 196 c 256,93,94
 96 169 96 169 123 159 c 1,95,96
 110 173 110 173 103 191 c 256,97,98
 96 209 96 209 96 229 c 0,99,100
 96 269 96 269 121 297 c 256,101,102
 146 325 146 325 182 325 c 0,103,104
 226 325 226 325 253 298 c 0,105,106
 280 270 280 270 280 225 c 0,107,108
 280 181 280 181 248 154 c 256,109,110
 216 127 216 127 163 127 c 256,111,112
 110 127 110 127 72 165 c 0,113,114
 34 204 34 204 34 258 c 1,115,-1
 34 258 l 1,0,1
217 225 m 1,116,117
 217 254 217 254 204 274 c 0,118,119
 191 295 191 295 173 295 c 0,120,121
 154 295 154 295 140 276 c 0,122,123
 126 256 126 256 126 229 c 0,124,125
 126 199 126 199 139 178 c 256,126,127
 152 157 152 157 170 157 c 0,128,129
 189 157 189 157 203 177 c 256,130,131
 217 197 217 197 217 225 c 1,132,-1
 217 225 l 1,116,117
EndSplineSet
EndChar

StartChar: uni0B92
Encoding: 269 2962 14
Width: 716
GlyphClass: 2
Flags: W
LayerCount: 2
Back
Fore
SplineSet
37 156 m 1,0,1
 37 266 37 266 120 333 c 0,2,3
 203 399 203 399 341 399 c 0,4,5
 495 399 495 399 588 332 c 256,6,7
 681 265 681 265 681 154 c 0,8,9
 681 94 681 94 639 51 c 256,10,11
 597 8 597 8 538 8 c 0,12,13
 498 8 498 8 470 37 c 0,14,15
 442 67 442 67 442 108 c 2,16,-1
 442 131 l 1,17,18
 422 116 422 116 410 92 c 0,19,20
 399 68 399 68 399 40 c 0,21,22
 399 -7 399 -7 434 -41 c 0,23,24
 469 -74 469 -74 518 -74 c 2,25,-1
 612 -74 l 1,26,-1
 612 -104 l 1,27,-1
 474 -104 l 2,28,29
 450 -104 450 -104 433 -125 c 256,30,31
 416 -146 416 -146 416 -176 c 0,32,33
 416 -224 416 -224 368 -253 c 0,34,35
 319 -282 319 -282 239 -282 c 0,36,37
 173 -282 173 -282 127 -252 c 0,38,39
 80 -221 80 -221 80 -178 c 0,40,41
 80 -151 80 -151 88 -129 c 0,42,43
 97 -106 97 -106 112 -92 c 1,44,-1
 133 -110 l 1,45,46
 122 -123 122 -123 116 -141 c 0,47,48
 110 -158 110 -158 110 -179 c 0,49,50
 110 -212 110 -212 146 -232 c 0,51,52
 181 -252 181 -252 240 -252 c 0,53,54
 286 -252 286 -252 313 -228 c 0,55,56
 341 -204 341 -204 341 -164 c 0,57,58
 341 -129 341 -129 367 -105 c 0,59,60
 393 -80 393 -80 429 -80 c 2,61,-1
 453 -80 l 1,62,63
 415 -66 415 -66 392 -32 c 0,64,65
 369 1 369 1 369 43 c 0,66,67
 369 99 369 99 406 138 c 0,68,69
 442 178 442 178 494 178 c 1,70,71
 483 165 483 165 478 148 c 0,72,73
 472 130 472 130 472 109 c 0,74,75
 472 80 472 80 491 59 c 0,76,77
 511 38 511 38 538 38 c 0,78,79
 566 38 566 38 586 72 c 0,80,81
 606 105 606 105 606 153 c 0,82,83
 606 237 606 237 527 296 c 256,84,85
 448 355 448 355 336 355 c 0,86,87
 225 355 225 355 146 297 c 0,88,89
 67 238 67 238 67 156 c 0,90,91
 67 112 67 112 88 77 c 256,92,93
 109 42 109 42 143 28 c 1,94,95
 127 43 127 43 119 63 c 0,96,97
 110 83 110 83 110 105 c 0,98,99
 110 148 110 148 140 178 c 256,100,101
 170 208 170 208 212 208 c 0,102,103
 258 208 258 208 291 176 c 0,104,105
 324 145 324 145 324 100 c 0,106,107
 324 54 324 54 288 22 c 256,108,109
 252 -10 252 -10 201 -10 c 0,110,111
 133 -10 133 -10 85 39 c 0,112,113
 37 87 37 87 37 156 c 1,114,-1
 37 156 l 1,0,1
249 104 m 1,115,116
 249 135 249 135 236 156 c 0,117,118
 223 178 223 178 204 178 c 0,119,120
 177 178 177 178 159 157 c 0,121,122
 140 136 140 136 140 106 c 0,123,124
 140 70 140 70 155 45 c 0,125,126
 169 20 169 20 190 20 c 0,127,128
 214 20 214 20 232 45 c 0,129,130
 249 69 249 69 249 104 c 1,131,-1
 249 104 l 1,115,116
EndSplineSet
EndChar

StartChar: uni0B93
Encoding: 270 2963 15
Width: 716
GlyphClass: 2
Flags: W
LayerCount: 2
Back
Fore
SplineSet
37 156 m 1,0,1
 37 266 37 266 120 333 c 0,2,3
 203 399 203 399 341 399 c 0,4,5
 495 399 495 399 588 332 c 256,6,7
 681 265 681 265 681 154 c 0,8,9
 681 94 681 94 639 51 c 256,10,11
 597 8 597 8 538 8 c 0,12,13
 498 8 498 8 470 37 c 0,14,15
 442 67 442 67 442 108 c 2,16,-1
 442 131 l 1,17,18
 422 116 422 116 410 92 c 0,19,20
 399 68 399 68 399 40 c 0,21,22
 399 -7 399 -7 434 -41 c 0,23,24
 469 -74 469 -74 518 -74 c 2,25,-1
 612 -74 l 1,26,-1
 612 -104 l 1,27,-1
 474 -104 l 2,28,29
 450 -104 450 -104 433 -125 c 256,30,31
 416 -146 416 -146 416 -176 c 0,32,33
 416 -233 416 -233 368 -268 c 0,34,35
 319 -302 319 -302 239 -302 c 0,36,37
 173 -302 173 -302 127 -264 c 0,38,39
 80 -226 80 -226 80 -173 c 256,40,41
 80 -120 80 -120 115 -82 c 256,42,43
 150 -44 150 -44 200 -44 c 0,44,45
 243 -44 243 -44 273 -68 c 0,46,47
 303 -93 303 -93 303 -127 c 256,48,49
 303 -161 303 -161 280 -186 c 0,50,51
 257 -210 257 -210 224 -210 c 0,52,53
 195 -210 195 -210 174 -187 c 0,54,55
 153 -165 153 -165 153 -133 c 0,56,57
 153 -121 153 -121 157 -112 c 0,58,59
 160 -102 160 -102 167 -95 c 1,60,61
 142 -99 142 -99 126 -122 c 0,62,63
 110 -144 110 -144 110 -174 c 0,64,65
 110 -218 110 -218 146 -245 c 0,66,67
 181 -272 181 -272 240 -272 c 0,68,69
 286 -272 286 -272 313 -243 c 0,70,71
 341 -213 341 -213 341 -164 c 0,72,73
 341 -129 341 -129 367 -105 c 0,74,75
 393 -80 393 -80 429 -80 c 2,76,-1
 453 -80 l 1,77,78
 415 -66 415 -66 392 -32 c 0,79,80
 369 1 369 1 369 43 c 0,81,82
 369 99 369 99 406 138 c 0,83,84
 442 178 442 178 494 178 c 1,85,86
 483 165 483 165 478 148 c 0,87,88
 472 130 472 130 472 109 c 0,89,90
 472 80 472 80 491 59 c 0,91,92
 511 38 511 38 538 38 c 0,93,94
 566 38 566 38 586 72 c 0,95,96
 606 105 606 105 606 153 c 0,97,98
 606 237 606 237 527 296 c 256,99,100
 448 355 448 355 336 355 c 0,101,102
 225 355 225 355 146 297 c 0,103,104
 67 238 67 238 67 156 c 0,105,106
 67 112 67 112 88 77 c 256,107,108
 109 42 109 42 143 28 c 1,109,110
 127 43 127 43 119 63 c 0,111,112
 110 83 110 83 110 105 c 0,113,114
 110 148 110 148 140 178 c 256,115,116
 170 208 170 208 212 208 c 0,117,118
 258 208 258 208 291 176 c 0,119,120
 324 145 324 145 324 100 c 0,121,122
 324 54 324 54 288 22 c 256,123,124
 252 -10 252 -10 201 -10 c 0,125,126
 133 -10 133 -10 85 39 c 0,127,128
 37 87 37 87 37 156 c 1,129,-1
 37 156 l 1,0,1
249 99 m 1,130,131
 249 132 249 132 233 155 c 256,132,133
 217 178 217 178 195 178 c 0,134,135
 172 178 172 178 156 155 c 256,136,137
 140 132 140 132 140 99 c 256,138,139
 140 66 140 66 156 43 c 256,140,141
 172 20 172 20 195 20 c 0,142,143
 217 20 217 20 233 43 c 256,144,145
 249 66 249 66 249 99 c 1,146,-1
 249 99 l 1,130,131
269 -141 m 1,147,148
 269 -123 269 -123 256 -110 c 256,149,150
 243 -97 243 -97 225 -97 c 0,151,152
 208 -97 208 -97 197 -110 c 0,153,154
 185 -123 185 -123 185 -141 c 256,155,156
 185 -159 185 -159 197 -172 c 0,157,158
 208 -185 208 -185 225 -185 c 0,159,160
 243 -185 243 -185 256 -172 c 256,161,162
 269 -159 269 -159 269 -141 c 1,163,-1
 269 -141 l 1,147,148
EndSplineSet
EndChar

StartChar: uni0B95
Encoding: 272 2965 17
Width: 566
GlyphClass: 2
Flags: W
LayerCount: 2
Back
Fore
SplineSet
536 114 m 1,0,1
 536 53 536 53 502 26 c 0,2,3
 468 0 468 0 389 0 c 1,4,-1
 389 30 l 1,5,6
 429 30 429 30 445 48 c 0,7,8
 461 67 461 67 461 113 c 0,9,10
 461 149 461 149 451 167 c 0,11,12
 442 185 442 185 423 185 c 2,13,-1
 357 185 l 1,14,-1
 357 131 l 2,15,16
 357 65 357 65 308 32 c 0,17,18
 259 -2 259 -2 162 -2 c 0,19,20
 105 -2 105 -2 65 38 c 256,21,22
 25 78 25 78 25 134 c 0,23,24
 25 171 25 171 51 193 c 256,25,26
 77 215 77 215 120 215 c 2,27,-1
 144 215 l 1,28,-1
 144 400 l 1,29,-1
 491 400 l 1,30,-1
 491 370 l 1,31,-1
 357 370 l 1,32,-1
 357 215 l 1,33,-1
 456 215 l 2,34,35
 492 215 492 215 514 187 c 0,36,37
 536 160 536 160 536 114 c 1,38,-1
 536 114 l 1,0,1
282 215 m 1,39,-1
 282 370 l 1,40,-1
 174 370 l 1,41,-1
 174 215 l 1,42,-1
 282 215 l 1,43,-1
 282 215 l 1,39,-1
282 138 m 1,44,-1
 282 185 l 1,45,-1
 113 185 l 2,46,47
 87 185 87 185 71 171 c 0,48,49
 55 158 55 158 55 135 c 0,50,51
 55 86 55 86 84 57 c 0,52,53
 114 28 114 28 163 28 c 256,54,55
 212 28 212 28 247 60 c 256,56,57
 282 92 282 92 282 138 c 1,58,-1
 282 138 l 1,44,-1
EndSplineSet
EndChar

StartChar: uni0B99
Encoding: 273 2969 18
Width: 769
GlyphClass: 2
Flags: W
LayerCount: 2
Back
Fore
SplineSet
699 0 m 1,0,-1
 246 0 l 1,1,-1
 246 30 l 1,2,-1
 397 30 l 1,3,4
 427 47 427 47 444 76 c 0,5,6
 461 104 461 104 461 137 c 0,7,8
 461 180 461 180 437 210 c 256,9,10
 413 240 413 240 379 240 c 0,11,12
 363 240 363 240 348 233 c 0,13,14
 333 225 333 225 321 212 c 1,15,-1
 321 110 l 1,16,-1
 246 110 l 1,17,-1
 246 370 l 1,18,-1
 100 370 l 1,19,-1
 100 0 l 1,20,-1
 70 0 l 1,21,-1
 70 400 l 1,22,-1
 504 400 l 1,23,-1
 504 370 l 1,24,-1
 321 370 l 1,25,-1
 321 247 l 1,26,27
 337 258 337 258 359 264 c 256,28,29
 381 270 381 270 407 270 c 0,30,31
 466 270 466 270 501 234 c 0,32,33
 536 197 536 197 536 137 c 0,34,35
 536 103 536 103 514 74 c 0,36,37
 493 44 493 44 457 30 c 1,38,-1
 624 30 l 1,39,-1
 624 400 l 1,40,-1
 699 400 l 1,41,-1
 699 0 l 1,42,-1
 699 0 l 1,0,-1
EndSplineSet
EndChar

StartChar: uni0B9A
Encoding: 274 2970 19
Width: 504
GlyphClass: 2
Flags: W
LayerCount: 2
Back
Fore
SplineSet
493 185 m 1,0,-1
 358 185 l 1,1,-1
 358 137 l 2,2,3
 358 68 358 68 309 33 c 256,4,5
 260 -2 260 -2 163 -2 c 0,6,7
 101 -2 101 -2 63 36 c 0,8,9
 26 74 26 74 26 137 c 0,10,11
 26 172 26 172 52 194 c 0,12,13
 78 215 78 215 121 215 c 2,14,-1
 135 215 l 1,15,-1
 135 400 l 1,16,-1
 493 400 l 1,17,-1
 493 370 l 1,18,-1
 358 370 l 1,19,-1
 358 215 l 1,20,-1
 493 215 l 1,21,-1
 493 185 l 1,22,-1
 493 185 l 1,0,-1
283 215 m 1,23,-1
 283 370 l 1,24,-1
 165 370 l 1,25,-1
 165 215 l 1,26,-1
 283 215 l 1,27,-1
 283 215 l 1,23,-1
283 137 m 1,28,-1
 283 185 l 1,29,-1
 114 185 l 2,30,31
 88 185 88 185 72 172 c 256,32,33
 56 159 56 159 56 137 c 0,34,35
 56 88 56 88 85 58 c 0,36,37
 115 28 115 28 164 28 c 0,38,39
 218 28 218 28 250 58 c 0,40,41
 283 88 283 88 283 137 c 1,42,-1
 283 137 l 1,28,-1
EndSplineSet
EndChar

StartChar: uni0B9C
Encoding: 275 2972 20
Width: 718
GlyphClass: 2
Flags: W
LayerCount: 2
Back
Fore
SplineSet
684 228 m 1,0,1
 684 154 684 154 623 102 c 0,2,3
 563 50 563 50 477 50 c 2,4,-1
 215 50 l 2,5,6
 167 50 167 50 134 17 c 0,7,8
 100 -17 100 -17 100 -64 c 0,9,10
 100 -115 100 -115 131 -152 c 0,11,12
 162 -188 162 -188 205 -188 c 0,13,14
 234 -188 234 -188 273 -162 c 0,15,16
 313 -136 313 -136 358 -88 c 0,17,18
 399 -44 399 -44 447 -20 c 0,19,20
 494 4 494 4 541 4 c 0,21,22
 606 4 606 4 645 -28 c 256,23,24
 684 -60 684 -60 684 -114 c 0,25,26
 684 -166 684 -166 644 -197 c 0,27,28
 605 -228 605 -228 539 -228 c 0,29,30
 504 -228 504 -228 473 -216 c 0,31,32
 442 -203 442 -203 421 -181 c 1,33,-1
 436 -157 l 1,34,35
 459 -177 459 -177 485 -187 c 0,36,37
 512 -198 512 -198 539 -198 c 0,38,39
 568 -198 568 -198 588 -173 c 0,40,41
 609 -148 609 -148 609 -113 c 0,42,43
 609 -77 609 -77 586 -51 c 0,44,45
 563 -26 563 -26 531 -26 c 0,46,47
 463 -26 463 -26 366 -122 c 256,48,49
 269 -218 269 -218 201 -218 c 0,50,51
 121 -218 121 -218 73 -176 c 256,52,53
 25 -134 25 -134 25 -64 c 0,54,55
 25 -4 25 -4 79 38 c 256,56,57
 133 80 133 80 210 80 c 2,58,-1
 478 80 l 2,59,60
 532 80 532 80 571 124 c 0,61,62
 609 168 609 168 609 231 c 0,63,64
 609 288 609 288 580 328 c 0,65,66
 552 368 552 368 511 368 c 0,67,68
 475 368 475 368 449 340 c 0,69,70
 423 311 423 311 423 271 c 2,71,-1
 423 138 l 1,72,-1
 348 138 l 1,73,-1
 348 259 l 2,74,75
 348 304 348 304 301 336 c 0,76,77
 255 368 255 368 189 368 c 0,78,79
 137 368 137 368 101 337 c 0,80,81
 64 306 64 306 64 262 c 0,82,83
 64 219 64 219 84 188 c 256,84,85
 104 157 104 157 133 154 c 1,86,87
 116 160 116 160 106 180 c 0,88,89
 96 201 96 201 96 229 c 0,90,91
 96 273 96 273 121 299 c 256,92,93
 146 325 146 325 188 325 c 256,94,95
 230 325 230 325 255 298 c 0,96,97
 280 270 280 270 280 225 c 0,98,99
 280 181 280 181 249 154 c 0,100,101
 219 127 219 127 168 127 c 0,102,103
 107 127 107 127 71 163 c 0,104,105
 34 199 34 199 34 258 c 0,106,107
 34 316 34 316 85 357 c 0,108,109
 135 398 135 398 207 398 c 0,110,111
 273 398 273 398 324 377 c 0,112,113
 374 356 374 356 397 320 c 1,114,115
 410 355 410 355 446 377 c 0,116,117
 481 398 481 398 527 398 c 0,118,119
 592 398 592 398 638 348 c 256,120,121
 684 298 684 298 684 228 c 1,122,-1
 684 228 l 1,0,1
217 225 m 1,123,124
 217 254 217 254 204 274 c 0,125,126
 191 295 191 295 173 295 c 0,127,128
 154 295 154 295 140 276 c 0,129,130
 126 256 126 256 126 229 c 0,131,132
 126 199 126 199 139 178 c 256,133,134
 152 157 152 157 170 157 c 0,135,136
 189 157 189 157 203 177 c 256,137,138
 217 197 217 197 217 225 c 1,139,-1
 217 225 l 1,123,124
EndSplineSet
EndChar

StartChar: uni0B9E
Encoding: 276 2974 21
Width: 928
GlyphClass: 2
Flags: W
LayerCount: 2
Back
Fore
SplineSet
897 88 m 1,0,1
 897 -77 897 -77 779 -168 c 0,2,3
 660 -259 660 -259 447 -259 c 0,4,5
 273 -259 273 -259 159 -150 c 256,6,7
 45 -41 45 -41 45 126 c 0,8,9
 45 198 45 198 74 266 c 0,10,11
 103 335 103 335 156 390 c 1,12,-1
 176 370 l 1,13,14
 127 318 127 318 101 254 c 0,15,16
 75 191 75 191 75 125 c 0,17,18
 75 -28 75 -28 180 -129 c 0,19,20
 286 -229 286 -229 447 -229 c 0,21,22
 617 -229 617 -229 712 -145 c 0,23,24
 806 -62 806 -62 806 89 c 0,25,26
 806 140 806 140 780 176 c 256,27,28
 754 212 754 212 717 212 c 0,29,30
 696 212 696 212 679 200 c 1,31,-1
 679 0 l 1,32,-1
 604 0 l 1,33,-1
 604 370 l 1,34,-1
 434 370 l 2,35,36
 343 370 343 370 278 316 c 0,37,38
 214 262 214 262 214 185 c 0,39,40
 214 139 214 139 231 103 c 0,41,42
 247 67 247 67 276 50 c 1,43,44
 266 62 266 62 260 79 c 0,45,46
 255 96 255 96 255 115 c 0,47,48
 255 169 255 169 287 201 c 256,49,50
 319 233 319 233 373 233 c 256,51,52
 427 233 427 233 459 201 c 0,53,54
 492 169 492 169 492 115 c 0,55,56
 492 63 492 63 453 31 c 0,57,58
 415 0 415 0 351 0 c 0,59,60
 275 0 275 0 230 50 c 0,61,62
 184 101 184 101 184 184 c 0,63,64
 184 278 184 278 255 339 c 0,65,66
 327 400 327 400 436 400 c 2,67,-1
 800 400 l 1,68,-1
 800 370 l 1,69,-1
 679 370 l 1,70,-1
 679 228 l 1,71,72
 710 242 710 242 731 242 c 0,73,74
 806 242 806 242 852 200 c 0,75,76
 897 158 897 158 897 88 c 1,77,-1
 897 88 l 1,0,1
417 119 m 1,78,79
 417 154 417 154 398 178 c 0,80,81
 378 203 378 203 351 203 c 256,82,83
 324 203 324 203 304 178 c 0,84,85
 285 153 285 153 285 117 c 0,86,87
 285 85 285 85 304 63 c 0,88,89
 324 40 324 40 351 40 c 256,90,91
 378 40 378 40 398 63 c 0,92,93
 417 86 417 86 417 119 c 1,94,-1
 417 119 l 1,78,79
EndSplineSet
EndChar

StartChar: uni0B9F
Encoding: 277 2975 22
Width: 774
GlyphClass: 2
Flags: W
LayerCount: 2
Back
Fore
SplineSet
769 0 m 1,0,-1
 70 0 l 1,1,-1
 70 400 l 1,2,-1
 145 400 l 1,3,-1
 145 30 l 1,4,-1
 769 30 l 1,5,-1
 769 0 l 1,6,-1
 769 0 l 1,0,-1
EndSplineSet
EndChar

StartChar: uni0BA3
Encoding: 278 2979 23
Width: 1175
GlyphClass: 2
Flags: W
LayerCount: 2
Back
Fore
SplineSet
39 173 m 1,0,1
 39 276 39 276 111 337 c 0,2,3
 183 399 183 399 302 399 c 0,4,5
 367 399 367 399 417 386 c 0,6,7
 467 374 467 374 495 350 c 1,8,9
 524 374 524 374 561 387 c 256,10,11
 598 400 598 400 639 400 c 0,12,13
 684 400 684 400 722 389 c 0,14,15
 759 378 759 378 785 357 c 1,16,17
 842 400 842 400 906 400 c 2,18,-1
 1169 400 l 1,19,-1
 1169 369 l 1,20,-1
 1061 369 l 1,21,-1
 1061 0 l 1,22,-1
 986 0 l 1,23,-1
 986 369 l 1,24,-1
 928 369 l 2,25,26
 891 369 891 369 861 360 c 0,27,28
 830 352 830 352 809 335 c 1,29,30
 850 295 850 295 873 244 c 0,31,32
 895 192 895 192 895 137 c 0,33,34
 895 72 895 72 866 33 c 0,35,36
 836 -6 836 -6 787 -6 c 256,37,38
 738 -6 738 -6 709 33 c 256,39,40
 680 72 680 72 680 137 c 0,41,42
 680 186 680 186 696 232 c 0,43,44
 713 278 713 278 744 315 c 1,45,46
 729 340 729 340 699 355 c 0,47,48
 670 369 670 369 633 369 c 0,49,50
 602 369 602 369 574 359 c 256,51,52
 546 349 546 349 523 330 c 1,53,54
 565 292 565 292 589 241 c 0,55,56
 612 191 612 191 612 137 c 0,57,58
 612 72 612 72 581 33 c 0,59,60
 549 -6 549 -6 497 -6 c 256,61,62
 445 -6 445 -6 414 33 c 256,63,64
 383 72 383 72 383 137 c 0,65,66
 383 185 383 185 401 230 c 0,67,68
 420 275 420 275 454 312 c 1,69,70
 423 340 423 340 379 354 c 0,71,72
 335 369 335 369 283 369 c 0,73,74
 194 369 194 369 132 312 c 0,75,76
 69 255 69 255 69 175 c 0,77,78
 69 125 69 125 87 88 c 0,79,80
 106 51 106 51 136 39 c 1,81,82
 124 53 124 53 117 74 c 0,83,84
 111 94 111 94 111 118 c 0,85,86
 111 168 111 168 138 199 c 0,87,88
 166 229 166 229 211 229 c 256,89,90
 256 229 256 229 288 197 c 256,91,92
 320 165 320 165 320 120 c 0,93,94
 320 63 320 63 285 28 c 0,95,96
 250 -6 250 -6 191 -6 c 0,97,98
 128 -6 128 -6 84 46 c 0,99,100
 39 99 39 99 39 173 c 1,101,-1
 39 173 l 1,0,1
820 137 m 1,102,103
 820 181 820 181 806 220 c 0,104,105
 792 260 792 260 765 288 c 1,106,107
 739 261 739 261 724 221 c 0,108,109
 710 182 710 182 710 137 c 0,110,111
 710 98 710 98 727 71 c 256,112,113
 744 44 744 44 768 44 c 0,114,115
 790 44 790 44 805 71 c 256,116,117
 820 98 820 98 820 137 c 1,118,-1
 820 137 l 1,102,103
537 137 m 1,119,120
 537 180 537 180 522 219 c 0,121,122
 506 259 506 259 478 289 c 1,123,124
 447 254 447 254 430 215 c 256,125,126
 413 176 413 176 413 137 c 256,127,128
 413 98 413 98 431 71 c 256,129,130
 449 44 449 44 474 44 c 0,131,132
 500 44 500 44 519 71 c 0,133,134
 537 98 537 98 537 137 c 1,135,-1
 537 137 l 1,119,120
245 118 m 1,136,137
 245 147 245 147 230 168 c 256,138,139
 215 189 215 189 193 189 c 256,140,141
 171 189 171 189 156 168 c 256,142,143
 141 147 141 147 141 117 c 256,144,145
 141 87 141 87 156 65 c 0,146,147
 171 44 171 44 193 44 c 256,148,149
 215 44 215 44 230 66 c 0,150,151
 245 87 245 87 245 118 c 1,152,-1
 245 118 l 1,136,137
EndSplineSet
EndChar

StartChar: uni0BA4
Encoding: 279 2980 24
Width: 583
GlyphClass: 2
Flags: W
LayerCount: 2
Back
Fore
SplineSet
556 85 m 1,0,1
 556 2 556 2 493 -48 c 0,2,3
 429 -98 429 -98 324 -98 c 2,4,-1
 103 -98 l 2,5,6
 79 -98 79 -98 62 -109 c 0,7,8
 45 -121 45 -121 45 -137 c 1,9,-1
 54 -135 l 2,10,11
 71 -135 71 -135 83 -148 c 0,12,13
 95 -160 95 -160 95 -178 c 256,14,15
 95 -196 95 -196 82 -209 c 0,16,17
 68 -222 68 -222 49 -222 c 0,18,19
 29 -222 29 -222 14 -206 c 0,20,21
 0 -191 0 -191 0 -169 c 0,22,23
 0 -127 0 -127 31 -98 c 0,24,25
 63 -68 63 -68 107 -68 c 2,26,-1
 328 -68 l 2,27,28
 391 -68 391 -68 436 -22 c 0,29,30
 481 23 481 23 481 88 c 0,31,32
 481 128 481 128 459 157 c 0,33,34
 437 185 437 185 406 185 c 2,35,-1
 357 185 l 1,36,-1
 357 131 l 2,37,38
 357 65 357 65 308 32 c 0,39,40
 258 -2 258 -2 161 -2 c 0,41,42
 105 -2 105 -2 65 38 c 256,43,44
 25 78 25 78 25 134 c 0,45,46
 25 171 25 171 51 193 c 0,47,48
 76 215 76 215 119 215 c 2,49,-1
 144 215 l 1,50,-1
 144 400 l 1,51,-1
 491 400 l 1,52,-1
 491 370 l 1,53,-1
 357 370 l 1,54,-1
 357 215 l 1,55,-1
 406 215 l 2,56,57
 468 215 468 215 512 177 c 256,58,59
 556 139 556 139 556 85 c 1,60,-1
 556 85 l 1,0,1
282 215 m 1,61,-1
 282 370 l 1,62,-1
 174 370 l 1,63,-1
 174 215 l 1,64,-1
 282 215 l 1,65,-1
 282 215 l 1,61,-1
282 138 m 1,66,-1
 282 185 l 1,67,-1
 113 185 l 2,68,69
 89 185 89 185 72 170 c 0,70,71
 55 156 55 156 55 135 c 0,72,73
 55 86 55 86 84 57 c 256,74,75
 113 28 113 28 162 28 c 0,76,77
 212 28 212 28 247 60 c 256,78,79
 282 92 282 92 282 138 c 1,80,-1
 282 138 l 1,66,-1
EndSplineSet
EndChar

StartChar: uni0BA8
Encoding: 280 2984 25
Width: 562
GlyphClass: 2
Flags: W
LayerCount: 2
Back
Fore
SplineSet
526 103 m 1,0,1
 526 8 526 8 470 -45 c 256,2,3
 414 -98 414 -98 312 -98 c 2,4,-1
 137 -98 l 2,5,6
 111 -98 111 -98 92 -109 c 0,7,8
 74 -121 74 -121 74 -137 c 1,9,-1
 84 -136 l 2,10,11
 88 -135 88 -135 89 -135 c 0,12,13
 106 -135 106 -135 117 -148 c 0,14,15
 129 -162 129 -162 129 -181 c 0,16,17
 129 -197 129 -197 116 -209 c 0,18,19
 102 -220 102 -220 83 -220 c 0,20,21
 63 -220 63 -220 48 -205 c 0,22,23
 34 -190 34 -190 34 -169 c 0,24,25
 34 -127 34 -127 65 -98 c 0,26,27
 97 -68 97 -68 141 -68 c 2,28,-1
 315 -68 l 2,29,30
 385 -68 385 -68 418 -26 c 256,31,32
 451 16 451 16 451 105 c 0,33,34
 451 151 451 151 427 184 c 0,35,36
 404 217 404 217 370 217 c 0,37,38
 358 217 358 217 345 211 c 256,39,40
 332 205 332 205 321 194 c 1,41,-1
 321 0 l 1,42,-1
 246 0 l 1,43,-1
 246 370 l 1,44,-1
 100 370 l 1,45,-1
 100 0 l 1,46,-1
 70 0 l 1,47,-1
 70 400 l 1,48,-1
 504 400 l 1,49,-1
 504 370 l 1,50,-1
 321 370 l 1,51,-1
 321 230 l 1,52,53
 332 238 332 238 350 243 c 0,54,55
 368 247 368 247 392 247 c 0,56,57
 448 247 448 247 487 205 c 256,58,59
 526 163 526 163 526 103 c 1,60,-1
 526 103 l 1,0,1
EndSplineSet
EndChar

StartChar: uni0BA9
Encoding: 281 2985 26
Width: 882
GlyphClass: 2
Flags: W
LayerCount: 2
Back
Fore
SplineSet
876 367 m 1,0,-1
 768 367 l 1,1,-1
 768 0 l 1,2,-1
 693 0 l 1,3,-1
 693 367 l 1,4,-1
 635 367 l 2,5,6
 592 367 592 367 559 357 c 0,7,8
 527 346 527 346 510 327 c 1,9,10
 551 291 551 291 574 241 c 256,11,12
 597 191 597 191 597 137 c 0,13,14
 597 78 597 78 566 37 c 0,15,16
 534 -5 534 -5 490 -5 c 256,17,18
 446 -5 446 -5 414 37 c 0,19,20
 383 78 383 78 383 137 c 0,21,22
 383 190 383 190 401 236 c 0,23,24
 420 282 420 282 453 312 c 1,25,26
 421 339 421 339 377 353 c 256,27,28
 333 367 333 367 282 367 c 0,29,30
 193 367 193 367 130 310 c 256,31,32
 67 253 67 253 67 172 c 0,33,34
 67 121 67 121 88 83 c 0,35,36
 108 45 108 45 141 35 c 1,37,38
 126 45 126 45 117 67 c 256,39,40
 108 89 108 89 108 117 c 0,41,42
 108 168 108 168 136 198 c 0,43,44
 165 229 165 229 212 229 c 0,45,46
 255 229 255 229 286 197 c 256,47,48
 317 165 317 165 317 120 c 0,49,50
 317 63 317 63 281 29 c 256,51,52
 245 -5 245 -5 185 -5 c 0,53,54
 124 -5 124 -5 80 46 c 0,55,56
 37 98 37 98 37 170 c 0,57,58
 37 264 37 264 113 331 c 0,59,60
 188 397 188 397 295 397 c 0,61,62
 360 397 360 397 410 384 c 0,63,64
 461 372 461 372 490 348 c 1,65,66
 511 373 511 373 549 386 c 0,67,68
 587 400 587 400 636 400 c 2,69,-1
 876 400 l 1,70,-1
 876 367 l 1,71,-1
 876 367 l 1,0,-1
522 137 m 1,72,73
 522 186 522 186 509 224 c 0,74,75
 495 263 495 263 471 284 c 1,76,77
 444 263 444 263 428 224 c 0,78,79
 413 185 413 185 413 137 c 0,80,81
 413 100 413 100 429 73 c 0,82,83
 445 47 445 47 468 47 c 0,84,85
 490 47 490 47 506 73 c 0,86,87
 522 100 522 100 522 137 c 1,88,-1
 522 137 l 1,72,73
242 120 m 1,89,90
 242 149 242 149 227 169 c 256,91,92
 212 189 212 189 190 189 c 256,93,94
 168 189 168 189 153 169 c 0,95,96
 138 150 138 150 138 122 c 0,97,98
 138 91 138 91 152 69 c 0,99,100
 167 47 167 47 187 47 c 0,101,102
 210 47 210 47 226 68 c 0,103,104
 242 90 242 90 242 120 c 1,105,-1
 242 120 l 1,89,90
EndSplineSet
EndChar

StartChar: uni0BAA
Encoding: 282 2986 27
Width: 665
GlyphClass: 2
Flags: W
LayerCount: 2
Back
Fore
SplineSet
595 0 m 1,0,-1
 70 0 l 1,1,-1
 70 400 l 1,2,-1
 145 400 l 1,3,-1
 145 30 l 1,4,-1
 520 30 l 1,5,-1
 520 400 l 1,6,-1
 595 400 l 1,7,-1
 595 0 l 1,8,-1
 595 0 l 1,0,-1
EndSplineSet
EndChar

StartChar: uni0BAE
Encoding: 283 2990 28
Width: 682
GlyphClass: 2
Flags: W
LayerCount: 2
Back
Fore
SplineSet
331 272 m 1,0,1
 331 325 331 325 374 363 c 256,2,3
 417 401 417 401 477 401 c 0,4,5
 549 401 549 401 593 340 c 0,6,7
 636 279 636 279 636 178 c 0,8,9
 636 97 636 97 603 49 c 0,10,11
 570 0 570 0 515 0 c 2,12,-1
 70 0 l 1,13,-1
 70 400 l 1,14,-1
 145 400 l 1,15,-1
 145 30 l 1,16,-1
 331 30 l 1,17,-1
 331 272 l 1,18,-1
 331 272 l 1,0,1
406 275 m 1,19,-1
 406 30 l 1,20,-1
 505 30 l 2,21,22
 551 30 551 30 578 71 c 0,23,24
 606 112 606 112 606 180 c 0,25,26
 606 267 606 267 573 319 c 0,27,28
 539 371 539 371 484 371 c 0,29,30
 452 371 452 371 429 343 c 256,31,32
 406 315 406 315 406 275 c 1,33,-1
 406 275 l 1,19,-1
EndSplineSet
EndChar

StartChar: uni0BAF
Encoding: 284 2991 29
Width: 683
GlyphClass: 2
Flags: W
LayerCount: 2
Back
Fore
SplineSet
613 0 m 1,0,-1
 261 0 l 1,1,-1
 261 66 l 1,2,3
 254 37 254 37 227 19 c 256,4,5
 200 1 200 1 164 1 c 0,6,7
 123 1 123 1 93 36 c 0,8,9
 64 70 64 70 64 119 c 2,10,-1
 64 400 l 1,11,-1
 139 400 l 1,12,-1
 139 113 l 2,13,14
 139 79 139 79 154 55 c 256,15,16
 169 31 169 31 191 31 c 256,17,18
 213 31 213 31 228 55 c 0,19,20
 244 78 244 78 244 112 c 2,21,-1
 244 400 l 1,22,-1
 319 400 l 1,23,-1
 319 30 l 1,24,-1
 538 30 l 1,25,-1
 538 400 l 1,26,-1
 613 400 l 1,27,-1
 613 0 l 1,28,-1
 613 0 l 1,0,-1
EndSplineSet
EndChar

StartChar: uni0BB0
Encoding: 285 2992 30
Width: 450
GlyphClass: 2
Flags: W
LayerCount: 2
Back
Fore
SplineSet
445 370 m 1,0,-1
 323 370 l 1,1,-1
 323 14 l 1,2,-1
 63 -165 l 1,3,-1
 46 -142 l 1,4,-1
 248 0 l 1,5,-1
 248 370 l 1,6,-1
 100 370 l 1,7,-1
 100 0 l 1,8,-1
 70 0 l 1,9,-1
 70 400 l 1,10,-1
 445 400 l 1,11,-1
 445 370 l 1,12,-1
 445 370 l 1,0,-1
EndSplineSet
EndChar

StartChar: uni0BB1
Encoding: 286 2993 31
Width: 637
GlyphClass: 2
Flags: W
LayerCount: 2
Back
Fore
SplineSet
591 172 m 1,0,1
 591 60 591 60 524 -19 c 256,2,3
 457 -98 457 -98 362 -98 c 2,4,-1
 153 -98 l 2,5,6
 128 -98 128 -98 110 -109 c 0,7,8
 91 -120 91 -120 87 -137 c 1,9,-1
 105 -135 l 2,10,11
 122 -135 122 -135 133 -148 c 0,12,13
 145 -162 145 -162 145 -181 c 0,14,15
 145 -197 145 -197 132 -209 c 0,16,17
 118 -220 118 -220 99 -220 c 0,18,19
 79 -220 79 -220 64 -205 c 0,20,21
 50 -190 50 -190 50 -169 c 0,22,23
 50 -127 50 -127 80 -98 c 0,24,25
 110 -68 110 -68 152 -68 c 2,26,-1
 359 -68 l 2,27,28
 424 -68 424 -68 470 2 c 0,29,30
 516 73 516 73 516 172 c 0,31,32
 516 256 516 256 484 315 c 256,33,34
 452 374 452 374 406 374 c 0,35,36
 370 374 370 374 345 342 c 0,37,38
 320 311 320 311 320 266 c 2,39,-1
 320 0 l 1,40,-1
 245 0 l 1,41,-1
 245 310 l 2,42,43
 245 337 245 337 223 355 c 0,44,45
 202 374 202 374 171 374 c 256,46,47
 140 374 140 374 117 353 c 0,48,49
 95 333 95 333 95 304 c 2,50,-1
 95 0 l 1,51,-1
 65 0 l 1,52,-1
 65 302 l 2,53,54
 65 344 65 344 98 374 c 256,55,56
 131 404 131 404 177 404 c 0,57,58
 221 404 221 404 256 384 c 0,59,60
 290 364 290 364 302 331 c 1,61,62
 315 364 315 364 346 384 c 256,63,64
 377 404 377 404 414 404 c 0,65,66
 487 404 487 404 539 336 c 256,67,68
 591 268 591 268 591 172 c 1,69,-1
 591 172 l 1,0,1
EndSplineSet
EndChar

StartChar: uni0BB2
Encoding: 287 2994 32
Width: 736
GlyphClass: 2
Flags: W
LayerCount: 2
Back
Fore
SplineSet
686 204 m 1,0,1
 686 104 686 104 645 52 c 0,2,3
 603 1 603 1 522 1 c 0,4,5
 457 1 457 1 418 32 c 256,6,7
 379 63 379 63 379 114 c 2,8,-1
 379 247 l 2,9,10
 379 302 379 302 346 336 c 0,11,12
 313 369 313 369 259 369 c 0,13,14
 180 369 180 369 124 314 c 256,15,16
 68 259 68 259 68 182 c 0,17,18
 68 138 68 138 85 101 c 0,19,20
 103 65 103 65 133 44 c 1,21,22
 121 56 121 56 114 77 c 0,23,24
 108 97 108 97 108 123 c 0,25,26
 108 166 108 166 136 197 c 0,27,28
 163 228 163 228 202 228 c 0,29,30
 253 228 253 228 283 199 c 0,31,32
 314 169 314 169 314 120 c 0,33,34
 314 66 314 66 280 34 c 0,35,36
 247 1 247 1 191 1 c 0,37,38
 128 1 128 1 83 53 c 0,39,40
 38 106 38 106 38 180 c 0,41,42
 38 271 38 271 104 336 c 0,43,44
 169 400 169 400 262 400 c 0,45,46
 349 400 349 400 402 358 c 0,47,48
 454 316 454 316 454 246 c 2,49,-1
 454 117 l 2,50,51
 454 81 454 81 473 56 c 256,52,53
 492 31 492 31 519 31 c 0,54,55
 581 31 581 31 619 78 c 0,56,57
 656 126 656 126 656 204 c 0,58,59
 656 237 656 237 634 277 c 0,60,61
 612 318 612 318 571 360 c 0,62,63
 564 367 564 367 560 376 c 0,64,65
 556 384 556 384 556 392 c 0,66,67
 556 404 556 404 566 413 c 0,68,69
 575 422 575 422 589 422 c 0,70,71
 629 422 629 422 658 358 c 0,72,73
 686 294 686 294 686 204 c 1,74,-1
 686 204 l 1,0,1
239 114 m 1,75,76
 239 149 239 149 225 173 c 0,77,78
 211 198 211 198 191 198 c 0,79,80
 169 198 169 198 154 173 c 0,81,82
 138 149 138 149 138 114 c 0,83,84
 138 80 138 80 153 55 c 0,85,86
 167 31 167 31 188 31 c 256,87,88
 209 31 209 31 224 55 c 0,89,90
 239 80 239 80 239 114 c 1,91,-1
 239 114 l 1,75,76
EndSplineSet
EndChar

StartChar: uni0BB3
Encoding: 288 2995 33
Width: 805
GlyphClass: 2
Flags: W
LayerCount: 2
Back
Fore
SplineSet
799 367 m 1,0,-1
 705 367 l 1,1,-1
 705 0 l 1,2,-1
 630 0 l 1,3,-1
 630 367 l 1,4,-1
 484 367 l 1,5,-1
 484 0 l 1,6,-1
 409 0 l 1,7,-1
 409 238 l 1,8,9
 389 296 389 296 348 331 c 0,10,11
 307 367 307 367 260 367 c 0,12,13
 180 367 180 367 124 309 c 0,14,15
 67 252 67 252 67 170 c 0,16,17
 67 124 67 124 87 89 c 0,18,19
 108 53 108 53 141 41 c 1,20,21
 131 52 131 52 125 74 c 0,22,23
 120 97 120 97 120 127 c 0,24,25
 120 176 120 176 145 206 c 0,26,27
 171 235 171 235 213 235 c 0,28,29
 267 235 267 235 299 204 c 256,30,31
 331 173 331 173 331 122 c 0,32,33
 331 66 331 66 295 33 c 0,34,35
 259 -1 259 -1 199 -1 c 0,36,37
 132 -1 132 -1 84 48 c 0,38,39
 37 98 37 98 37 168 c 0,40,41
 37 263 37 263 102 330 c 0,42,43
 168 397 168 397 260 397 c 0,44,45
 316 397 316 397 361 379 c 256,46,47
 406 361 406 361 431 329 c 1,48,-1
 431 400 l 1,49,-1
 799 400 l 1,50,-1
 799 367 l 1,51,-1
 799 367 l 1,0,-1
256 119 m 1,52,53
 256 148 256 148 240 169 c 0,54,55
 225 190 225 190 203 190 c 256,56,57
 181 190 181 190 166 169 c 0,58,59
 150 148 150 148 150 118 c 0,60,61
 150 87 150 87 165 66 c 0,62,63
 180 44 180 44 202 44 c 256,64,65
 224 44 224 44 240 66 c 256,66,67
 256 88 256 88 256 119 c 1,68,-1
 256 119 l 1,52,53
EndSplineSet
EndChar

StartChar: uni0BB4
Encoding: 289 2996 34
Width: 680
GlyphClass: 2
Flags: W
LayerCount: 2
Back
Fore
SplineSet
70 0 m 1,0,-1
 70 400 l 1,1,-1
 145 400 l 1,2,-1
 145 30 l 1,3,-1
 331 30 l 1,4,-1
 331 267 l 2,5,6
 331 320 331 320 374 358 c 256,7,8
 417 396 417 396 477 396 c 0,9,10
 543 396 543 396 589 337 c 0,11,12
 636 277 636 277 636 193 c 0,13,14
 636 105 636 105 603 53 c 0,15,16
 569 0 569 0 514 0 c 2,17,-1
 405 0 l 1,18,19
 405 -29 405 -29 418 -50 c 256,20,21
 431 -71 431 -71 449 -71 c 2,22,-1
 533 -71 l 1,23,-1
 533 -101 l 1,24,-1
 425 -101 l 2,25,26
 396 -101 396 -101 376 -126 c 0,27,28
 356 -150 356 -150 356 -185 c 0,29,30
 356 -224 356 -224 307 -252 c 0,31,32
 259 -280 259 -280 190 -280 c 0,33,34
 126 -280 126 -280 88 -251 c 256,35,36
 50 -222 50 -222 50 -173 c 0,37,38
 50 -131 50 -131 85 -101 c 256,39,40
 120 -71 120 -71 169 -71 c 0,41,42
 189 -71 189 -71 204 -86 c 0,43,44
 218 -100 218 -100 218 -121 c 0,45,46
 218 -138 218 -138 207 -151 c 0,47,48
 196 -163 196 -163 180 -163 c 0,49,50
 165 -163 165 -163 154 -152 c 256,51,52
 143 -141 143 -141 143 -126 c 0,53,54
 142 -120 142 -120 144 -114 c 0,55,56
 147 -108 147 -108 152 -105 c 1,57,58
 122 -105 122 -105 101 -125 c 256,59,60
 80 -145 80 -145 80 -174 c 0,61,62
 80 -205 80 -205 112 -228 c 0,63,64
 144 -250 144 -250 189 -250 c 0,65,66
 227 -250 227 -250 254 -224 c 0,67,68
 281 -197 281 -197 281 -160 c 256,69,70
 281 -123 281 -123 314 -97 c 0,71,72
 345 -71 345 -71 390 -71 c 1,73,74
 365 -67 365 -67 348 -48 c 0,75,76
 331 -28 331 -28 331 0 c 1,77,-1
 70 0 l 1,0,-1
406 30 m 1,78,-1
 515 30 l 2,79,80
 553 30 553 30 579 78 c 0,81,82
 606 127 606 127 606 195 c 0,83,84
 606 266 606 266 570 316 c 0,85,86
 535 366 535 366 484 366 c 0,87,88
 452 366 452 366 429 338 c 256,89,90
 406 310 406 310 406 271 c 2,91,-1
 406 30 l 1,78,-1
EndSplineSet
EndChar

StartChar: uni0BB5
Encoding: 290 2997 35
Width: 757
GlyphClass: 2
Flags: W
LayerCount: 2
Back
Fore
SplineSet
687 0 m 1,0,-1
 347 0 l 1,1,-1
 347 27 l 1,2,3
 384 46 384 46 405 91 c 0,4,5
 427 137 427 137 427 196 c 0,6,7
 427 266 427 266 374 316 c 0,8,9
 322 366 322 366 247 366 c 0,10,11
 173 366 173 366 120 312 c 0,12,13
 68 258 68 258 68 182 c 0,14,15
 68 138 68 138 85 101 c 0,16,17
 103 65 103 65 133 44 c 1,18,19
 121 59 121 59 114 79 c 0,20,21
 108 100 108 100 108 123 c 0,22,23
 108 171 108 171 134 199 c 0,24,25
 161 228 161 228 205 228 c 0,26,27
 254 228 254 228 284 199 c 256,28,29
 314 170 314 170 314 122 c 0,30,31
 314 67 314 67 282 34 c 256,32,33
 250 1 250 1 196 1 c 0,34,35
 124 1 124 1 81 50 c 0,36,37
 38 100 38 100 38 182 c 0,38,39
 38 271 38 271 104 333 c 0,40,41
 169 396 169 396 262 396 c 0,42,43
 361 396 361 396 432 335 c 0,44,45
 502 274 502 274 502 188 c 0,46,47
 502 135 502 135 486 93 c 256,48,49
 470 51 470 51 442 30 c 1,50,-1
 612 30 l 1,51,-1
 612 400 l 1,52,-1
 687 400 l 1,53,-1
 687 0 l 1,54,-1
 687 0 l 1,0,-1
239 119 m 1,55,56
 239 152 239 152 225 175 c 256,57,58
 211 198 211 198 191 198 c 0,59,60
 169 198 169 198 154 175 c 0,61,62
 138 152 138 152 138 120 c 0,63,64
 138 83 138 83 153 57 c 0,65,66
 167 31 167 31 188 31 c 256,67,68
 209 31 209 31 224 57 c 256,69,70
 239 83 239 83 239 119 c 1,71,-1
 239 119 l 1,55,56
EndSplineSet
EndChar

StartChar: uni0BB7
Encoding: 291 2999 36
Width: 999
GlyphClass: 2
Flags: W
LayerCount: 2
Back
Fore
SplineSet
946 0 m 1,0,-1
 766 0 l 1,1,-1
 766 -242 l 1,2,-1
 691 -242 l 1,3,-1
 691 0 l 1,4,-1
 351 0 l 1,5,-1
 351 27 l 1,6,7
 388 48 388 48 410 94 c 0,8,9
 431 139 431 139 431 196 c 0,10,11
 431 264 431 264 382 311 c 0,12,13
 333 359 333 359 264 359 c 0,14,15
 182 359 182 359 125 307 c 0,16,17
 67 255 67 255 67 182 c 0,18,19
 67 139 67 139 86 103 c 0,20,21
 104 66 104 66 137 44 c 1,22,23
 125 59 125 59 118 78 c 0,24,25
 112 97 112 97 112 118 c 0,26,27
 112 172 112 172 139 205 c 0,28,29
 167 238 167 238 212 238 c 0,30,31
 260 238 260 238 289 206 c 0,32,33
 318 175 318 175 318 122 c 0,34,35
 318 65 318 65 284 30 c 0,36,37
 251 -4 251 -4 195 -4 c 0,38,39
 130 -4 130 -4 83 51 c 0,40,41
 37 107 37 107 37 185 c 0,42,43
 37 269 37 269 104 329 c 256,44,45
 171 389 171 389 266 389 c 0,46,47
 365 389 365 389 436 331 c 0,48,49
 506 272 506 272 506 190 c 0,50,51
 506 137 506 137 489 95 c 0,52,53
 473 52 473 52 443 30 c 1,54,-1
 691 30 l 1,55,-1
 691 164 l 1,56,57
 633 164 633 164 599 196 c 0,58,59
 564 228 564 228 564 281 c 0,60,61
 564 330 564 330 594 360 c 0,62,63
 625 389 625 389 675 389 c 0,64,65
 713 389 713 389 739 364 c 0,66,67
 766 339 766 339 766 304 c 2,68,-1
 766 193 l 1,69,70
 817 193 817 193 862 223 c 256,71,72
 907 253 907 253 932 304 c 1,73,-1
 946 304 l 1,74,-1
 946 0 l 1,75,-1
 946 0 l 1,0,-1
691 188 m 1,76,-1
 691 302 l 2,77,78
 691 326 691 326 679 342 c 0,79,80
 667 359 667 359 650 359 c 0,81,82
 627 359 627 359 610 336 c 0,83,84
 594 313 594 313 594 281 c 0,85,86
 594 242 594 242 622 215 c 0,87,88
 651 188 651 188 691 188 c 1,89,-1
 691 188 l 1,76,-1
243 119 m 1,90,91
 243 148 243 148 228 168 c 256,92,93
 213 188 213 188 192 188 c 256,94,95
 171 188 171 188 157 168 c 0,96,97
 142 148 142 148 142 119 c 0,98,99
 142 91 142 91 157 71 c 0,100,101
 171 51 171 51 192 51 c 256,102,103
 213 51 213 51 228 71 c 256,104,105
 243 91 243 91 243 119 c 1,106,-1
 243 119 l 1,90,91
871 30 m 1,107,-1
 871 194 l 1,108,109
 851 179 851 179 824 172 c 0,110,111
 797 164 797 164 766 164 c 1,112,-1
 766 30 l 1,113,-1
 871 30 l 1,114,-1
 871 30 l 1,107,-1
EndSplineSet
EndChar

StartChar: uni0BB8
Encoding: 292 3000 37
Width: 1038
GlyphClass: 2
Flags: W
LayerCount: 2
Back
Fore
SplineSet
989 204 m 1,0,1
 989 109 989 109 944 51 c 0,2,3
 899 -6 899 -6 825 -6 c 0,4,5
 762 -6 762 -6 725 27 c 0,6,7
 687 60 687 60 687 114 c 2,8,-1
 687 257 l 2,9,10
 687 302 687 302 658 333 c 0,11,12
 630 365 630 365 589 365 c 0,13,14
 553 365 553 365 527 337 c 256,15,16
 501 309 501 309 501 269 c 2,17,-1
 501 0 l 1,18,-1
 426 0 l 1,19,-1
 426 235 l 2,20,21
 426 291 426 291 379 331 c 256,22,23
 332 371 332 371 265 371 c 0,24,25
 183 371 183 371 126 312 c 0,26,27
 68 253 68 253 68 170 c 0,28,29
 68 124 68 124 88 89 c 0,30,31
 109 53 109 53 142 41 c 1,32,33
 129 56 129 56 123 77 c 0,34,35
 116 99 116 99 116 124 c 0,36,37
 116 174 116 174 145 205 c 0,38,39
 175 235 175 235 224 235 c 256,40,41
 273 235 273 235 303 204 c 0,42,43
 332 173 332 173 332 122 c 0,44,45
 332 69 332 69 293 31 c 0,46,47
 255 -6 255 -6 200 -6 c 0,48,49
 133 -6 133 -6 85 45 c 0,50,51
 38 96 38 96 38 168 c 0,52,53
 38 265 38 265 105 333 c 256,54,55
 172 401 172 401 266 401 c 0,56,57
 340 401 340 401 397 375 c 256,58,59
 454 349 454 349 475 305 c 1,60,61
 485 345 485 345 520 370 c 0,62,63
 554 395 554 395 599 395 c 0,64,65
 667 395 667 395 714 354 c 0,66,67
 762 314 762 314 762 256 c 2,68,-1
 762 117 l 2,69,70
 762 78 762 78 782 51 c 256,71,72
 802 24 802 24 830 24 c 0,73,74
 889 24 889 24 924 73 c 256,75,76
 959 122 959 122 959 204 c 0,77,78
 959 246 959 246 932 288 c 0,79,80
 913 319 913 319 873 360 c 0,81,82
 866 367 866 367 863 376 c 0,83,84
 859 384 859 384 859 392 c 0,85,86
 859 404 859 404 869 413 c 0,87,88
 878 422 878 422 892 422 c 0,89,90
 932 422 932 422 961 358 c 0,91,92
 989 294 989 294 989 204 c 1,93,-1
 989 204 l 1,0,1
257 119 m 1,94,95
 257 148 257 148 241 169 c 0,96,97
 224 190 224 190 201 190 c 256,98,99
 178 190 178 190 162 169 c 256,100,101
 146 148 146 148 146 119 c 0,102,103
 146 86 146 86 162 62 c 0,104,105
 178 39 178 39 201 39 c 256,106,107
 224 39 224 39 241 62 c 0,108,109
 257 86 257 86 257 119 c 1,110,-1
 257 119 l 1,94,95
EndSplineSet
EndChar

StartChar: uni0BB9
Encoding: 293 3001 38
Width: 1162
GlyphClass: 2
Flags: W
LayerCount: 2
Back
Fore
SplineSet
1115 172 m 1,0,1
 1115 62 1115 62 1045 -16 c 0,2,3
 976 -94 976 -94 877 -94 c 2,4,-1
 141 -94 l 2,5,6
 111 -94 111 -94 89 -107 c 0,7,8
 68 -120 68 -120 68 -139 c 1,9,-1
 93 -135 l 2,10,11
 110 -135 110 -135 121 -148 c 0,12,13
 133 -162 133 -162 133 -181 c 0,14,15
 133 -197 133 -197 120 -209 c 0,16,17
 106 -220 106 -220 87 -220 c 0,18,19
 67 -220 67 -220 52 -204 c 0,20,21
 38 -187 38 -187 38 -164 c 0,22,23
 38 -123 38 -123 68 -93 c 0,24,25
 98 -64 98 -64 140 -64 c 2,26,-1
 872 -64 l 2,27,28
 942 -64 942 -64 991 5 c 0,29,30
 1040 73 1040 73 1040 170 c 0,31,32
 1040 258 1040 258 1010 311 c 256,33,34
 980 364 980 364 930 364 c 0,35,36
 898 364 898 364 875 336 c 256,37,38
 852 308 852 308 852 269 c 2,39,-1
 852 0 l 1,40,-1
 777 0 l 1,41,-1
 777 295 l 2,42,43
 777 324 777 324 761 344 c 256,44,45
 745 364 745 364 723 364 c 0,46,47
 700 364 700 364 683 343 c 0,48,49
 667 323 667 323 667 294 c 2,50,-1
 667 0 l 1,51,-1
 348 0 l 1,52,-1
 348 27 l 1,53,54
 385 48 385 48 407 94 c 0,55,56
 428 139 428 139 428 196 c 0,57,58
 428 268 428 268 379 320 c 0,59,60
 330 371 330 371 261 371 c 0,61,62
 181 371 181 371 125 316 c 0,63,64
 68 260 68 260 68 182 c 0,65,66
 68 138 68 138 86 102 c 0,67,68
 103 65 103 65 134 44 c 1,69,70
 122 56 122 56 115 77 c 0,71,72
 109 97 109 97 109 123 c 0,73,74
 109 171 109 171 136 199 c 0,75,76
 164 228 164 228 209 228 c 0,77,78
 257 228 257 228 286 199 c 256,79,80
 315 170 315 170 315 122 c 0,81,82
 315 65 315 65 281 30 c 0,83,84
 248 -4 248 -4 192 -4 c 0,85,86
 128 -4 128 -4 83 50 c 256,87,88
 38 104 38 104 38 180 c 0,89,90
 38 272 38 272 104 336 c 0,91,92
 170 401 170 401 263 401 c 0,93,94
 362 401 362 401 433 339 c 0,95,96
 503 277 503 277 503 190 c 0,97,98
 503 137 503 137 486 95 c 0,99,100
 470 52 470 52 440 30 c 1,101,-1
 637 30 l 1,102,-1
 637 292 l 2,103,104
 637 334 637 334 664 364 c 256,105,106
 691 394 691 394 729 394 c 0,107,108
 766 394 766 394 795 377 c 0,109,110
 824 359 824 359 834 331 c 1,111,112
 843 359 843 359 872 377 c 0,113,114
 901 394 901 394 938 394 c 0,115,116
 1026 394 1026 394 1070 338 c 0,117,118
 1115 282 1115 282 1115 172 c 1,119,-1
 1115 172 l 1,0,1
240 114 m 1,120,121
 240 143 240 143 226 163 c 256,122,123
 212 183 212 183 192 183 c 0,124,125
 170 183 170 183 155 163 c 0,126,127
 139 143 139 143 139 114 c 0,128,129
 139 86 139 86 154 66 c 0,130,131
 168 46 168 46 189 46 c 256,132,133
 210 46 210 46 225 66 c 256,134,135
 240 86 240 86 240 114 c 1,136,-1
 240 114 l 1,120,121
EndSplineSet
EndChar

StartChar: uni0BBE
Encoding: 294 3006 39
Width: 450
GlyphClass: 2
Flags: W
LayerCount: 2
Back
Fore
SplineSet
445 370 m 1,0,-1
 323 370 l 1,1,-1
 323 0 l 1,2,-1
 248 0 l 1,3,-1
 248 370 l 1,4,-1
 100 370 l 1,5,-1
 100 0 l 1,6,-1
 70 0 l 1,7,-1
 70 400 l 1,8,-1
 445 400 l 1,9,-1
 445 370 l 1,10,-1
 445 370 l 1,0,-1
EndSplineSet
EndChar

StartChar: uni0BBF
Encoding: 295 3007 40
Width: 432
GlyphClass: 2
Flags: W
LayerCount: 2
Back
Fore
SplineSet
91 400 m 1,0,1
 70 439 70 439 70 490 c 0,2,3
 70 560 70 560 113 610 c 0,4,5
 157 660 157 660 218 660 c 0,6,7
 278 660 278 660 320 610 c 256,8,9
 362 560 362 560 362 489 c 2,10,-1
 362 0 l 1,11,-1
 332 0 l 1,12,-1
 332 487 l 2,13,14
 332 530 332 530 297 561 c 0,15,16
 262 591 262 591 213 591 c 0,17,18
 167 591 167 591 135 559 c 0,19,20
 102 527 102 527 102 481 c 0,21,22
 102 455 102 455 108 435 c 0,23,24
 114 414 114 414 125 400 c 1,25,-1
 91 400 l 1,26,-1
 91 400 l 1,0,1
EndSplineSet
EndChar

StartChar: uni0BC0
Encoding: 296 3008 41
Width: 478
GlyphClass: 2
Flags: W
LayerCount: 2
Back
Fore
SplineSet
332 535 m 1,0,1
 332 564 332 564 319 584 c 0,2,3
 306 605 306 605 288 605 c 256,4,5
 270 605 270 605 258 585 c 0,6,7
 245 565 245 565 245 536 c 0,8,9
 245 508 245 508 257 488 c 0,10,11
 270 468 270 468 287 468 c 0,12,13
 306 468 306 468 319 488 c 0,14,15
 332 507 332 507 332 535 c 1,16,-1
 332 535 l 1,0,1
70 494 m 1,17,18
 70 560 70 560 123 607 c 256,19,20
 176 654 176 654 251 654 c 0,21,22
 322 654 322 654 365 622 c 256,23,24
 408 590 408 590 408 537 c 0,25,26
 408 491 408 491 380 464 c 0,27,28
 351 436 351 436 304 436 c 0,29,30
 262 436 262 436 236 462 c 0,31,32
 211 487 211 487 211 530 c 0,33,34
 211 556 211 556 219 577 c 0,35,36
 228 598 228 598 243 610 c 1,37,38
 184 610 184 610 143 576 c 0,39,40
 101 541 101 541 101 493 c 0,41,42
 101 464 101 464 109 440 c 256,43,44
 117 416 117 416 132 400 c 1,45,-1
 96 400 l 1,46,47
 70 442 70 442 70 494 c 1,48,-1
 70 494 l 1,17,18
EndSplineSet
EndChar

StartChar: uni0BC1
Encoding: 297 3009 42
Width: 299
GlyphClass: 4
Flags: W
LayerCount: 2
Back
Fore
SplineSet
-135 370 m 1,0,-1
 -135 400 l 1,1,-1
 274 400 l 1,2,-1
 274 320 l 2,3,4
 274 281 274 281 243 254 c 0,5,6
 211 226 211 226 167 226 c 0,7,8
 124 226 124 226 93 254 c 0,9,10
 63 281 63 281 63 320 c 2,11,-1
 63 370 l 1,12,-1
 -135 370 l 1,13,-1
 -135 370 l 1,0,-1
199 321 m 1,14,-1
 199 370 l 1,15,-1
 93 370 l 1,16,-1
 93 320 l 2,17,18
 93 293 93 293 109 275 c 0,19,20
 126 256 126 256 149 256 c 0,21,22
 170 256 170 256 184 275 c 0,23,24
 199 294 199 294 199 321 c 1,25,-1
 199 321 l 1,14,-1
EndSplineSet
Substitution2: "Single Substitution lookup 7 subtable" uni0BC1.abvs
EndChar

StartChar: uni0BC2
Encoding: 298 3010 43
Width: 593
GlyphClass: 4
Flags: W
LayerCount: 2
Back
Fore
SplineSet
553 289 m 1,0,1
 553 176 553 176 480 107 c 0,2,3
 406 39 406 39 284 39 c 0,4,5
 179 39 179 39 116 99 c 256,6,7
 53 159 53 159 53 259 c 1,8,-1
 89 259 l 1,9,10
 89 173 89 173 142 121 c 256,11,12
 195 69 195 69 283 69 c 256,13,14
 371 69 371 69 425 129 c 0,15,16
 478 189 478 189 478 288 c 0,17,18
 478 388 478 388 436 449 c 0,19,20
 394 509 394 509 324 509 c 0,21,22
 272 509 272 509 236 477 c 0,23,24
 199 445 199 445 199 400 c 1,25,-1
 374 400 l 1,26,-1
 374 320 l 2,27,28
 374 281 374 281 343 253 c 256,29,30
 312 225 312 225 268 225 c 0,31,32
 225 225 225 225 195 253 c 0,33,34
 165 282 165 282 165 322 c 2,35,-1
 165 370 l 1,36,-1
 -135 370 l 1,37,-1
 -135 400 l 1,38,-1
 166 400 l 1,39,40
 166 458 166 458 213 498 c 0,41,42
 260 539 260 539 326 539 c 0,43,44
 429 539 429 539 491 471 c 0,45,46
 553 402 553 402 553 289 c 1,47,-1
 553 289 l 1,0,1
299 321 m 1,48,-1
 299 370 l 1,49,-1
 195 370 l 1,50,-1
 195 320 l 2,51,52
 195 293 195 293 211 274 c 256,53,54
 227 255 227 255 250 255 c 0,55,56
 270 255 270 255 285 274 c 0,57,58
 299 294 299 294 299 321 c 1,59,-1
 299 321 l 1,48,-1
EndSplineSet
Substitution2: "Single Substitution lookup 7 subtable" uni0BC2.abvs
EndChar

StartChar: uni0BC6
Encoding: 299 3014 44
Width: 713
GlyphClass: 2
Flags: W
LayerCount: 2
Back
Fore
SplineSet
643 0 m 1,0,-1
 613 0 l 1,1,-1
 613 349 l 2,2,3
 613 453 613 453 535 526 c 0,4,5
 458 599 458 599 348 599 c 0,6,7
 223 599 223 599 147 520 c 0,8,9
 72 442 72 442 72 311 c 0,10,11
 72 184 72 184 139 108 c 0,12,13
 207 32 207 32 319 32 c 0,14,15
 329 32 329 32 342 31 c 0,16,17
 351 30 351 30 354 31 c 1,18,19
 321 47 321 47 301 84 c 256,20,21
 281 121 281 121 281 168 c 0,22,23
 281 223 281 223 314 262 c 0,24,25
 348 301 348 301 395 301 c 0,26,27
 457 301 457 301 494 265 c 0,28,29
 531 230 531 230 531 171 c 0,30,31
 531 94 531 94 474 48 c 0,32,33
 418 2 418 2 324 2 c 0,34,35
 196 2 196 2 119 87 c 0,36,37
 42 171 42 171 42 312 c 0,38,39
 42 474 42 474 127 571 c 0,40,41
 213 668 213 668 355 668 c 0,42,43
 486 668 486 668 564 581 c 0,44,45
 643 494 643 494 643 349 c 2,46,-1
 643 0 l 1,47,-1
 643 0 l 1,0,-1
456 159 m 1,48,49
 456 198 456 198 436 226 c 256,50,51
 416 254 416 254 387 254 c 0,52,53
 356 254 356 254 333 228 c 0,54,55
 311 201 311 201 311 164 c 0,56,57
 311 124 311 124 330 92 c 256,58,59
 349 60 349 60 381 46 c 1,60,61
 415 59 415 59 435 90 c 0,62,63
 456 121 456 121 456 159 c 1,64,-1
 456 159 l 1,48,49
EndSplineSet
EndChar

StartChar: uni0BC7
Encoding: 300 3015 45
Width: 629
GlyphClass: 2
Flags: W
LayerCount: 2
Back
Fore
SplineSet
601 170 m 1,0,1
 601 99 601 99 523 49 c 256,2,3
 445 -1 445 -1 335 -1 c 0,4,5
 212 -1 212 -1 125 96 c 256,6,7
 38 193 38 193 38 330 c 0,8,9
 38 468 38 468 125 565 c 0,10,11
 212 663 212 663 335 663 c 0,12,13
 445 663 445 663 523 611 c 0,14,15
 601 560 601 560 601 487 c 0,16,17
 601 438 601 438 570 408 c 0,18,19
 540 379 540 379 489 379 c 0,20,21
 444 379 444 379 417 408 c 256,22,23
 390 437 390 437 390 485 c 0,24,25
 390 517 390 517 411 544 c 0,26,27
 432 572 432 572 466 584 c 1,28,29
 411 612 411 612 328 612 c 0,30,31
 220 612 220 612 144 530 c 0,32,33
 68 447 68 447 68 331 c 0,34,35
 68 213 68 213 143 129 c 0,36,37
 219 46 219 46 325 46 c 0,38,39
 374 46 374 46 410 53 c 0,40,41
 445 60 445 60 465 74 c 1,42,43
 432 81 432 81 411 109 c 0,44,45
 390 138 390 138 390 175 c 0,46,47
 390 218 390 218 420 249 c 0,48,49
 451 279 451 279 494 279 c 0,50,51
 543 279 543 279 572 249 c 256,52,53
 601 219 601 219 601 170 c 1,54,-1
 601 170 l 1,0,1
526 482 m 1,55,56
 526 512 526 512 512 533 c 0,57,58
 497 554 497 554 477 554 c 0,59,60
 453 554 453 554 437 533 c 0,61,62
 420 512 420 512 420 482 c 256,63,64
 420 452 420 452 436 430 c 0,65,66
 453 409 453 409 476 409 c 0,67,68
 497 409 497 409 511 430 c 0,69,70
 526 452 526 452 526 482 c 1,71,-1
 526 482 l 1,55,56
526 174 m 1,72,73
 526 205 526 205 511 226 c 0,74,75
 496 248 496 248 475 248 c 0,76,77
 452 248 452 248 436 226 c 0,78,79
 420 205 420 205 420 174 c 256,80,81
 420 143 420 143 437 122 c 0,82,83
 454 100 454 100 478 100 c 0,84,85
 498 100 498 100 512 122 c 0,86,87
 526 143 526 143 526 174 c 1,88,-1
 526 174 l 1,72,73
EndSplineSet
EndChar

StartChar: uni0BC8
Encoding: 301 3016 46
Width: 862
GlyphClass: 2
Flags: W
LayerCount: 2
Back
Fore
SplineSet
822 203 m 1,0,1
 822 138 822 138 796 84 c 0,2,3
 771 31 771 31 726 3 c 1,4,-1
 697 25 l 1,5,6
 747 96 747 96 747 202 c 0,7,8
 747 270 747 270 706 319 c 0,9,10
 666 367 666 367 608 367 c 256,11,12
 550 367 550 367 506 331 c 1,13,14
 550 291 550 291 575 240 c 0,15,16
 599 190 599 190 599 137 c 0,17,18
 599 73 599 73 569 35 c 256,19,20
 539 -3 539 -3 489 -3 c 0,21,22
 440 -3 440 -3 410 35 c 256,23,24
 380 73 380 73 380 137 c 0,25,26
 380 182 380 182 398 228 c 256,27,28
 416 274 416 274 450 316 c 1,29,30
 422 341 422 341 378 354 c 256,31,32
 334 367 334 367 281 367 c 0,33,34
 192 367 192 367 130 310 c 0,35,36
 67 253 67 253 67 172 c 0,37,38
 67 121 67 121 88 83 c 0,39,40
 108 45 108 45 141 35 c 1,41,42
 126 45 126 45 117 69 c 0,43,44
 108 92 108 92 108 122 c 0,45,46
 108 171 108 171 136 200 c 0,47,48
 165 229 165 229 212 229 c 0,49,50
 260 229 260 229 288 199 c 0,51,52
 317 169 317 169 317 120 c 0,53,54
 317 64 317 64 281 31 c 0,55,56
 245 -3 245 -3 185 -3 c 0,57,58
 124 -3 124 -3 80 48 c 0,59,60
 37 98 37 98 37 170 c 0,61,62
 37 264 37 264 113 331 c 0,63,64
 188 397 188 397 295 397 c 0,65,66
 356 397 356 397 404 385 c 0,67,68
 452 372 452 372 482 349 c 1,69,70
 504 372 504 372 539 385 c 0,71,72
 573 397 573 397 614 397 c 0,73,74
 700 397 700 397 761 340 c 256,75,76
 822 283 822 283 822 203 c 1,77,-1
 822 203 l 1,0,1
524 137 m 1,78,79
 524 186 524 186 510 226 c 0,80,81
 495 267 495 267 469 292 c 1,82,83
 440 259 440 259 425 219 c 256,84,85
 410 179 410 179 410 137 c 0,86,87
 410 87 410 87 426 57 c 0,88,89
 443 27 443 27 470 27 c 0,90,91
 495 27 495 27 509 57 c 0,92,93
 524 87 524 87 524 137 c 1,94,-1
 524 137 l 1,78,79
242 120 m 1,95,96
 242 153 242 153 226 176 c 0,97,98
 211 199 211 199 189 199 c 0,99,100
 168 199 168 199 153 176 c 256,101,102
 138 153 138 153 138 120 c 0,103,104
 138 88 138 88 153 65 c 256,105,106
 168 42 168 42 189 42 c 0,107,108
 211 42 211 42 226 65 c 0,109,110
 242 88 242 88 242 120 c 1,111,-1
 242 120 l 1,95,96
EndSplineSet
EndChar

StartChar: uni0BCD
Encoding: 305 3021 50
Width: 256
GlyphClass: 2
Flags: W
LayerCount: 2
Back
Fore
SplineSet
195 598 m 1,0,1
 195 573 195 573 175 555 c 0,2,3
 156 537 156 537 128 537 c 0,4,5
 101 537 101 537 81 555 c 0,6,7
 62 573 62 573 62 598 c 256,8,9
 62 623 62 623 81 640 c 0,10,11
 101 658 101 658 128 658 c 0,12,13
 156 658 156 658 175 640 c 0,14,15
 195 623 195 623 195 598 c 1,16,-1
 195 598 l 1,0,1
EndSplineSet
EndChar

StartChar: uni0BE6
Encoding: 307 3046 52
Width: 448
GlyphClass: 2
Flags: W
LayerCount: 2
Back
Fore
SplineSet
398 200 m 1,0,1
 398 107 398 107 350 52 c 0,2,3
 302 -4 302 -4 222 -4 c 0,4,5
 144 -4 144 -4 97 51 c 0,6,7
 50 107 50 107 50 199 c 0,8,9
 50 292 50 292 97 349 c 0,10,11
 144 405 144 405 222 405 c 0,12,13
 302 405 302 405 350 349 c 256,14,15
 398 293 398 293 398 200 c 1,16,-1
 398 200 l 1,0,1
331 202 m 1,17,18
 331 279 331 279 300 334 c 0,19,20
 269 388 269 388 225 388 c 0,21,22
 179 388 179 388 146 332 c 256,23,24
 113 276 113 276 113 196 c 0,25,26
 113 123 113 123 145 71 c 0,27,28
 176 19 176 19 221 19 c 0,29,30
 267 19 267 19 299 73 c 0,31,32
 331 126 331 126 331 202 c 1,33,-1
 331 202 l 1,17,18
EndSplineSet
EndChar

StartChar: uni0BE7
Encoding: 308 3047 53
Width: 591
GlyphClass: 2
Flags: W
LayerCount: 2
Back
Fore
SplineSet
541 109 m 1,0,1
 541 51 541 51 507 25 c 0,2,3
 473 0 473 0 394 0 c 1,4,-1
 394 30 l 1,5,6
 434 30 434 30 450 49 c 0,7,8
 466 69 466 69 466 118 c 0,9,10
 466 151 466 151 456 168 c 0,11,12
 447 185 447 185 428 185 c 2,13,-1
 382 185 l 1,14,-1
 382 131 l 2,15,16
 382 65 382 65 333 32 c 0,17,18
 284 -2 284 -2 187 -2 c 0,19,20
 130 -2 130 -2 90 38 c 256,21,22
 50 78 50 78 50 134 c 0,23,24
 50 171 50 171 76 193 c 256,25,26
 102 215 102 215 145 215 c 2,27,-1
 169 215 l 1,28,-1
 169 400 l 1,29,-1
 516 400 l 1,30,-1
 516 370 l 1,31,-1
 382 370 l 1,32,-1
 382 215 l 1,33,-1
 461 215 l 2,34,35
 497 215 497 215 519 186 c 256,36,37
 541 157 541 157 541 109 c 1,38,-1
 541 109 l 1,0,1
307 215 m 1,39,-1
 307 370 l 1,40,-1
 199 370 l 1,41,-1
 199 215 l 1,42,-1
 307 215 l 1,43,-1
 307 215 l 1,39,-1
307 138 m 1,44,-1
 307 185 l 1,45,-1
 138 185 l 2,46,47
 112 185 112 185 96 171 c 0,48,49
 80 158 80 158 80 135 c 0,50,51
 80 86 80 86 109 57 c 0,52,53
 139 28 139 28 188 28 c 256,54,55
 237 28 237 28 272 60 c 256,56,57
 307 92 307 92 307 138 c 1,58,-1
 307 138 l 1,44,-1
EndSplineSet
EndChar

StartChar: uni0BE8
Encoding: 309 3048 54
Width: 573
GlyphClass: 2
Flags: W
LayerCount: 2
Back
Fore
SplineSet
523 0 m 1,0,-1
 142 0 l 2,1,2
 104 0 104 0 77 19 c 0,3,4
 50 37 50 37 50 64 c 0,5,6
 50 89 50 89 73 107 c 256,7,8
 96 125 96 125 129 125 c 2,9,-1
 280 125 l 2,10,11
 322 125 322 125 352 162 c 0,12,13
 382 200 382 200 382 253 c 0,14,15
 382 302 382 302 349 337 c 256,16,17
 316 372 316 372 269 372 c 2,18,-1
 206 372 l 1,19,20
 234 366 234 366 253 341 c 0,21,22
 271 315 271 315 271 280 c 0,23,24
 271 241 271 241 240 214 c 0,25,26
 209 186 209 186 165 186 c 0,27,28
 122 186 122 186 91 214 c 0,29,30
 60 241 60 241 60 280 c 0,31,32
 60 335 60 335 112 369 c 0,33,34
 164 402 164 402 250 402 c 0,35,36
 346 402 346 402 403 361 c 0,37,38
 461 320 461 320 461 252 c 0,39,40
 461 187 461 187 409 141 c 256,41,42
 357 95 357 95 284 95 c 2,43,-1
 150 95 l 2,44,45
 136 95 136 95 125 86 c 0,46,47
 115 76 115 76 115 63 c 0,48,49
 115 49 115 49 126 40 c 0,50,51
 137 30 137 30 153 30 c 2,52,-1
 523 30 l 1,53,-1
 523 0 l 1,54,-1
 523 0 l 1,0,-1
170 283 m 1,55,56
 170 305 170 305 158 320 c 0,57,58
 145 336 145 336 128 336 c 256,59,60
 111 336 111 336 99 319 c 256,61,62
 87 302 87 302 87 278 c 0,63,64
 87 258 87 258 99 243 c 0,65,66
 112 229 112 229 129 229 c 256,67,68
 146 229 146 229 158 245 c 256,69,70
 170 261 170 261 170 283 c 1,71,-1
 170 283 l 1,55,56
EndSplineSet
EndChar

StartChar: uni0BE9
Encoding: 310 3049 55
Width: 664
GlyphClass: 2
Flags: W
LayerCount: 2
Back
Fore
SplineSet
614 0 m 1,0,-1
 236 0 l 1,1,-1
 236 30 l 1,2,-1
 387 30 l 1,3,4
 417 47 417 47 434 76 c 0,5,6
 451 106 451 106 451 139 c 0,7,8
 451 181 451 181 427 210 c 0,9,10
 403 240 403 240 369 240 c 0,11,12
 353 240 353 240 338 233 c 0,13,14
 323 225 323 225 311 212 c 1,15,-1
 311 110 l 1,16,-1
 236 110 l 1,17,-1
 236 370 l 1,18,-1
 80 370 l 1,19,-1
 80 0 l 1,20,-1
 50 0 l 1,21,-1
 50 400 l 1,22,-1
 494 400 l 1,23,-1
 494 370 l 1,24,-1
 311 370 l 1,25,-1
 311 247 l 1,26,27
 327 258 327 258 349 264 c 256,28,29
 371 270 371 270 397 270 c 0,30,31
 456 270 456 270 491 236 c 256,32,33
 526 202 526 202 526 146 c 0,34,35
 526 108 526 108 504 76 c 0,36,37
 483 44 483 44 447 30 c 1,38,-1
 614 30 l 1,39,-1
 614 0 l 1,40,-1
 614 0 l 1,0,-1
EndSplineSet
EndChar

StartChar: uni0BEA
Encoding: 311 3050 56
Width: 656
GlyphClass: 2
Flags: W
LayerCount: 2
Back
Fore
SplineSet
606 185 m 1,0,-1
 382 185 l 1,1,-1
 382 141 l 2,2,3
 382 70 382 70 335 34 c 0,4,5
 289 -2 289 -2 197 -2 c 0,6,7
 130 -2 130 -2 90 35 c 256,8,9
 50 72 50 72 50 134 c 0,10,11
 50 171 50 171 76 193 c 256,12,13
 102 215 102 215 145 215 c 2,14,-1
 159 215 l 1,15,-1
 159 400 l 1,16,-1
 507 400 l 1,17,-1
 507 370 l 1,18,-1
 382 370 l 1,19,-1
 382 215 l 1,20,-1
 531 215 l 1,21,-1
 531 264 l 1,22,-1
 606 264 l 1,23,-1
 606 185 l 1,24,-1
 606 185 l 1,0,-1
307 215 m 1,25,-1
 307 370 l 1,26,-1
 189 370 l 1,27,-1
 189 215 l 1,28,-1
 307 215 l 1,29,-1
 307 215 l 1,25,-1
307 138 m 1,30,-1
 307 185 l 1,31,-1
 138 185 l 2,32,33
 112 185 112 185 96 171 c 0,34,35
 80 158 80 158 80 135 c 0,36,37
 80 86 80 86 109 57 c 0,38,39
 139 28 139 28 188 28 c 0,40,41
 242 28 242 28 274 58 c 0,42,43
 307 88 307 88 307 138 c 1,44,-1
 307 138 l 1,30,-1
EndSplineSet
EndChar

StartChar: uni0BEB
Encoding: 312 3051 57
Width: 777
GlyphClass: 2
Flags: W
LayerCount: 2
Back
Fore
SplineSet
50 200 m 1,0,1
 50 366 50 366 159 484 c 0,2,3
 267 601 267 601 421 601 c 0,4,5
 519 601 519 601 589 551 c 0,6,7
 658 501 658 501 658 431 c 1,8,-1
 631 431 l 1,9,10
 621 491 621 491 562 531 c 0,11,12
 502 571 502 571 421 571 c 0,13,14
 298 571 298 571 212 462 c 0,15,16
 125 354 125 354 125 200 c 0,17,18
 125 36 125 36 205 -63 c 256,19,20
 285 -162 285 -162 418 -162 c 0,21,22
 515 -162 515 -162 583 -97 c 0,23,24
 652 -32 652 -32 652 60 c 0,25,26
 652 117 652 117 626 158 c 0,27,28
 599 198 599 198 562 198 c 0,29,30
 531 198 531 198 509 183 c 1,31,-1
 509 0 l 1,32,-1
 434 0 l 1,33,-1
 434 370 l 1,34,-1
 287 370 l 1,35,-1
 287 0 l 1,36,-1
 257 0 l 1,37,-1
 257 400 l 1,38,-1
 634 400 l 1,39,-1
 634 370 l 1,40,-1
 509 370 l 1,41,-1
 509 214 l 1,42,43
 540 228 540 228 564 228 c 0,44,45
 632 228 632 228 679 178 c 0,46,47
 727 128 727 128 727 58 c 0,48,49
 727 -46 727 -46 636 -119 c 256,50,51
 545 -192 545 -192 417 -192 c 0,52,53
 250 -192 250 -192 150 -85 c 256,54,55
 50 22 50 22 50 200 c 1,56,-1
 50 200 l 1,0,1
EndSplineSet
EndChar

StartChar: uni0BEC
Encoding: 313 3052 58
Width: 810
GlyphClass: 2
Flags: W
LayerCount: 2
Back
Fore
SplineSet
50 134 m 1,0,1
 50 171 50 171 76 193 c 256,2,3
 102 215 102 215 145 215 c 2,4,-1
 159 215 l 1,5,-1
 159 400 l 1,6,-1
 555 400 l 1,7,-1
 555 370 l 1,8,-1
 382 370 l 1,9,-1
 382 215 l 1,10,-1
 760 215 l 1,11,-1
 760 185 l 1,12,-1
 715 185 l 1,13,-1
 715 0 l 1,14,-1
 640 0 l 1,15,-1
 640 185 l 1,16,-1
 540 185 l 1,17,-1
 540 0 l 1,18,-1
 465 0 l 1,19,-1
 465 185 l 1,20,-1
 382 185 l 1,21,-1
 382 131 l 2,22,23
 382 65 382 65 333 32 c 0,24,25
 284 -2 284 -2 187 -2 c 0,26,27
 125 -2 125 -2 87 35 c 0,28,29
 50 72 50 72 50 134 c 1,30,-1
 50 134 l 1,0,1
307 215 m 1,31,-1
 307 370 l 1,32,-1
 189 370 l 1,33,-1
 189 215 l 1,34,-1
 307 215 l 1,35,-1
 307 215 l 1,31,-1
307 138 m 1,36,-1
 307 185 l 1,37,-1
 138 185 l 2,38,39
 112 185 112 185 96 171 c 0,40,41
 80 158 80 158 80 135 c 0,42,43
 80 86 80 86 109 57 c 0,44,45
 139 28 139 28 188 28 c 0,46,47
 242 28 242 28 274 58 c 0,48,49
 307 88 307 88 307 138 c 1,50,-1
 307 138 l 1,36,-1
EndSplineSet
EndChar

StartChar: uni0BED
Encoding: 314 3053 59
Width: 742
GlyphClass: 2
Flags: W
LayerCount: 2
Back
Fore
SplineSet
515 0 m 1,0,-1
 515 370 l 1,1,-1
 258 370 l 2,2,3
 184 370 184 370 132 314 c 0,4,5
 80 259 80 259 80 180 c 0,6,7
 80 130 80 130 98 93 c 256,8,9
 116 56 116 56 145 44 c 1,10,11
 118 80 118 80 118 120 c 0,12,13
 118 166 118 166 153 198 c 256,14,15
 188 230 188 230 238 230 c 256,16,17
 288 230 288 230 324 199 c 0,18,19
 359 167 359 167 359 123 c 0,20,21
 359 72 359 72 319 36 c 0,22,23
 280 0 280 0 224 0 c 0,24,25
 152 0 152 0 101 54 c 0,26,27
 50 107 50 107 50 183 c 0,28,29
 50 273 50 273 111 336 c 0,30,31
 172 400 172 400 258 400 c 2,32,-1
 692 400 l 1,33,-1
 692 370 l 1,34,-1
 590 370 l 1,35,-1
 590 0 l 1,36,-1
 515 0 l 1,37,-1
 515 0 l 1,0,-1
284 119 m 1,38,39
 284 153 284 153 265 176 c 0,40,41
 245 200 245 200 218 200 c 0,42,43
 189 200 189 200 169 176 c 0,44,45
 148 151 148 151 148 117 c 0,46,47
 148 84 148 84 167 60 c 0,48,49
 185 37 185 37 212 37 c 0,50,51
 242 37 242 37 263 61 c 256,52,53
 284 85 284 85 284 119 c 1,54,-1
 284 119 l 1,38,39
EndSplineSet
EndChar

StartChar: uni0BEE
Encoding: 315 3054 60
Width: 926
GlyphClass: 2
Flags: W
LayerCount: 2
Back
Fore
SplineSet
50 32 m 1,0,1
 50 51 50 51 68 65 c 0,2,3
 86 78 86 78 111 78 c 2,4,-1
 603 78 l 1,5,6
 635 141 635 141 635 215 c 0,7,8
 635 282 635 282 595 330 c 0,9,10
 556 377 556 377 500 377 c 1,11,12
 528 360 528 360 545 332 c 0,13,14
 561 304 561 304 561 272 c 0,15,16
 561 225 561 225 518 191 c 0,17,18
 475 158 475 158 414 158 c 0,19,20
 362 158 362 158 326 192 c 0,21,22
 289 225 289 225 289 273 c 0,23,24
 289 334 289 334 348 370 c 0,25,26
 408 407 408 407 506 407 c 0,27,28
 590 407 590 407 650 349 c 256,29,30
 710 291 710 291 710 209 c 0,31,32
 710 137 710 137 681 78 c 1,33,-1
 801 78 l 1,34,-1
 801 400 l 1,35,-1
 876 400 l 1,36,-1
 876 -134 l 1,37,-1
 801 -134 l 1,38,-1
 801 48 l 1,39,-1
 673 48 l 1,40,41
 630 -30 630 -30 538 -75 c 256,42,43
 446 -120 446 -120 330 -120 c 256,44,45
 214 -120 214 -120 132 -75 c 0,46,47
 50 -31 50 -31 50 32 c 1,48,-1
 50 32 l 1,0,1
486 270 m 1,49,50
 486 306 486 306 462 332 c 0,51,52
 437 358 437 358 403 358 c 0,53,54
 368 358 368 358 344 332 c 0,55,56
 319 306 319 306 319 270 c 0,57,58
 319 236 319 236 343 212 c 256,59,60
 367 188 367 188 401 188 c 0,61,62
 436 188 436 188 461 212 c 256,63,64
 486 236 486 236 486 270 c 1,65,-1
 486 270 l 1,49,50
588 48 m 1,66,-1
 113 48 l 2,67,68
 100 48 100 48 91 44 c 0,69,70
 83 40 83 40 81 33 c 0,71,72
 70 -14 70 -14 140 -52 c 0,73,74
 211 -90 211 -90 309 -90 c 0,75,76
 399 -90 399 -90 473 -53 c 0,77,78
 548 -16 548 -16 588 48 c 1,79,-1
 588 48 l 1,66,-1
EndSplineSet
EndChar

StartChar: uni0BEF
Encoding: 316 3055 61
Width: 817
GlyphClass: 2
Flags: W
LayerCount: 2
Back
Fore
SplineSet
50 134 m 1,0,1
 50 168 50 168 76 191 c 0,2,3
 103 215 103 215 140 215 c 2,4,-1
 169 215 l 1,5,-1
 169 400 l 1,6,-1
 517 400 l 1,7,-1
 517 370 l 1,8,-1
 382 370 l 1,9,-1
 382 215 l 1,10,-1
 502 215 l 1,11,12
 515 226 515 226 541 231 c 0,13,14
 567 237 567 237 603 237 c 0,15,16
 671 237 671 237 719 199 c 256,17,18
 767 161 767 161 767 108 c 0,19,20
 767 75 767 75 757 47 c 0,21,22
 746 19 746 19 727 0 c 1,23,-1
 658 0 l 1,24,-1
 658 30 l 1,25,26
 674 42 674 42 683 62 c 256,27,28
 692 82 692 82 692 106 c 0,29,30
 692 148 692 148 663 177 c 0,31,32
 635 207 635 207 594 207 c 0,33,34
 582 207 582 207 572 203 c 1,35,36
 605 186 605 186 624 158 c 0,37,38
 643 131 643 131 643 101 c 0,39,40
 643 56 643 56 614 24 c 256,41,42
 585 -8 585 -8 544 -8 c 256,43,44
 503 -8 503 -8 474 24 c 0,45,46
 445 55 445 55 445 100 c 0,47,48
 445 126 445 126 455 148 c 0,49,50
 464 171 464 171 482 185 c 1,51,-1
 382 185 l 1,52,-1
 382 136 l 2,53,54
 382 77 382 77 329 35 c 0,55,56
 277 -7 277 -7 202 -7 c 0,57,58
 139 -7 139 -7 95 34 c 0,59,60
 50 76 50 76 50 134 c 1,61,-1
 50 134 l 1,0,1
307 215 m 1,62,-1
 307 370 l 1,63,-1
 199 370 l 1,64,-1
 199 215 l 1,65,-1
 307 215 l 1,66,-1
 307 215 l 1,62,-1
307 138 m 1,67,-1
 307 185 l 1,68,-1
 138 185 l 2,69,70
 114 185 114 185 97 170 c 0,71,72
 80 156 80 156 80 135 c 0,73,74
 80 91 80 91 111 60 c 0,75,76
 143 29 143 29 187 29 c 0,77,78
 237 29 237 29 272 61 c 256,79,80
 307 93 307 93 307 138 c 1,81,-1
 307 138 l 1,67,-1
568 102 m 1,82,83
 568 132 568 132 555 153 c 0,84,85
 541 174 541 174 522 174 c 256,86,87
 503 174 503 174 489 152 c 0,88,89
 475 129 475 129 475 98 c 0,90,91
 475 71 475 71 488 51 c 0,92,93
 501 32 501 32 519 32 c 0,94,95
 539 32 539 32 554 53 c 0,96,97
 568 73 568 73 568 102 c 1,98,-1
 568 102 l 1,82,83
EndSplineSet
EndChar

StartChar: uni0BF0
Encoding: 317 3056 62
Width: 571
GlyphClass: 2
Flags: W
LayerCount: 2
Back
Fore
SplineSet
525 230 m 1,0,1
 525 133 525 133 475 64 c 256,2,3
 425 -5 425 -5 355 -5 c 0,4,5
 325 -4 325 -4 298 15 c 256,6,7
 271 34 271 34 256 66 c 1,8,9
 246 35 246 35 220 15 c 0,10,11
 195 -4 195 -4 163 -5 c 0,12,13
 122 -4 122 -4 94 27 c 0,14,15
 65 59 65 59 65 103 c 2,16,-1
 65 400 l 1,17,-1
 95 400 l 1,18,-1
 95 98 l 2,19,20
 95 71 95 71 110 51 c 0,21,22
 126 31 126 31 150 29 c 0,23,24
 168 30 168 30 180 52 c 0,25,26
 192 73 192 73 192 103 c 2,27,-1
 192 400 l 1,28,-1
 267 400 l 1,29,-1
 267 127 l 2,30,31
 268 85 268 85 292 55 c 256,32,33
 316 25 316 25 350 25 c 0,34,35
 391 25 391 25 421 85 c 0,36,37
 450 146 450 146 450 231 c 0,38,39
 450 323 450 323 409 388 c 0,40,41
 369 453 369 453 311 453 c 2,42,-1
 65 453 l 1,43,-1
 65 483 l 1,44,-1
 320 483 l 2,45,46
 404 486 404 486 465 411 c 0,47,48
 525 337 525 337 525 230 c 1,49,-1
 525 230 l 1,0,1
EndSplineSet
EndChar

StartChar: uni0BF1
Encoding: 318 3057 63
Width: 619
GlyphClass: 2
Flags: W
LayerCount: 2
Back
Fore
SplineSet
65 0 m 1,0,-1
 65 309 l 2,1,2
 65 347 65 347 96 373 c 0,3,4
 127 400 127 400 171 400 c 0,5,6
 214 400 214 400 246 382 c 0,7,8
 279 364 279 364 287 335 c 1,9,10
 300 365 300 365 322 382 c 0,11,12
 344 400 344 400 369 400 c 2,13,-1
 614 400 l 1,14,-1
 614 370 l 1,15,-1
 528 370 l 1,16,-1
 528 0 l 1,17,-1
 453 0 l 1,18,-1
 453 370 l 1,19,-1
 374 370 l 2,20,21
 347 370 347 370 328 342 c 0,22,23
 309 315 309 315 309 276 c 2,24,-1
 309 0 l 1,25,-1
 234 0 l 1,26,-1
 234 305 l 2,27,28
 234 332 234 332 213 351 c 0,29,30
 193 370 193 370 164 370 c 256,31,32
 135 370 135 370 115 352 c 256,33,34
 95 334 95 334 95 309 c 2,35,-1
 95 0 l 1,36,-1
 65 0 l 1,37,-1
 65 0 l 1,0,-1
EndSplineSet
EndChar

StartChar: uni0BF2
Encoding: 319 3058 64
Width: 695
GlyphClass: 2
Flags: W
LayerCount: 2
Back
Fore
SplineSet
24 127 m 1,0,1
 25 162 25 162 50 186 c 256,2,3
 75 210 75 210 110 210 c 2,4,-1
 132 210 l 1,5,-1
 132 400 l 1,6,-1
 488 400 l 1,7,-1
 488 370 l 1,8,-1
 329 370 l 1,9,-1
 329 210 l 1,10,-1
 580 210 l 1,11,-1
 580 180 l 1,12,-1
 510 180 l 1,13,-1
 510 107 l 1,14,15
 516 110 516 110 530 112 c 256,16,17
 544 114 544 114 564 114 c 0,18,19
 612 114 612 114 647 84 c 0,20,21
 681 53 681 53 681 10 c 0,22,23
 681 -51 681 -51 614 -94 c 256,24,25
 547 -137 547 -137 452 -137 c 2,26,-1
 167 -137 l 2,27,28
 141 -137 141 -137 122 -144 c 0,29,30
 103 -152 103 -152 99 -164 c 1,31,32
 110 -160 110 -160 120 -168 c 256,33,34
 130 -176 130 -176 130 -190 c 0,35,36
 130 -201 130 -201 120 -208 c 0,37,38
 111 -216 111 -216 97 -216 c 0,39,40
 80 -216 80 -216 67 -205 c 0,41,42
 55 -193 55 -193 55 -177 c 0,43,44
 55 -148 55 -148 88 -128 c 0,45,46
 121 -107 121 -107 167 -107 c 2,47,-1
 455 -107 l 2,48,49
 518 -107 518 -107 562 -73 c 0,50,51
 606 -38 606 -38 606 10 c 0,52,53
 606 41 606 41 590 62 c 0,54,55
 575 84 575 84 553 84 c 0,56,57
 527 84 527 84 510 74 c 1,58,-1
 510 0 l 1,59,-1
 435 0 l 1,60,-1
 435 180 l 1,61,-1
 329 180 l 1,62,-1
 329 124 l 2,63,64
 330 73 330 73 287 36 c 0,65,66
 243 0 243 0 182 0 c 0,67,68
 117 0 117 0 70 37 c 0,69,70
 24 74 24 74 24 127 c 1,71,-1
 24 127 l 1,0,1
254 210 m 1,72,-1
 254 370 l 1,73,-1
 162 370 l 1,74,-1
 162 210 l 1,75,-1
 254 210 l 1,76,-1
 254 210 l 1,72,-1
254 132 m 1,77,-1
 254 180 l 1,78,-1
 106 180 l 2,79,80
 84 180 84 180 69 164 c 0,81,82
 54 147 54 147 54 124 c 0,83,84
 54 91 54 91 75 65 c 0,85,86
 97 39 97 39 130 31 c 0,87,88
 178 20 178 20 216 51 c 256,89,90
 254 82 254 82 254 132 c 1,91,-1
 254 132 l 1,77,-1
EndSplineSet
EndChar

StartChar: uni0BF3
Encoding: 320 3059 65
Width: 692
GlyphClass: 2
Flags: W
LayerCount: 2
Back
Fore
SplineSet
38 182 m 1,0,1
 38 271 38 271 104 333 c 0,2,3
 169 396 169 396 262 396 c 0,4,5
 361 396 361 396 432 335 c 0,6,7
 502 274 502 274 502 188 c 0,8,9
 502 135 502 135 486 93 c 256,10,11
 470 51 470 51 442 30 c 1,12,-1
 687 30 l 1,13,-1
 687 0 l 1,14,-1
 347 0 l 1,15,-1
 347 27 l 1,16,17
 384 46 384 46 405 91 c 0,18,19
 427 137 427 137 427 196 c 0,20,21
 427 266 427 266 374 316 c 0,22,23
 322 366 322 366 247 366 c 0,24,25
 173 366 173 366 120 312 c 0,26,27
 68 258 68 258 68 182 c 0,28,29
 68 138 68 138 85 101 c 0,30,31
 103 65 103 65 133 44 c 1,32,33
 121 59 121 59 114 79 c 0,34,35
 108 100 108 100 108 123 c 0,36,37
 108 171 108 171 134 199 c 0,38,39
 161 228 161 228 205 228 c 0,40,41
 254 228 254 228 284 199 c 256,42,43
 314 170 314 170 314 122 c 0,44,45
 314 67 314 67 282 34 c 256,46,47
 250 1 250 1 196 1 c 0,48,49
 124 1 124 1 81 50 c 0,50,51
 38 100 38 100 38 182 c 1,52,-1
 38 182 l 1,0,1
239 119 m 1,53,54
 239 152 239 152 225 175 c 256,55,56
 211 198 211 198 191 198 c 0,57,58
 169 198 169 198 154 175 c 0,59,60
 138 152 138 152 138 120 c 0,61,62
 138 83 138 83 153 57 c 0,63,64
 167 31 167 31 188 31 c 256,65,66
 209 31 209 31 224 57 c 256,67,68
 239 83 239 83 239 119 c 1,69,-1
 239 119 l 1,53,54
EndSplineSet
EndChar

StartChar: uni0BF4
Encoding: 321 3060 66
Width: 681
GlyphClass: 2
Flags: W
LayerCount: 2
Back
Fore
SplineSet
394 467 m 1,0,1
 394 508 394 508 434 537 c 0,2,3
 475 566 475 566 532 566 c 1,4,5
 556 590 556 590 597 604 c 0,6,7
 637 617 637 617 686 617 c 0,8,9
 696 617 696 617 734 605 c 2,10,-1
 763 596 l 1,11,12
 798 617 798 617 837 617 c 0,13,14
 855 617 855 617 870 610 c 0,15,16
 886 603 886 603 896 591 c 1,17,-1
 886 573 l 1,18,19
 862 587 862 587 845 587 c 0,20,21
 831 587 831 587 822 586 c 0,22,23
 813 584 813 584 808 582 c 1,24,25
 829 572 829 572 842 557 c 0,26,27
 854 542 854 542 854 527 c 0,28,29
 854 501 854 501 829 483 c 256,30,31
 804 465 804 465 769 465 c 0,32,33
 735 465 735 465 710 485 c 0,34,35
 686 504 686 504 686 532 c 0,36,37
 686 544 686 544 696 557 c 0,38,39
 705 569 705 569 722 578 c 1,40,41
 717 582 717 582 707 585 c 0,42,43
 697 587 697 587 683 587 c 0,44,45
 648 587 648 587 624 581 c 0,46,47
 599 575 599 575 590 564 c 1,48,49
 623 564 623 564 646 545 c 0,50,51
 669 527 669 527 669 500 c 256,52,53
 669 473 669 473 641 455 c 0,54,55
 614 436 614 436 575 436 c 0,56,57
 540 436 540 436 515 454 c 256,58,59
 490 472 490 472 490 498 c 0,60,61
 490 512 490 512 495 523 c 256,62,63
 500 534 500 534 509 541 c 1,64,65
 474 541 474 541 449 519 c 256,66,67
 424 497 424 497 424 466 c 0,68,69
 424 446 424 446 430 429 c 256,70,71
 436 412 436 412 447 401 c 0,72,73
 450 402 450 402 459 401 c 2,74,-1
 477 401 l 2,75,76
 549 401 549 401 592 340 c 0,77,78
 635 280 635 280 635 179 c 0,79,80
 635 98 635 98 602 49 c 256,81,82
 569 0 569 0 515 0 c 2,83,-1
 70 0 l 1,84,-1
 70 400 l 1,85,-1
 145 400 l 1,86,-1
 145 30 l 1,87,-1
 331 30 l 1,88,-1
 331 271 l 2,89,90
 331 314 331 314 355 348 c 0,91,92
 379 383 379 383 417 395 c 1,93,94
 406 409 406 409 400 428 c 0,95,96
 394 446 394 446 394 467 c 1,97,-1
 394 467 l 1,0,1
594 500 m 1,98,99
 594 515 594 515 581 525 c 0,100,101
 569 536 569 536 551 536 c 1,102,103
 537 532 537 532 529 523 c 0,104,105
 520 513 520 513 520 501 c 0,106,107
 520 487 520 487 532 476 c 0,108,109
 543 466 543 466 560 466 c 0,110,111
 574 466 574 466 584 476 c 256,112,113
 594 486 594 486 594 500 c 1,114,-1
 594 500 l 1,98,99
797 527 m 1,115,116
 797 542 797 542 788 552 c 0,117,118
 779 563 779 563 767 563 c 256,119,120
 755 563 755 563 746 552 c 0,121,122
 737 542 737 542 737 527 c 0,123,124
 737 514 737 514 746 504 c 0,125,126
 755 495 755 495 767 495 c 256,127,128
 779 495 779 495 788 504 c 0,129,130
 797 514 797 514 797 527 c 1,131,-1
 797 527 l 1,115,116
406 275 m 1,132,-1
 406 30 l 1,133,-1
 505 30 l 2,134,135
 550 30 550 30 578 71 c 0,136,137
 605 112 605 112 605 180 c 0,138,139
 605 267 605 267 572 319 c 256,140,141
 539 371 539 371 484 371 c 0,142,143
 452 371 452 371 429 343 c 256,144,145
 406 315 406 315 406 275 c 1,146,-1
 406 275 l 1,132,-1
EndSplineSet
EndChar

StartChar: uni0BF5
Encoding: 322 3061 67
Width: 1340
GlyphClass: 2
Flags: W
LayerCount: 2
Back
Fore
SplineSet
165 182 m 1,0,1
 165 272 165 272 227 336 c 256,2,3
 289 400 289 400 377 400 c 0,4,5
 462 400 462 400 523 338 c 0,6,7
 583 276 583 276 583 189 c 0,8,9
 583 132 583 132 569 90 c 0,10,11
 556 48 556 48 532 31 c 1,12,-1
 686 31 l 1,13,-1
 686 400 l 1,14,-1
 1064 400 l 1,15,-1
 1064 370 l 1,16,-1
 936 370 l 1,17,-1
 936 205 l 1,18,19
 964 222 964 222 1003 222 c 0,20,21
 1059 222 1059 222 1099 175 c 256,22,23
 1139 128 1139 128 1139 62 c 0,24,25
 1139 -64 1139 -64 994 -139 c 0,26,27
 849 -215 849 -215 609 -215 c 0,28,29
 356 -215 356 -215 204 -96 c 256,30,31
 52 23 52 23 52 220 c 0,32,33
 52 405 52 405 224 516 c 256,34,35
 396 627 396 627 681 627 c 0,36,37
 897 627 897 627 1026 570 c 0,38,39
 1156 513 1156 513 1156 418 c 2,40,-1
 1156 333 l 2,41,42
 1156 316 1156 316 1163 305 c 0,43,44
 1171 293 1171 293 1181 293 c 2,45,-1
 1214 293 l 2,46,47
 1226 293 1226 293 1234 305 c 0,48,49
 1242 318 1242 318 1242 335 c 2,50,-1
 1242 400 l 1,51,-1
 1317 400 l 1,52,-1
 1317 335 l 2,53,54
 1317 305 1317 305 1305 284 c 0,55,56
 1294 263 1294 263 1277 263 c 2,57,-1
 1177 263 l 2,58,59
 1156 263 1156 263 1141 280 c 256,60,61
 1126 297 1126 297 1126 321 c 2,62,-1
 1126 418 l 2,63,64
 1126 499 1126 499 1005 548 c 0,65,66
 885 597 885 597 684 597 c 0,67,68
 411 597 411 597 246 494 c 0,69,70
 82 391 82 391 82 219 c 0,71,72
 82 36 82 36 226 -75 c 0,73,74
 370 -185 370 -185 609 -185 c 0,75,76
 815 -185 815 -185 940 -120 c 0,77,78
 1064 -55 1064 -55 1064 53 c 0,79,80
 1064 111 1064 111 1042 151 c 0,81,82
 1019 192 1019 192 988 192 c 0,83,84
 969 192 969 192 936 176 c 1,85,-1
 936 0 l 1,86,-1
 861 0 l 1,87,-1
 861 370 l 1,88,-1
 716 370 l 1,89,-1
 716 0 l 1,90,-1
 457 0 l 1,91,-1
 457 30 l 1,92,93
 481 48 481 48 495 92 c 0,94,95
 508 136 508 136 508 197 c 0,96,97
 508 269 508 269 469 319 c 0,98,99
 431 370 431 370 376 370 c 0,100,101
 301 370 301 370 248 316 c 0,102,103
 195 261 195 261 195 184 c 0,104,105
 195 133 195 133 212 95 c 0,106,107
 228 57 228 57 257 42 c 1,108,109
 246 54 246 54 240 75 c 0,110,111
 234 95 234 95 234 120 c 0,112,113
 234 166 234 166 260 199 c 256,114,115
 286 232 286 232 322 232 c 0,116,117
 365 232 365 232 395 198 c 256,118,119
 425 164 425 164 425 116 c 256,120,121
 425 68 425 68 392 34 c 256,122,123
 359 0 359 0 313 0 c 0,124,125
 252 0 252 0 208 53 c 0,126,127
 165 107 165 107 165 182 c 1,128,-1
 165 182 l 1,0,1
350 114 m 1,129,130
 350 144 350 144 339 165 c 256,131,132
 328 186 328 186 312 186 c 0,133,134
 292 186 292 186 278 166 c 0,135,136
 264 147 264 147 264 119 c 0,137,138
 264 87 264 87 277 65 c 0,139,140
 291 42 291 42 310 42 c 0,141,142
 327 42 327 42 338 63 c 0,143,144
 350 84 350 84 350 114 c 1,145,-1
 350 114 l 1,129,130
EndSplineSet
EndChar

StartChar: uni0BF6
Encoding: 323 3062 68
Width: 794
GlyphClass: 2
Flags: W
LayerCount: 2
Back
Fore
SplineSet
401 -98 m 1,0,-1
 139 -98 l 2,1,2
 123 -98 123 -98 111 -104 c 0,3,4
 100 -110 100 -110 100 -118 c 0,5,6
 90 -141 90 -141 138 -161 c 0,7,8
 186 -182 186 -182 248 -182 c 0,9,10
 306 -182 306 -182 348 -159 c 0,11,12
 391 -135 391 -135 401 -98 c 1,13,-1
 401 -98 l 1,0,-1
70 0 m 1,14,-1
 70 400 l 1,15,-1
 145 400 l 1,16,-1
 145 32 l 1,17,-1
 402 32 l 1,18,-1
 402 400 l 1,19,-1
 477 400 l 1,20,-1
 477 -68 l 1,21,-1
 649 -68 l 1,22,-1
 649 400 l 1,23,-1
 724 400 l 1,24,-1
 724 -98 l 1,25,-1
 473 -98 l 1,26,27
 473 -145 473 -145 407 -179 c 0,28,29
 341 -212 341 -212 248 -212 c 0,30,31
 174 -212 174 -212 122 -185 c 256,32,33
 70 -158 70 -158 70 -120 c 0,34,35
 70 -98 70 -98 91 -83 c 256,36,37
 112 -68 112 -68 141 -68 c 2,38,-1
 402 -68 l 1,39,-1
 402 0 l 1,40,-1
 70 0 l 1,41,-1
 70 0 l 1,14,-1
EndSplineSet
EndChar

StartChar: uni0BF7
Encoding: 324 3063 69
Width: 1082
GlyphClass: 2
Flags: W
LayerCount: 2
Back
Fore
SplineSet
671 370 m 1,0,-1
 560 370 l 1,1,-1
 560 213 l 1,2,-1
 704 213 l 2,3,4
 721 213 721 213 734 197 c 0,5,6
 746 181 746 181 746 158 c 1,7,8
 758 183 758 183 786 198 c 256,9,10
 814 213 814 213 849 213 c 0,11,12
 896 213 896 213 929 185 c 0,13,14
 962 158 962 158 962 119 c 0,15,16
 962 89 962 89 950 65 c 256,17,18
 938 41 938 41 918 29 c 1,19,-1
 1077 29 l 1,20,-1
 1077 0 l 1,21,-1
 823 0 l 1,22,-1
 823 29 l 1,23,24
 851 36 851 36 869 60 c 0,25,26
 887 83 887 83 887 113 c 0,27,28
 887 142 887 142 869 162 c 0,29,30
 852 183 852 183 827 183 c 256,31,32
 802 183 802 183 780 164 c 0,33,34
 757 145 757 145 746 113 c 1,35,-1
 746 0 l 1,36,-1
 671 0 l 1,37,-1
 671 183 l 1,38,-1
 560 183 l 1,39,-1
 560 0 l 1,40,-1
 485 0 l 1,41,-1
 485 370 l 1,42,-1
 287 370 l 2,43,44
 196 370 196 370 131 316 c 0,45,46
 67 262 67 262 67 185 c 0,47,48
 67 139 67 139 84 103 c 256,49,50
 101 67 101 67 131 50 c 1,51,52
 120 63 120 63 114 84 c 0,53,54
 108 104 108 104 108 129 c 0,55,56
 108 172 108 172 141 203 c 0,57,58
 174 233 174 233 221 233 c 0,59,60
 272 233 272 233 308 198 c 0,61,62
 344 164 344 164 344 115 c 0,63,64
 344 65 344 65 303 30 c 0,65,66
 261 -5 261 -5 203 -5 c 0,67,68
 134 -5 134 -5 86 50 c 0,69,70
 37 106 37 106 37 184 c 0,71,72
 37 273 37 273 110 337 c 0,73,74
 183 400 183 400 286 400 c 2,75,-1
 671 400 l 1,76,-1
 671 370 l 1,77,-1
 671 370 l 1,0,-1
269 119 m 1,78,79
 269 154 269 154 251 178 c 0,80,81
 234 203 234 203 209 203 c 0,82,83
 180 203 180 203 159 178 c 256,84,85
 138 153 138 153 138 117 c 0,86,87
 138 85 138 85 158 63 c 0,88,89
 178 40 178 40 206 40 c 0,90,91
 232 40 232 40 251 63 c 0,92,93
 269 86 269 86 269 119 c 1,94,-1
 269 119 l 1,78,79
EndSplineSet
EndChar

StartChar: uni0BF8
Encoding: 325 3064 70
Width: 1193
GlyphClass: 2
Flags: W
LayerCount: 2
Back
Fore
SplineSet
48 274 m 1,0,1
 48 410 48 410 116 507 c 0,2,3
 184 603 184 603 280 603 c 0,4,5
 374 603 374 603 445 519 c 256,6,7
 516 435 516 435 527 311 c 1,8,9
 545 319 545 319 583 319 c 0,10,11
 653 319 653 319 703 271 c 0,12,13
 752 222 752 222 752 154 c 0,14,15
 752 118 752 118 738 87 c 256,16,17
 724 56 724 56 698 37 c 1,18,-1
 927 37 l 1,19,20
 880 63 880 63 852 114 c 0,21,22
 825 166 825 166 825 228 c 0,23,24
 825 301 825 301 864 352 c 0,25,26
 902 404 902 404 957 404 c 0,27,28
 996 404 996 404 1023 368 c 0,29,30
 1051 331 1051 331 1051 280 c 2,31,-1
 1051 37 l 1,32,-1
 1186 37 l 1,33,-1
 1186 0 l 1,34,-1
 1051 0 l 1,35,-1
 1051 -209 l 1,36,-1
 976 -209 l 1,37,-1
 976 0 l 1,38,-1
 614 0 l 1,39,-1
 614 38 l 1,40,41
 643 51 643 51 660 83 c 256,42,43
 677 115 677 115 677 156 c 0,44,45
 677 211 677 211 647 250 c 256,46,47
 617 289 617 289 575 289 c 0,48,49
 556 289 556 289 533 281 c 1,50,51
 546 232 546 232 546 128 c 0,52,53
 546 75 546 75 518 37 c 0,54,55
 490 0 490 0 451 0 c 0,56,57
 417 0 417 0 394 34 c 0,58,59
 370 69 370 69 370 117 c 0,60,61
 370 171 370 171 394 217 c 256,62,63
 418 263 418 263 460 290 c 1,64,65
 442 407 442 407 387 483 c 0,66,67
 333 560 333 560 269 560 c 0,68,69
 190 560 190 560 134 477 c 256,70,71
 78 394 78 394 78 276 c 0,72,73
 78 203 78 203 94 148 c 0,74,75
 110 92 110 92 139 63 c 1,76,77
 125 93 125 93 125 134 c 0,78,79
 125 181 125 181 152 215 c 0,80,81
 179 248 179 248 218 248 c 0,82,83
 260 248 260 248 290 213 c 256,84,85
 320 178 320 178 320 129 c 0,86,87
 320 76 320 76 287 38 c 0,88,89
 253 0 253 0 206 0 c 0,90,91
 141 0 141 0 94 80 c 0,92,93
 48 161 48 161 48 274 c 1,94,-1
 48 274 l 1,0,1
245 118 m 1,95,96
 245 154 245 154 233 180 c 0,97,98
 221 205 221 205 204 205 c 0,99,100
 184 205 184 205 169 181 c 0,101,102
 155 158 155 158 155 124 c 0,103,104
 155 88 155 88 168 62 c 0,105,106
 180 37 180 37 198 37 c 0,107,108
 217 37 217 37 231 61 c 0,109,110
 245 84 245 84 245 118 c 1,111,-1
 245 118 l 1,95,96
471 125 m 1,112,-1
 471 152 l 2,113,114
 471 234 471 234 465 251 c 1,115,116
 435 231 435 231 417 195 c 0,117,118
 400 159 400 159 400 116 c 0,119,120
 400 83 400 83 411 60 c 0,121,122
 423 37 423 37 439 37 c 0,123,124
 452 37 452 37 462 63 c 0,125,126
 471 89 471 89 471 125 c 1,127,-1
 471 125 l 1,112,-1
976 41 m 1,128,-1
 976 286 l 2,129,130
 976 317 976 317 965 340 c 0,131,132
 953 362 953 362 937 362 c 0,133,134
 903 362 903 362 879 321 c 0,135,136
 855 279 855 279 855 221 c 0,137,138
 855 160 855 160 888 110 c 0,139,140
 922 61 922 61 976 41 c 1,141,-1
 976 41 l 1,128,-1
EndSplineSet
EndChar

StartChar: uni0BF9
Encoding: 326 3065 71
Width: 997
GlyphClass: 2
Flags: W
LayerCount: 2
Back
Fore
SplineSet
55 200 m 1,0,1
 55 366 55 366 164 484 c 0,2,3
 272 601 272 601 426 601 c 0,4,5
 523 601 523 601 595 561 c 0,6,7
 668 521 668 521 689 457 c 1,8,9
 700 490 700 490 728 511 c 0,10,11
 756 531 756 531 789 531 c 0,12,13
 843 531 843 531 882 497 c 0,14,15
 920 464 920 464 920 416 c 1,16,-1
 995 416 l 1,17,-1
 995 390 l 1,18,-1
 856 390 l 1,19,20
 856 436 856 436 835 468 c 0,21,22
 813 501 813 501 783 501 c 0,23,24
 757 501 757 501 736 475 c 256,25,26
 715 449 715 449 709 410 c 1,27,-1
 676 410 l 1,28,29
 665 480 665 480 594 525 c 0,30,31
 523 571 523 571 426 571 c 0,32,33
 303 571 303 571 217 462 c 0,34,35
 130 354 130 354 130 200 c 0,36,37
 130 36 130 36 210 -63 c 256,38,39
 290 -162 290 -162 423 -162 c 0,40,41
 520 -162 520 -162 588 -97 c 0,42,43
 657 -32 657 -32 657 60 c 0,44,45
 659 117 659 117 632 157 c 0,46,47
 606 198 606 198 567 198 c 0,48,49
 556 198 556 198 542 193 c 256,50,51
 528 188 528 188 514 178 c 1,52,-1
 514 0 l 1,53,-1
 439 0 l 1,54,-1
 439 370 l 1,55,-1
 292 370 l 1,56,-1
 292 0 l 1,57,-1
 262 0 l 1,58,-1
 262 400 l 1,59,-1
 639 400 l 1,60,-1
 639 370 l 1,61,-1
 514 370 l 1,62,-1
 514 214 l 1,63,64
 545 228 545 228 569 228 c 0,65,66
 637 228 637 228 684 178 c 0,67,68
 732 128 732 128 732 58 c 0,69,70
 732 -46 732 -46 641 -119 c 256,71,72
 550 -192 550 -192 422 -192 c 0,73,74
 255 -192 255 -192 155 -85 c 256,75,76
 55 22 55 22 55 200 c 1,77,-1
 55 200 l 1,0,1
EndSplineSet
EndChar

StartChar: uni0BFA
Encoding: 327 3066 72
Width: 1024
GlyphClass: 2
Flags: W
LayerCount: 2
Back
Fore
SplineSet
70 0 m 1,0,-1
 70 400 l 1,1,-1
 297 400 l 1,2,3
 276 418 276 418 264 442 c 256,4,5
 252 466 252 466 252 491 c 0,6,7
 252 539 252 539 308 572 c 0,8,9
 363 606 363 606 442 606 c 0,10,11
 553 606 553 606 636 547 c 0,12,13
 718 489 718 489 732 400 c 1,14,15
 811 400 811 400 867 347 c 0,16,17
 923 293 923 293 923 218 c 0,18,19
 923 151 923 151 886 99 c 0,20,21
 848 47 848 47 789 31 c 1,22,-1
 1018 31 l 1,23,-1
 1018 0 l 1,24,-1
 665 0 l 1,25,-1
 665 29 l 1,26,27
 741 29 741 29 794 82 c 0,28,29
 848 136 848 136 848 211 c 0,30,31
 848 277 848 277 815 323 c 0,32,33
 782 370 782 370 736 370 c 1,34,35
 745 331 745 331 745 287 c 0,36,37
 745 233 745 233 715 195 c 256,38,39
 685 157 685 157 642 157 c 0,40,41
 596 157 596 157 564 192 c 256,42,43
 532 227 532 227 532 277 c 0,44,45
 532 328 532 328 581 364 c 256,46,47
 630 400 630 400 699 400 c 1,48,49
 683 469 683 469 615 513 c 0,50,51
 546 557 546 557 455 557 c 0,52,53
 391 557 391 557 346 528 c 256,54,55
 301 499 301 499 301 458 c 0,56,57
 301 440 301 440 308 425 c 0,58,59
 314 410 314 410 326 400 c 1,60,-1
 502 400 l 1,61,-1
 502 370 l 1,62,-1
 317 370 l 1,63,-1
 317 236 l 1,64,65
 334 249 334 249 352 255 c 0,66,67
 370 262 370 262 388 262 c 0,68,69
 441 262 441 262 479 226 c 256,70,71
 517 190 517 190 517 139 c 0,72,73
 517 81 517 81 480 41 c 0,74,75
 444 0 444 0 392 0 c 2,76,-1
 242 0 l 1,77,-1
 242 31 l 1,78,-1
 348 31 l 2,79,80
 387 31 387 31 414 63 c 0,81,82
 442 94 442 94 442 139 c 0,83,84
 442 178 442 178 422 205 c 256,85,86
 402 232 402 232 374 232 c 0,87,88
 354 232 354 232 339 222 c 0,89,90
 323 212 323 212 317 195 c 1,91,-1
 317 106 l 1,92,-1
 242 106 l 1,93,-1
 242 370 l 1,94,-1
 100 370 l 1,95,-1
 100 0 l 1,96,-1
 70 0 l 1,97,-1
 70 0 l 1,0,-1
715 285 m 1,98,99
 715 348 715 348 704 370 c 1,100,101
 664 370 664 370 635 343 c 0,102,103
 607 316 607 316 607 278 c 0,104,105
 607 250 607 250 621 230 c 256,106,107
 635 210 635 210 655 210 c 0,108,109
 680 210 680 210 697 232 c 0,110,111
 715 254 715 254 715 285 c 1,112,-1
 715 285 l 1,98,99
EndSplineSet
EndChar

StartChar: uni0964
Encoding: 328 2404 73
Width: 285
GlyphClass: 2
Flags: W
LayerCount: 2
Back
Fore
SplineSet
215 0 m 1,0,-1
 140 0 l 1,1,-1
 140 400 l 1,2,-1
 215 400 l 1,3,-1
 215 0 l 1,4,-1
 215 0 l 1,0,-1
EndSplineSet
EndChar

StartChar: uni0965
Encoding: 329 2405 74
Width: 461
GlyphClass: 2
Flags: W
LayerCount: 2
Back
Fore
SplineSet
391 0 m 1,0,-1
 316 0 l 1,1,-1
 316 400 l 1,2,-1
 391 400 l 1,3,-1
 391 0 l 1,4,-1
 391 0 l 1,0,-1
215 0 m 1,5,-1
 140 0 l 1,6,-1
 140 400 l 1,7,-1
 215 400 l 1,8,-1
 215 0 l 1,9,-1
 215 0 l 1,5,-1
EndSplineSet
EndChar

StartChar: uni0BB6
Encoding: 330 2998 75
Width: 731
GlyphClass: 2
Flags: W
LayerCount: 2
Back
Fore
SplineSet
63 115 m 1,0,-1
 63 400 l 1,1,-1
 93 400 l 1,2,-1
 93 115 l 2,3,4
 93 87 93 87 114 67 c 0,5,6
 134 47 134 47 163 47 c 256,7,8
 192 47 192 47 213 67 c 256,9,10
 234 87 234 87 234 115 c 2,11,-1
 234 400 l 1,12,-1
 668 400 l 1,13,-1
 668 116 l 2,14,15
 668 68 668 68 631 34 c 256,16,17
 594 0 594 0 541 0 c 0,18,19
 492 0 492 0 457 34 c 256,20,21
 422 68 422 68 422 116 c 2,22,-1
 422 370 l 1,23,-1
 309 370 l 1,24,-1
 309 118 l 2,25,26
 309 69 309 69 272 35 c 0,27,28
 235 0 235 0 183 0 c 0,29,30
 133 0 133 0 98 34 c 0,31,32
 63 67 63 67 63 115 c 1,33,-1
 63 115 l 1,0,-1
452 370 m 1,34,-1
 452 116 l 2,35,36
 452 87 452 87 473 67 c 0,37,38
 493 47 493 47 522 47 c 256,39,40
 551 47 551 47 572 67 c 256,41,42
 593 87 593 87 593 116 c 2,43,-1
 593 370 l 1,44,-1
 452 370 l 1,45,-1
 452 370 l 1,34,-1
EndSplineSet
EndChar

StartChar: uni0BD0
Encoding: 331 3024 76
Width: 721
GlyphClass: 2
Flags: W
LayerCount: 2
Back
Fore
SplineSet
37 156 m 0,0,1
 37 266 37 266 121 333 c 0,2,3
 206 399 206 399 346 399 c 0,4,5
 500 399 500 399 593 332 c 256,6,7
 686 265 686 265 686 154 c 0,8,9
 686 94 686 94 644 51 c 256,10,11
 602 8 602 8 543 8 c 0,12,13
 503 8 503 8 475 37 c 0,14,15
 447 67 447 67 447 108 c 2,16,-1
 447 131 l 1,17,18
 431 120 431 120 423 96 c 0,19,20
 414 72 414 72 414 40 c 0,21,22
 414 -7 414 -7 460 -41 c 0,23,24
 507 -74 507 -74 572 -74 c 2,25,-1
 666 -74 l 1,26,-1
 666 -104 l 1,27,-1
 528 -104 l 2,28,29
 504 -104 504 -104 486 -125 c 0,30,31
 469 -146 469 -146 469 -176 c 0,32,33
 469 -224 469 -224 408 -253 c 0,34,35
 346 -282 346 -282 244 -282 c 0,36,37
 147 -282 147 -282 89 -240 c 0,38,39
 31 -199 31 -199 31 -130 c 0,40,41
 31 -97 31 -97 48 -73 c 0,42,43
 65 -50 65 -50 89 -50 c 0,44,45
 110 -50 110 -50 124 -65 c 0,46,47
 139 -79 139 -79 139 -100 c 2,48,-1
 139 -153 l 1,49,-1
 233 -153 l 1,50,-1
 233 -111 l 2,51,52
 233 -89 233 -89 252 -74 c 256,53,54
 271 -59 271 -59 298 -59 c 0,55,56
 326 -59 326 -59 346 -75 c 256,57,58
 366 -91 366 -91 366 -113 c 2,59,-1
 366 -183 l 1,60,-1
 109 -183 l 1,61,-1
 109 -105 l 2,62,63
 109 -95 109 -95 103 -87 c 0,64,65
 97 -80 97 -80 89 -80 c 0,66,67
 77 -80 77 -80 69 -94 c 0,68,69
 61 -109 61 -109 61 -129 c 0,70,71
 61 -185 61 -185 111 -218 c 0,72,73
 162 -252 162 -252 245 -252 c 0,74,75
 313 -252 313 -252 353 -228 c 0,76,77
 394 -204 394 -204 394 -164 c 0,78,79
 394 -129 394 -129 420 -105 c 0,80,81
 446 -80 446 -80 483 -80 c 1,82,83
 439 -68 439 -68 412 -34 c 0,84,85
 384 0 384 0 384 43 c 0,86,87
 384 99 384 99 418 138 c 0,88,89
 451 178 451 178 499 178 c 1,90,91
 488 165 488 165 483 148 c 0,92,93
 477 130 477 130 477 109 c 0,94,95
 477 80 477 80 496 59 c 0,96,97
 516 38 516 38 543 38 c 0,98,99
 571 38 571 38 591 72 c 0,100,101
 611 105 611 105 611 153 c 0,102,103
 611 237 611 237 532 296 c 256,104,105
 453 355 453 355 341 355 c 0,106,107
 228 355 228 355 147 297 c 0,108,109
 67 238 67 238 67 156 c 0,110,111
 67 113 67 113 89 78 c 0,112,113
 110 43 110 43 147 28 c 1,114,115
 134 41 134 41 127 61 c 0,116,117
 119 81 119 81 119 105 c 0,118,119
 119 148 119 148 148 178 c 0,120,121
 176 208 176 208 217 208 c 0,122,123
 263 208 263 208 296 176 c 0,124,125
 329 145 329 145 329 100 c 0,126,127
 329 54 329 54 293 22 c 256,128,129
 257 -10 257 -10 206 -10 c 0,130,131
 136 -10 136 -10 86 39 c 0,132,133
 37 87 37 87 37 156 c 0,0,1
254 104 m 0,134,135
 254 135 254 135 241 156 c 0,136,137
 228 178 228 178 209 178 c 0,138,139
 184 178 184 178 167 157 c 0,140,141
 149 136 149 136 149 106 c 0,142,143
 149 70 149 70 162 45 c 0,144,145
 176 20 176 20 195 20 c 0,146,147
 219 20 219 20 237 45 c 0,148,149
 254 69 254 69 254 104 c 0,134,135
362 -9 m 256,150,151
 362 -22 362 -22 352 -32 c 0,152,153
 343 -41 343 -41 329 -41 c 0,154,155
 312 -41 312 -41 299 -31 c 0,156,157
 287 -22 287 -22 287 -8 c 0,158,159
 287 5 287 5 299 14 c 0,160,161
 312 23 312 23 329 23 c 0,162,163
 343 23 343 23 352 14 c 0,164,165
 362 4 362 4 362 -9 c 256,150,151
322 -109 m 2,166,167
 322 -101 322 -101 314 -95 c 0,168,169
 307 -89 307 -89 296 -89 c 0,170,171
 288 -89 288 -89 283 -95 c 0,172,173
 277 -101 277 -101 277 -109 c 2,174,-1
 277 -153 l 1,175,-1
 322 -153 l 1,176,-1
 322 -109 l 2,166,167
EndSplineSet
EndChar

StartChar: uni20B9
Encoding: 332 8377 77
Width: 557
GlyphClass: 2
Flags: W
LayerCount: 2
Back
Fore
SplineSet
70 450 m 1,0,-1
 70 480 l 1,1,-1
 487 480 l 1,2,-1
 487 450 l 1,3,-1
 281 450 l 1,4,5
 312 433 312 433 332 406 c 0,6,7
 351 380 351 380 354 349 c 1,8,-1
 487 349 l 1,9,-1
 487 318 l 1,10,-1
 351 318 l 1,11,12
 343 267 343 267 289 233 c 0,13,14
 234 199 234 199 160 199 c 1,15,16
 201 121 201 121 257 75 c 0,17,18
 312 30 312 30 366 30 c 0,19,20
 383 30 383 30 401 37 c 0,21,22
 419 43 419 43 436 56 c 1,23,-1
 453 35 l 1,24,25
 435 15 435 15 404 4 c 256,26,27
 373 -7 373 -7 335 -7 c 0,28,29
 258 -7 258 -7 187 52 c 0,30,31
 115 110 115 110 74 208 c 1,32,-1
 74 223 l 1,33,34
 149 223 149 223 203 250 c 0,35,36
 257 276 257 276 267 318 c 1,37,-1
 70 318 l 1,38,-1
 70 349 l 1,39,-1
 269 349 l 1,40,41
 265 392 265 392 241 421 c 256,42,43
 217 450 217 450 185 450 c 2,44,-1
 70 450 l 1,45,-1
 70 450 l 1,0,-1
EndSplineSet
EndChar

StartChar: uni0B95_uni0BBF
Encoding: 333 -1 78
Width: 702
GlyphClass: 2
Flags: W
LayerCount: 2
Back
Fore
SplineSet
547 114 m 1,0,1
 547 53 547 53 513 26 c 0,2,3
 479 0 479 0 400 0 c 1,4,-1
 400 30 l 1,5,6
 440 30 440 30 456 48 c 0,7,8
 472 67 472 67 472 113 c 0,9,10
 472 149 472 149 462 167 c 0,11,12
 453 185 453 185 434 185 c 2,13,-1
 368 185 l 1,14,-1
 368 131 l 2,15,16
 368 65 368 65 319 32 c 0,17,18
 270 -2 270 -2 173 -2 c 0,19,20
 116 -2 116 -2 76 38 c 256,21,22
 36 78 36 78 36 134 c 0,23,24
 36 171 36 171 62 193 c 0,25,26
 87 215 87 215 130 215 c 1,27,28
 99 249 99 249 83 294 c 0,29,30
 66 339 66 339 66 388 c 0,31,32
 66 512 66 512 143 586 c 0,33,34
 221 661 221 661 349 661 c 256,35,36
 477 661 477 661 555 583 c 0,37,38
 632 504 632 504 632 374 c 2,39,-1
 632 0 l 1,40,-1
 602 0 l 1,41,-1
 602 375 l 2,42,43
 602 466 602 466 528 530 c 256,44,45
 454 594 454 594 349 594 c 256,46,47
 244 594 244 594 170 531 c 0,48,49
 96 467 96 467 96 378 c 0,50,51
 96 336 96 336 111 295 c 256,52,53
 126 254 126 254 155 219 c 1,54,-1
 155 400 l 1,55,-1
 501 400 l 1,56,-1
 501 370 l 1,57,-1
 368 370 l 1,58,-1
 368 215 l 1,59,-1
 467 215 l 2,60,61
 503 215 503 215 525 187 c 0,62,63
 547 160 547 160 547 114 c 1,64,-1
 547 114 l 1,0,1
293 215 m 1,65,-1
 293 370 l 1,66,-1
 185 370 l 1,67,-1
 185 215 l 1,68,-1
 293 215 l 1,69,-1
 293 215 l 1,65,-1
293 138 m 1,70,-1
 293 185 l 1,71,-1
 124 185 l 2,72,73
 98 185 98 185 82 171 c 0,74,75
 66 158 66 158 66 135 c 0,76,77
 66 86 66 86 95 57 c 0,78,79
 125 28 125 28 174 28 c 256,80,81
 223 28 223 28 258 60 c 256,82,83
 293 92 293 92 293 138 c 1,84,-1
 293 138 l 1,70,-1
EndSplineSet
Ligature2: "'abvs' Above Base Substitutions in Tamil lookup 2 subtable" uni0B95 uni0BBF
EndChar

StartChar: uni0B99_uni0BBF
Encoding: 334 -1 79
Width: 913
GlyphClass: 2
Flags: W
LayerCount: 2
Back
Fore
SplineSet
699 0 m 1,0,-1
 246 0 l 1,1,-1
 246 30 l 1,2,-1
 397 30 l 1,3,4
 427 47 427 47 444 76 c 0,5,6
 461 104 461 104 461 137 c 0,7,8
 461 180 461 180 437 210 c 256,9,10
 413 240 413 240 379 240 c 0,11,12
 362 240 362 240 347 233 c 0,13,14
 332 227 332 227 321 215 c 1,15,-1
 321 110 l 1,16,-1
 246 110 l 1,17,-1
 246 370 l 1,18,-1
 100 370 l 1,19,-1
 100 0 l 1,20,-1
 70 0 l 1,21,-1
 70 400 l 1,22,-1
 434 400 l 1,23,-1
 434 370 l 1,24,-1
 321 370 l 1,25,-1
 321 247 l 1,26,27
 337 258 337 258 359 264 c 256,28,29
 381 270 381 270 407 270 c 0,30,31
 466 270 466 270 501 234 c 0,32,33
 536 197 536 197 536 137 c 0,34,35
 536 103 536 103 514 74 c 0,36,37
 493 44 493 44 457 30 c 1,38,-1
 624 30 l 1,39,-1
 624 308 l 1,40,41
 575 317 575 317 543 361 c 0,42,43
 511 406 511 406 511 465 c 0,44,45
 511 550 511 550 559 605 c 0,46,47
 607 661 607 661 680 661 c 0,48,49
 757 661 757 661 800 604 c 0,50,51
 843 548 843 548 843 446 c 2,52,-1
 843 0 l 1,53,-1
 813 0 l 1,54,-1
 813 434 l 2,55,56
 813 507 813 507 777 550 c 0,57,58
 740 594 740 594 680 594 c 0,59,60
 617 594 617 594 579 557 c 0,61,62
 541 519 541 519 541 457 c 0,63,64
 541 413 541 413 567 376 c 256,65,66
 593 339 593 339 624 339 c 1,67,-1
 624 400 l 1,68,-1
 699 400 l 1,69,-1
 699 0 l 1,70,-1
 699 0 l 1,0,-1
EndSplineSet
Ligature2: "'abvs' Above Base Substitutions in Tamil lookup 2 subtable" uni0B99 uni0BBF
EndChar

StartChar: uni0B9A_uni0BBF
Encoding: 335 -1 80
Width: 647
GlyphClass: 2
Flags: W
LayerCount: 2
Back
Fore
SplineSet
496 185 m 1,0,-1
 371 185 l 1,1,-1
 371 137 l 2,2,3
 371 69 371 69 327 35 c 0,4,5
 283 0 283 0 196 0 c 0,6,7
 125 0 125 0 82 37 c 0,8,9
 39 75 39 75 39 137 c 0,10,11
 39 172 39 172 65 194 c 0,12,13
 91 215 91 215 134 215 c 1,14,15
 101 235 101 235 82 281 c 0,16,17
 63 328 63 328 63 389 c 0,18,19
 63 512 63 512 133 587 c 0,20,21
 203 661 203 661 320 661 c 0,22,23
 447 661 447 661 512 588 c 0,24,25
 577 514 577 514 577 370 c 2,26,-1
 577 0 l 1,27,-1
 547 0 l 1,28,-1
 547 370 l 2,29,30
 547 472 547 472 485 533 c 256,31,32
 423 594 423 594 320 594 c 256,33,34
 217 594 217 594 155 536 c 0,35,36
 93 477 93 477 93 380 c 0,37,38
 93 327 93 327 108 287 c 0,39,40
 122 247 122 247 148 230 c 1,41,-1
 148 400 l 1,42,-1
 496 400 l 1,43,-1
 496 370 l 1,44,-1
 371 370 l 1,45,-1
 371 215 l 1,46,-1
 496 215 l 1,47,-1
 496 185 l 1,48,-1
 496 185 l 1,0,-1
296 215 m 1,49,-1
 296 370 l 1,50,-1
 178 370 l 1,51,-1
 178 215 l 1,52,-1
 296 215 l 1,53,-1
 296 215 l 1,49,-1
296 137 m 1,54,-1
 296 185 l 1,55,-1
 127 185 l 2,56,57
 101 185 101 185 85 172 c 256,58,59
 69 159 69 159 69 137 c 0,60,61
 69 88 69 88 104 59 c 256,62,63
 139 30 139 30 197 30 c 0,64,65
 242 30 242 30 269 59 c 256,66,67
 296 88 296 88 296 137 c 1,68,-1
 296 137 l 1,54,-1
EndSplineSet
Ligature2: "'abvs' Above Base Substitutions in Tamil lookup 2 subtable" uni0B9A uni0BBF
EndChar

StartChar: uni0B9C_uni0BBF
Encoding: 336 -1 81
Width: 900
GlyphClass: 2
Flags: W
LayerCount: 2
Back
Fore
SplineSet
830 0 m 1,0,-1
 800 0 l 1,1,-1
 800 477 l 2,2,3
 800 525 800 525 758 560 c 0,4,5
 715 594 715 594 655 594 c 0,6,7
 601 594 601 594 562 561 c 0,8,9
 524 528 524 528 524 482 c 256,10,11
 524 436 524 436 540 402 c 1,12,13
 601 397 601 397 643 347 c 0,14,15
 684 296 684 296 684 228 c 0,16,17
 684 154 684 154 623 102 c 0,18,19
 563 50 563 50 477 50 c 2,20,-1
 215 50 l 2,21,22
 167 50 167 50 134 17 c 0,23,24
 100 -17 100 -17 100 -64 c 0,25,26
 100 -115 100 -115 131 -152 c 0,27,28
 162 -188 162 -188 205 -188 c 0,29,30
 234 -188 234 -188 273 -162 c 0,31,32
 313 -136 313 -136 358 -88 c 0,33,34
 399 -44 399 -44 447 -20 c 0,35,36
 494 4 494 4 541 4 c 0,37,38
 606 4 606 4 645 -28 c 256,39,40
 684 -60 684 -60 684 -114 c 0,41,42
 684 -166 684 -166 644 -197 c 0,43,44
 605 -228 605 -228 539 -228 c 0,45,46
 504 -228 504 -228 473 -216 c 0,47,48
 442 -203 442 -203 421 -181 c 1,49,-1
 436 -157 l 1,50,51
 459 -177 459 -177 485 -187 c 0,52,53
 512 -198 512 -198 539 -198 c 0,54,55
 568 -198 568 -198 588 -173 c 0,56,57
 609 -148 609 -148 609 -113 c 0,58,59
 609 -77 609 -77 586 -51 c 0,60,61
 563 -26 563 -26 531 -26 c 0,62,63
 463 -26 463 -26 366 -122 c 256,64,65
 269 -218 269 -218 201 -218 c 0,66,67
 121 -218 121 -218 73 -176 c 256,68,69
 25 -134 25 -134 25 -64 c 0,70,71
 25 -4 25 -4 79 38 c 256,72,73
 133 80 133 80 210 80 c 2,74,-1
 478 80 l 2,75,76
 532 80 532 80 571 124 c 0,77,78
 609 168 609 168 609 231 c 0,79,80
 609 288 609 288 580 328 c 0,81,82
 552 368 552 368 511 368 c 0,83,84
 475 368 475 368 449 340 c 0,85,86
 423 311 423 311 423 271 c 2,87,-1
 423 138 l 1,88,-1
 348 138 l 1,89,-1
 348 259 l 2,90,91
 348 304 348 304 301 336 c 0,92,93
 255 368 255 368 189 368 c 0,94,95
 137 368 137 368 101 337 c 0,96,97
 64 306 64 306 64 262 c 0,98,99
 64 219 64 219 84 188 c 256,100,101
 104 157 104 157 133 154 c 1,102,103
 116 160 116 160 106 180 c 0,104,105
 96 201 96 201 96 229 c 0,106,107
 96 273 96 273 121 299 c 256,108,109
 146 325 146 325 188 325 c 256,110,111
 230 325 230 325 255 298 c 0,112,113
 280 270 280 270 280 225 c 0,114,115
 280 181 280 181 249 154 c 0,116,117
 219 127 219 127 168 127 c 0,118,119
 107 127 107 127 71 163 c 0,120,121
 34 199 34 199 34 258 c 0,122,123
 34 316 34 316 85 357 c 0,124,125
 135 398 135 398 207 398 c 0,126,127
 273 398 273 398 324 377 c 0,128,129
 374 356 374 356 397 320 c 1,130,131
 409 353 409 353 439 375 c 256,132,133
 469 397 469 397 508 402 c 1,134,135
 494 445 494 445 494 487 c 0,136,137
 494 559 494 559 543 610 c 0,138,139
 591 661 591 661 660 661 c 0,140,141
 730 661 730 661 780 608 c 0,142,143
 830 554 830 554 830 479 c 2,144,-1
 830 0 l 1,145,-1
 830 0 l 1,0,-1
217 225 m 1,146,147
 217 254 217 254 204 274 c 0,148,149
 191 295 191 295 173 295 c 0,150,151
 154 295 154 295 140 276 c 0,152,153
 126 256 126 256 126 229 c 0,154,155
 126 199 126 199 139 178 c 256,156,157
 152 157 152 157 170 157 c 0,158,159
 189 157 189 157 203 177 c 256,160,161
 217 197 217 197 217 225 c 1,162,-1
 217 225 l 1,146,147
EndSplineSet
Ligature2: "'abvs' Above Base Substitutions in Tamil lookup 2 subtable" uni0B9C uni0BBF
EndChar

StartChar: uni0B9E_uni0BBF
Encoding: 337 -1 82
Width: 1091
GlyphClass: 2
Flags: W
LayerCount: 2
Back
Fore
SplineSet
898 88 m 1,0,1
 898 -77 898 -77 780 -168 c 0,2,3
 661 -259 661 -259 448 -259 c 0,4,5
 274 -259 274 -259 160 -150 c 256,6,7
 46 -41 46 -41 46 126 c 0,8,9
 46 200 46 200 75 270 c 256,10,11
 104 340 104 340 157 395 c 1,12,-1
 177 373 l 1,13,14
 128 321 128 321 102 257 c 0,15,16
 76 192 76 192 76 125 c 0,17,18
 76 -28 76 -28 181 -129 c 0,19,20
 287 -229 287 -229 448 -229 c 0,21,22
 618 -229 618 -229 713 -145 c 0,23,24
 807 -62 807 -62 807 89 c 0,25,26
 807 141 807 141 781 178 c 256,27,28
 755 215 755 215 718 215 c 0,29,30
 710 215 710 215 700 211 c 256,31,32
 690 207 690 207 680 200 c 1,33,-1
 680 0 l 1,34,-1
 605 0 l 1,35,-1
 605 370 l 1,36,-1
 435 370 l 2,37,38
 344 370 344 370 279 316 c 0,39,40
 215 262 215 262 215 185 c 0,41,42
 215 139 215 139 232 103 c 0,43,44
 248 67 248 67 277 50 c 1,45,46
 267 62 267 62 261 79 c 0,47,48
 256 96 256 96 256 115 c 0,49,50
 256 169 256 169 285 201 c 0,51,52
 315 233 315 233 364 233 c 0,53,54
 423 233 423 233 458 201 c 256,55,56
 493 169 493 169 493 115 c 256,57,58
 493 61 493 61 454 29 c 0,59,60
 416 -3 416 -3 352 -3 c 0,61,62
 276 -3 276 -3 231 48 c 0,63,64
 185 100 185 100 185 185 c 0,65,66
 185 278 185 278 256 339 c 0,67,68
 328 400 328 400 437 400 c 2,69,-1
 618 400 l 1,70,71
 598 436 598 436 598 481 c 0,72,73
 598 556 598 556 657 608 c 0,74,75
 716 661 716 661 800 661 c 0,76,77
 914 661 914 661 967 596 c 0,78,79
 1021 532 1021 532 1021 394 c 2,80,-1
 1021 0 l 1,81,-1
 991 0 l 1,82,-1
 991 397 l 2,83,84
 991 495 991 495 942 544 c 0,85,86
 893 594 893 594 797 594 c 0,87,88
 727 594 727 594 677 559 c 0,89,90
 628 524 628 524 628 474 c 0,91,92
 628 453 628 453 635 434 c 0,93,94
 643 414 643 414 656 400 c 1,95,-1
 801 400 l 1,96,-1
 801 370 l 1,97,-1
 680 370 l 1,98,-1
 680 228 l 1,99,100
 711 242 711 242 732 242 c 0,101,102
 807 242 807 242 853 200 c 0,103,104
 898 158 898 158 898 88 c 1,105,-1
 898 88 l 1,0,1
418 119 m 1,106,107
 418 152 418 152 399 175 c 0,108,109
 379 198 379 198 352 198 c 256,110,111
 325 198 325 198 305 174 c 0,112,113
 286 151 286 151 286 117 c 0,114,115
 286 86 286 86 305 64 c 0,116,117
 325 42 325 42 352 42 c 256,118,119
 379 42 379 42 399 65 c 0,120,121
 418 87 418 87 418 119 c 1,122,-1
 418 119 l 1,106,107
EndSplineSet
Ligature2: "'abvs' Above Base Substitutions in Tamil lookup 2 subtable" uni0B9E uni0BBF
EndChar

StartChar: uni0B9F_uni0BBF
Encoding: 338 -1 83
Width: 750
GlyphClass: 2
Flags: W
LayerCount: 2
Back
Fore
SplineSet
745 0 m 1,0,-1
 541 0 l 1,1,-1
 541 -231 l 1,2,-1
 466 -231 l 1,3,-1
 466 0 l 1,4,-1
 70 0 l 1,5,-1
 70 400 l 1,6,-1
 145 400 l 1,7,-1
 145 30 l 1,8,-1
 414 30 l 1,9,10
 369 51 369 51 342 101 c 0,11,12
 315 150 315 150 315 213 c 0,13,14
 315 292 315 292 348 336 c 256,15,16
 381 380 381 380 441 380 c 0,17,18
 482 380 482 380 512 350 c 0,19,20
 541 320 541 320 541 278 c 2,21,-1
 541 30 l 1,22,-1
 745 30 l 1,23,-1
 745 0 l 1,24,-1
 745 0 l 1,0,-1
466 32 m 1,25,-1
 466 282 l 2,26,27
 466 313 466 313 453 331 c 0,28,29
 439 350 439 350 417 350 c 0,30,31
 387 350 387 350 366 310 c 0,32,33
 345 271 345 271 345 215 c 0,34,35
 345 156 345 156 378 106 c 0,36,37
 411 57 411 57 466 32 c 1,38,-1
 466 32 l 1,25,-1
EndSplineSet
Ligature2: "'abvs' Above Base Substitutions in Tamil lookup 2 subtable" uni0B9F uni0BBF
EndChar

StartChar: uni0BA3_uni0BBF
Encoding: 339 -1 84
Width: 1336
GlyphClass: 2
Flags: W
LayerCount: 2
Back
Fore
SplineSet
39 173 m 1,0,1
 39 276 39 276 111 337 c 0,2,3
 183 399 183 399 302 399 c 0,4,5
 367 399 367 399 417 386 c 0,6,7
 467 374 467 374 495 350 c 1,8,9
 523 374 523 374 560 386 c 0,10,11
 598 399 598 399 639 399 c 0,12,13
 685 399 685 399 722 388 c 0,14,15
 760 377 760 377 785 357 c 1,16,17
 842 400 842 400 906 400 c 2,18,-1
 997 400 l 1,19,20
 975 440 975 440 975 490 c 0,21,22
 975 568 975 568 1014 614 c 0,23,24
 1053 661 1053 661 1118 661 c 0,25,26
 1191 661 1191 661 1229 602 c 0,27,28
 1266 543 1266 543 1266 428 c 2,29,-1
 1266 0 l 1,30,-1
 1236 0 l 1,31,-1
 1236 402 l 2,32,33
 1236 497 1236 497 1206 546 c 0,34,35
 1176 594 1176 594 1118 594 c 0,36,37
 1067 594 1067 594 1036 565 c 0,38,39
 1005 535 1005 535 1005 486 c 0,40,41
 1005 434 1005 434 1029 400 c 1,42,-1
 1169 400 l 1,43,-1
 1169 369 l 1,44,-1
 1061 369 l 1,45,-1
 1061 0 l 1,46,-1
 986 0 l 1,47,-1
 986 369 l 1,48,-1
 928 369 l 2,49,50
 891 369 891 369 861 360 c 0,51,52
 830 352 830 352 809 335 c 1,53,54
 850 295 850 295 873 244 c 0,55,56
 895 192 895 192 895 137 c 0,57,58
 895 72 895 72 866 33 c 256,59,60
 837 -6 837 -6 789 -6 c 0,61,62
 740 -6 740 -6 710 33 c 256,63,64
 680 72 680 72 680 137 c 0,65,66
 680 186 680 186 696 232 c 0,67,68
 713 278 713 278 744 315 c 1,69,70
 722 341 722 341 693 355 c 256,71,72
 664 369 664 369 633 369 c 256,73,74
 602 369 602 369 574 359 c 256,75,76
 546 349 546 349 523 330 c 1,77,78
 566 291 566 291 589 241 c 0,79,80
 613 190 613 190 613 137 c 0,81,82
 613 72 613 72 581 33 c 256,83,84
 549 -6 549 -6 496 -6 c 0,85,86
 445 -6 445 -6 414 33 c 256,87,88
 383 72 383 72 383 137 c 0,89,90
 383 185 383 185 401 230 c 0,91,92
 420 275 420 275 454 312 c 1,93,94
 423 340 423 340 379 354 c 0,95,96
 336 369 336 369 284 369 c 0,97,98
 195 369 195 369 132 312 c 256,99,100
 69 255 69 255 69 175 c 0,101,102
 69 125 69 125 88 88 c 0,103,104
 106 51 106 51 137 39 c 1,105,106
 124 54 124 54 118 74 c 0,107,108
 111 95 111 95 111 118 c 0,109,110
 111 168 111 168 139 199 c 0,111,112
 166 229 166 229 212 229 c 0,113,114
 257 229 257 229 289 197 c 256,115,116
 321 165 321 165 321 120 c 0,117,118
 321 63 321 63 285 28 c 0,119,120
 250 -6 250 -6 191 -6 c 0,121,122
 128 -6 128 -6 84 46 c 0,123,124
 39 99 39 99 39 173 c 1,125,-1
 39 173 l 1,0,1
820 137 m 1,126,127
 820 181 820 181 806 220 c 0,128,129
 792 260 792 260 765 288 c 1,130,131
 739 261 739 261 724 221 c 0,132,133
 710 182 710 182 710 137 c 0,134,135
 710 98 710 98 727 71 c 256,136,137
 744 44 744 44 768 44 c 0,138,139
 790 44 790 44 805 71 c 256,140,141
 820 98 820 98 820 137 c 1,142,-1
 820 137 l 1,126,127
538 137 m 1,143,144
 538 179 538 179 522 219 c 0,145,146
 507 258 507 258 478 289 c 1,147,148
 447 254 447 254 430 215 c 256,149,150
 413 176 413 176 413 137 c 256,151,152
 413 98 413 98 431 71 c 256,153,154
 449 44 449 44 474 44 c 0,155,156
 501 44 501 44 519 71 c 0,157,158
 538 98 538 98 538 137 c 1,159,-1
 538 137 l 1,143,144
246 118 m 1,160,161
 246 147 246 147 230 168 c 256,162,163
 214 189 214 189 192 189 c 0,164,165
 171 189 171 189 156 168 c 256,166,167
 141 147 141 147 141 117 c 256,168,169
 141 87 141 87 156 65 c 0,170,171
 171 44 171 44 193 44 c 256,172,173
 215 44 215 44 230 66 c 0,174,175
 246 87 246 87 246 118 c 1,176,-1
 246 118 l 1,160,161
EndSplineSet
Ligature2: "'abvs' Above Base Substitutions in Tamil lookup 2 subtable" uni0BA3 uni0BBF
EndChar

StartChar: uni0BA4_uni0BBF
Encoding: 340 -1 85
Width: 710
GlyphClass: 2
Flags: W
LayerCount: 2
Back
Fore
SplineSet
546 85 m 1,0,1
 546 2 546 2 488 -48 c 256,2,3
 430 -98 430 -98 333 -98 c 2,4,-1
 102 -98 l 2,5,6
 76 -98 76 -98 57 -109 c 0,7,8
 39 -121 39 -121 39 -137 c 1,9,-1
 54 -135 l 2,10,11
 71 -135 71 -135 83 -148 c 0,12,13
 95 -160 95 -160 95 -178 c 256,14,15
 95 -196 95 -196 81 -209 c 256,16,17
 67 -222 67 -222 48 -222 c 0,18,19
 28 -222 28 -222 13 -206 c 0,20,21
 -1 -191 -1 -191 -1 -169 c 0,22,23
 -1 -127 -1 -127 30 -98 c 0,24,25
 62 -68 62 -68 106 -68 c 2,26,-1
 337 -68 l 2,27,28
 393 -68 393 -68 432 -22 c 0,29,30
 471 23 471 23 471 88 c 0,31,32
 471 128 471 128 452 157 c 0,33,34
 432 185 432 185 405 185 c 2,35,-1
 366 185 l 1,36,-1
 366 137 l 2,37,38
 366 68 366 68 317 33 c 256,39,40
 268 -2 268 -2 171 -2 c 0,41,42
 114 -2 114 -2 74 39 c 0,43,44
 34 79 34 79 34 137 c 0,45,46
 34 172 34 172 60 194 c 0,47,48
 86 215 86 215 129 215 c 1,49,50
 101 241 101 241 86 286 c 256,51,52
 71 331 71 331 71 388 c 0,53,54
 71 512 71 512 150 586 c 0,55,56
 229 661 229 661 361 661 c 256,57,58
 493 661 493 661 567 584 c 0,59,60
 640 508 640 508 640 369 c 2,61,-1
 640 0 l 1,62,-1
 610 0 l 1,63,-1
 610 375 l 2,64,65
 610 461 610 461 533 527 c 0,66,67
 456 594 456 594 356 594 c 0,68,69
 240 594 240 594 171 535 c 0,70,71
 101 476 101 476 101 378 c 0,72,73
 101 327 101 327 115 288 c 0,74,75
 128 249 128 249 153 229 c 1,76,-1
 153 400 l 1,77,-1
 500 400 l 1,78,-1
 500 370 l 1,79,-1
 366 370 l 1,80,-1
 366 215 l 1,81,-1
 416 215 l 2,82,83
 470 215 470 215 508 177 c 256,84,85
 546 139 546 139 546 85 c 1,86,-1
 546 85 l 1,0,1
291 215 m 1,87,-1
 291 370 l 1,88,-1
 183 370 l 1,89,-1
 183 215 l 1,90,-1
 291 215 l 1,91,-1
 291 215 l 1,87,-1
291 137 m 1,92,-1
 291 185 l 1,93,-1
 122 185 l 2,94,95
 98 185 98 185 81 171 c 256,96,97
 64 157 64 157 64 137 c 0,98,99
 64 88 64 88 93 58 c 0,100,101
 123 28 123 28 172 28 c 256,102,103
 221 28 221 28 256 60 c 256,104,105
 291 92 291 92 291 137 c 1,106,-1
 291 137 l 1,92,-1
EndSplineSet
Ligature2: "'abvs' Above Base Substitutions in Tamil lookup 2 subtable" uni0BA4 uni0BBF
EndChar

StartChar: uni0BA8_uni0BBF
Encoding: 341 -1 86
Width: 720
GlyphClass: 2
Flags: W
LayerCount: 2
Back
Fore
SplineSet
526 103 m 1,0,1
 526 8 526 8 470 -45 c 256,2,3
 414 -98 414 -98 312 -98 c 2,4,-1
 132 -98 l 2,5,6
 106 -98 106 -98 87 -109 c 0,7,8
 69 -121 69 -121 69 -137 c 1,9,-1
 84 -135 l 2,10,11
 101 -135 101 -135 112 -148 c 0,12,13
 124 -162 124 -162 124 -181 c 0,14,15
 124 -197 124 -197 111 -209 c 0,16,17
 97 -220 97 -220 78 -220 c 0,18,19
 58 -220 58 -220 43 -205 c 0,20,21
 29 -190 29 -190 29 -169 c 0,22,23
 29 -127 29 -127 60 -98 c 0,24,25
 92 -68 92 -68 136 -68 c 2,26,-1
 315 -68 l 2,27,28
 385 -68 385 -68 418 -26 c 256,29,30
 451 16 451 16 451 105 c 0,31,32
 451 151 451 151 427 183 c 0,33,34
 404 215 404 215 370 215 c 0,35,36
 356 215 356 215 342 209 c 0,37,38
 328 202 328 202 316 190 c 1,39,-1
 316 0 l 1,40,-1
 241 0 l 1,41,-1
 241 370 l 1,42,-1
 100 370 l 1,43,-1
 100 0 l 1,44,-1
 70 0 l 1,45,-1
 70 400 l 1,46,-1
 256 400 l 1,47,48
 249 412 249 412 245 432 c 0,49,50
 241 453 241 453 241 480 c 0,51,52
 241 555 241 555 299 608 c 0,53,54
 358 661 358 661 440 661 c 0,55,56
 548 661 548 661 599 596 c 0,57,58
 650 532 650 532 650 394 c 2,59,-1
 650 0 l 1,60,-1
 620 0 l 1,61,-1
 620 397 l 2,62,63
 620 499 620 499 575 546 c 0,64,65
 530 594 530 594 435 594 c 0,66,67
 367 594 367 594 319 557 c 256,68,69
 271 520 271 520 271 468 c 0,70,71
 271 427 271 427 290 399 c 1,72,-1
 504 400 l 1,73,-1
 504 370 l 1,74,-1
 316 370 l 1,75,-1
 316 225 l 1,76,77
 352 252 352 252 397 252 c 0,78,79
 450 252 450 252 488 208 c 0,80,81
 526 165 526 165 526 103 c 1,82,-1
 526 103 l 1,0,1
EndSplineSet
Ligature2: "'abvs' Above Base Substitutions in Tamil lookup 2 subtable" uni0BA8 uni0BBF
EndChar

StartChar: uni0BA9_uni0BBF
Encoding: 342 -1 87
Width: 1049
GlyphClass: 2
Flags: W
LayerCount: 2
Back
Fore
SplineSet
979 0 m 1,0,-1
 949 0 l 1,1,-1
 949 477 l 2,2,3
 949 525 949 525 915 560 c 0,4,5
 880 594 880 594 832 594 c 0,6,7
 786 594 786 594 754 561 c 256,8,9
 722 528 722 528 722 482 c 0,10,11
 722 450 722 450 742 400 c 1,12,-1
 876 400 l 1,13,-1
 876 367 l 1,14,-1
 767 367 l 1,15,-1
 767 0 l 1,16,-1
 692 0 l 1,17,-1
 692 367 l 1,18,-1
 635 367 l 2,19,20
 592 367 592 367 559 357 c 0,21,22
 527 346 527 346 510 327 c 1,23,24
 551 291 551 291 574 241 c 256,25,26
 597 191 597 191 597 137 c 0,27,28
 597 78 597 78 566 37 c 0,29,30
 534 -5 534 -5 490 -5 c 256,31,32
 446 -5 446 -5 414 37 c 0,33,34
 383 78 383 78 383 137 c 0,35,36
 383 190 383 190 401 236 c 0,37,38
 420 282 420 282 453 312 c 1,39,40
 421 339 421 339 377 353 c 256,41,42
 333 367 333 367 282 367 c 0,43,44
 193 367 193 367 130 310 c 256,45,46
 67 253 67 253 67 172 c 0,47,48
 67 121 67 121 88 83 c 0,49,50
 108 45 108 45 141 35 c 1,51,52
 126 45 126 45 117 70 c 0,53,54
 108 94 108 94 108 127 c 0,55,56
 108 173 108 173 136 201 c 0,57,58
 165 229 165 229 212 229 c 0,59,60
 255 229 255 229 286 197 c 256,61,62
 317 165 317 165 317 120 c 0,63,64
 317 63 317 63 281 29 c 256,65,66
 245 -5 245 -5 185 -5 c 0,67,68
 124 -5 124 -5 80 46 c 0,69,70
 37 98 37 98 37 170 c 0,71,72
 37 264 37 264 113 331 c 0,73,74
 188 397 188 397 295 397 c 0,75,76
 360 397 360 397 410 384 c 0,77,78
 461 372 461 372 490 348 c 1,79,80
 511 373 511 373 549 386 c 0,81,82
 587 400 587 400 636 400 c 2,83,-1
 709 400 l 1,84,85
 692 433 692 433 692 481 c 0,86,87
 692 563 692 563 731 612 c 0,88,89
 769 661 769 661 833 661 c 0,90,91
 899 661 899 661 939 610 c 256,92,93
 979 559 979 559 979 475 c 2,94,-1
 979 0 l 1,95,-1
 979 0 l 1,0,-1
522 137 m 1,96,97
 522 186 522 186 509 224 c 0,98,99
 495 263 495 263 471 284 c 1,100,101
 444 263 444 263 428 224 c 0,102,103
 413 185 413 185 413 137 c 0,104,105
 413 99 413 99 429 72 c 256,106,107
 445 45 445 45 468 45 c 0,108,109
 490 45 490 45 506 72 c 256,110,111
 522 99 522 99 522 137 c 1,112,-1
 522 137 l 1,96,97
242 117 m 1,113,114
 242 147 242 147 226 168 c 256,115,116
 210 189 210 189 188 189 c 0,117,118
 167 189 167 189 153 168 c 0,119,120
 138 147 138 147 138 117 c 256,121,122
 138 87 138 87 154 66 c 256,123,124
 170 45 170 45 192 45 c 0,125,126
 213 45 213 45 227 66 c 0,127,128
 242 87 242 87 242 117 c 1,129,-1
 242 117 l 1,113,114
EndSplineSet
Ligature2: "'abvs' Above Base Substitutions in Tamil lookup 2 subtable" uni0BA9 uni0BBF
EndChar

StartChar: uni0BAA_uni0BBF
Encoding: 343 -1 88
Width: 817
GlyphClass: 2
Flags: W
LayerCount: 2
Back
Fore
SplineSet
747 0 m 1,0,-1
 717 0 l 1,1,-1
 717 434 l 2,2,3
 717 500 717 500 678 547 c 256,4,5
 639 594 639 594 584 594 c 0,6,7
 521 594 521 594 477 554 c 0,8,9
 433 515 433 515 433 459 c 0,10,11
 433 409 433 409 458 374 c 256,12,13
 483 339 483 339 519 339 c 1,14,-1
 519 400 l 1,15,-1
 594 400 l 1,16,-1
 594 0 l 1,17,-1
 70 0 l 1,18,-1
 70 400 l 1,19,-1
 145 400 l 1,20,-1
 145 30 l 1,21,-1
 519 30 l 1,22,-1
 519 308 l 1,23,24
 471 308 471 308 437 354 c 0,25,26
 403 401 403 401 403 466 c 0,27,28
 403 547 403 547 455 604 c 0,29,30
 508 661 508 661 582 661 c 0,31,32
 657 661 657 661 702 599 c 0,33,34
 747 538 747 538 747 435 c 2,35,-1
 747 0 l 1,36,-1
 747 0 l 1,0,-1
EndSplineSet
Ligature2: "'abvs' Above Base Substitutions in Tamil lookup 2 subtable" uni0BAA uni0BBF
EndChar

StartChar: uni0BAE_uni0BBF
Encoding: 344 -1 89
Width: 847
GlyphClass: 2
Flags: W
LayerCount: 2
Back
Fore
SplineSet
331 272 m 1,0,1
 331 325 331 325 370 363 c 0,2,3
 408 401 408 401 463 401 c 1,4,5
 440 442 440 442 440 510 c 0,6,7
 440 579 440 579 485 620 c 256,8,9
 530 661 530 661 604 661 c 0,10,11
 690 661 690 661 733 602 c 0,12,13
 777 543 777 543 777 428 c 2,14,-1
 777 0 l 1,15,-1
 747 0 l 1,16,-1
 747 402 l 2,17,18
 747 497 747 497 712 546 c 0,19,20
 677 594 677 594 609 594 c 0,21,22
 546 594 546 594 508 565 c 0,23,24
 470 535 470 535 470 486 c 256,25,26
 470 437 470 437 496 400 c 1,27,28
 560 400 560 400 598 341 c 0,29,30
 636 283 636 283 636 185 c 0,31,32
 636 101 636 101 603 51 c 0,33,34
 570 0 570 0 515 0 c 2,35,-1
 70 0 l 1,36,-1
 70 400 l 1,37,-1
 145 400 l 1,38,-1
 145 30 l 1,39,-1
 331 30 l 1,40,-1
 331 272 l 1,41,-1
 331 272 l 1,0,1
406 275 m 1,42,-1
 406 30 l 1,43,-1
 505 30 l 2,44,45
 551 30 551 30 578 72 c 0,46,47
 606 115 606 115 606 185 c 0,48,49
 606 269 606 269 573 320 c 0,50,51
 539 371 539 371 484 371 c 0,52,53
 452 371 452 371 429 343 c 256,54,55
 406 315 406 315 406 275 c 1,56,-1
 406 275 l 1,42,-1
EndSplineSet
Ligature2: "'abvs' Above Base Substitutions in Tamil lookup 2 subtable" uni0BAE uni0BBF
EndChar

StartChar: uni0BAF_uni0BBF
Encoding: 345 -1 90
Width: 836
GlyphClass: 2
Flags: W
LayerCount: 2
Back
Fore
SplineSet
766 0 m 1,0,-1
 736 0 l 1,1,-1
 736 434 l 2,2,3
 736 500 736 500 697 547 c 0,4,5
 659 594 659 594 604 594 c 0,6,7
 542 594 542 594 499 554 c 0,8,9
 455 515 455 515 455 459 c 0,10,11
 455 410 455 410 479 375 c 0,12,13
 504 340 504 340 538 340 c 1,14,-1
 538 400 l 1,15,-1
 613 400 l 1,16,-1
 613 0 l 1,17,-1
 261 0 l 1,18,-1
 261 66 l 1,19,20
 256 36 256 36 230 16 c 256,21,22
 204 -4 204 -4 169 -4 c 0,23,24
 126 -4 126 -4 95 32 c 256,25,26
 64 68 64 68 64 119 c 2,27,-1
 64 400 l 1,28,-1
 139 400 l 1,29,-1
 139 113 l 2,30,31
 139 77 139 77 154 51 c 0,32,33
 169 26 169 26 191 26 c 256,34,35
 213 26 213 26 228 51 c 0,36,37
 244 76 244 76 244 112 c 2,38,-1
 244 400 l 1,39,-1
 319 400 l 1,40,-1
 319 30 l 1,41,-1
 538 30 l 1,42,-1
 538 308 l 1,43,44
 491 308 491 308 458 353 c 0,45,46
 425 397 425 397 425 460 c 0,47,48
 425 551 425 551 473 606 c 0,49,50
 522 661 522 661 602 661 c 0,51,52
 676 661 676 661 721 599 c 0,53,54
 766 538 766 538 766 435 c 2,55,-1
 766 0 l 1,56,-1
 766 0 l 1,0,-1
EndSplineSet
Ligature2: "'abvs' Above Base Substitutions in Tamil lookup 2 subtable" uni0BAF uni0BBF
EndChar

StartChar: uni0BB0_uni0BBF
Encoding: 346 -1 91
Width: 599
GlyphClass: 2
Flags: W
LayerCount: 2
Back
Fore
SplineSet
323 14 m 1,0,-1
 62 -165 l 1,1,-1
 46 -142 l 1,2,-1
 248 0 l 1,3,-1
 248 370 l 1,4,-1
 100 370 l 1,5,-1
 100 0 l 1,6,-1
 70 0 l 1,7,-1
 70 400 l 1,8,-1
 258 400 l 1,9,10
 237 435 237 435 237 485 c 0,11,12
 237 557 237 557 280 609 c 0,13,14
 324 660 324 660 385 660 c 0,15,16
 450 660 450 660 490 606 c 0,17,18
 529 553 529 553 529 464 c 2,19,-1
 529 0 l 1,20,-1
 499 0 l 1,21,-1
 499 462 l 2,22,23
 499 515 499 515 464 553 c 256,24,25
 429 591 429 591 380 591 c 0,26,27
 333 591 333 591 300 559 c 256,28,29
 267 527 267 527 267 481 c 0,30,31
 267 457 267 457 273 436 c 0,32,33
 279 416 279 416 291 400 c 1,34,-1
 445 400 l 1,35,-1
 445 370 l 1,36,-1
 323 370 l 1,37,-1
 323 14 l 1,38,-1
 323 14 l 1,0,-1
EndSplineSet
Ligature2: "'abvs' Above Base Substitutions in Tamil lookup 2 subtable" uni0BB0 uni0BBF
EndChar

StartChar: uni0BB1_uni0BBF
Encoding: 347 -1 92
Width: 789
GlyphClass: 2
Flags: W
LayerCount: 2
Back
Fore
SplineSet
719 0 m 1,0,-1
 689 0 l 1,1,-1
 689 477 l 2,2,3
 689 525 689 525 647 560 c 0,4,5
 604 594 604 594 544 594 c 0,6,7
 489 594 489 594 450 561 c 256,8,9
 411 528 411 528 411 482 c 0,10,11
 411 445 411 445 433 398 c 1,12,13
 501 388 501 388 546 324 c 256,14,15
 591 260 591 260 591 172 c 0,16,17
 591 60 591 60 524 -19 c 256,18,19
 457 -98 457 -98 362 -98 c 2,20,-1
 153 -98 l 2,21,22
 128 -98 128 -98 110 -109 c 0,23,24
 91 -120 91 -120 87 -137 c 1,25,-1
 105 -135 l 2,26,27
 122 -135 122 -135 133 -148 c 0,28,29
 145 -162 145 -162 145 -181 c 0,30,31
 145 -197 145 -197 132 -209 c 0,32,33
 118 -220 118 -220 99 -220 c 0,34,35
 79 -220 79 -220 64 -205 c 0,36,37
 50 -190 50 -190 50 -169 c 0,38,39
 50 -127 50 -127 80 -98 c 0,40,41
 110 -68 110 -68 152 -68 c 2,42,-1
 359 -68 l 2,43,44
 424 -68 424 -68 470 2 c 0,45,46
 516 73 516 73 516 172 c 0,47,48
 516 252 516 252 484 308 c 256,49,50
 452 364 452 364 406 364 c 0,51,52
 370 364 370 364 345 335 c 0,53,54
 320 307 320 307 320 266 c 2,55,-1
 320 0 l 1,56,-1
 245 0 l 1,57,-1
 245 310 l 2,58,59
 245 337 245 337 223 355 c 0,60,61
 202 374 202 374 171 374 c 256,62,63
 140 374 140 374 117 353 c 0,64,65
 95 333 95 333 95 304 c 2,66,-1
 95 0 l 1,67,-1
 65 0 l 1,68,-1
 65 302 l 2,69,70
 65 344 65 344 98 374 c 256,71,72
 131 404 131 404 177 404 c 0,73,74
 221 404 221 404 256 384 c 0,75,76
 290 364 290 364 302 331 c 1,77,78
 313 359 313 359 340 377 c 256,79,80
 367 395 367 395 401 398 c 1,81,82
 381 448 381 448 381 482 c 0,83,84
 381 563 381 563 427 612 c 256,85,86
 473 661 473 661 549 661 c 0,87,88
 626 661 626 661 673 611 c 0,89,90
 719 562 719 562 719 479 c 2,91,-1
 719 0 l 1,92,-1
 719 0 l 1,0,-1
EndSplineSet
Ligature2: "'abvs' Above Base Substitutions in Tamil lookup 2 subtable" uni0BB1 uni0BBF
EndChar

StartChar: uni0BB2_uni0BBF
Encoding: 348 -1 93
Width: 871
GlyphClass: 2
Flags: W
LayerCount: 2
Back
Fore
SplineSet
801 0 m 1,0,-1
 771 0 l 1,1,-1
 771 444 l 2,2,3
 771 506 771 506 729 550 c 256,4,5
 687 594 687 594 628 594 c 0,6,7
 567 594 567 594 523 557 c 0,8,9
 480 520 480 520 480 467 c 256,10,11
 480 414 480 414 510 376 c 256,12,13
 540 338 540 338 583 338 c 1,14,-1
 590 340 l 1,15,-1
 571 360 l 2,16,17
 564 367 564 367 560 376 c 0,18,19
 556 384 556 384 556 392 c 0,20,21
 556 404 556 404 566 413 c 0,22,23
 575 422 575 422 589 422 c 0,24,25
 629 422 629 422 658 358 c 0,26,27
 686 294 686 294 686 204 c 0,28,29
 686 104 686 104 645 52 c 0,30,31
 603 1 603 1 522 1 c 0,32,33
 457 1 457 1 418 32 c 256,34,35
 379 63 379 63 379 114 c 2,36,-1
 379 247 l 2,37,38
 379 302 379 302 346 336 c 0,39,40
 313 369 313 369 259 369 c 0,41,42
 180 369 180 369 124 315 c 256,43,44
 68 261 68 261 68 185 c 0,45,46
 68 139 68 139 85 102 c 0,47,48
 103 65 103 65 133 44 c 1,49,50
 121 56 121 56 114 77 c 0,51,52
 108 97 108 97 108 123 c 0,53,54
 108 166 108 166 136 197 c 0,55,56
 163 228 163 228 202 228 c 0,57,58
 253 228 253 228 283 199 c 0,59,60
 314 169 314 169 314 120 c 0,61,62
 314 66 314 66 280 34 c 0,63,64
 247 1 247 1 191 1 c 0,65,66
 128 1 128 1 83 55 c 256,67,68
 38 109 38 109 38 185 c 0,69,70
 38 274 38 274 104 337 c 0,71,72
 169 400 169 400 262 400 c 0,73,74
 349 400 349 400 402 358 c 0,75,76
 454 316 454 316 454 246 c 2,77,-1
 454 117 l 2,78,79
 454 81 454 81 473 56 c 256,80,81
 492 31 492 31 519 31 c 0,82,83
 581 31 581 31 619 78 c 0,84,85
 656 126 656 126 656 204 c 0,86,87
 656 228 656 228 645 255 c 0,88,89
 634 283 634 283 613 312 c 1,90,91
 602 308 602 308 590 308 c 0,92,93
 532 308 532 308 491 356 c 256,94,95
 450 404 450 404 450 472 c 0,96,97
 450 558 450 558 499 609 c 0,98,99
 547 661 547 661 628 661 c 0,100,101
 700 661 700 661 750 598 c 0,102,103
 801 534 801 534 801 445 c 2,104,-1
 801 0 l 1,105,-1
 801 0 l 1,0,-1
239 119 m 1,106,107
 239 152 239 152 225 175 c 256,108,109
 211 198 211 198 191 198 c 0,110,111
 169 198 169 198 154 176 c 0,112,113
 138 155 138 155 138 124 c 0,114,115
 138 85 138 85 153 58 c 0,116,117
 167 31 167 31 188 31 c 256,118,119
 209 31 209 31 224 57 c 256,120,121
 239 83 239 83 239 119 c 1,122,-1
 239 119 l 1,106,107
EndSplineSet
Ligature2: "'abvs' Above Base Substitutions in Tamil lookup 2 subtable" uni0BB2 uni0BBF
EndChar

StartChar: uni0BB3_uni0BBF
Encoding: 349 -1 94
Width: 983
GlyphClass: 2
Flags: W
LayerCount: 2
Back
Fore
SplineSet
913 0 m 1,0,-1
 883 0 l 1,1,-1
 883 482 l 2,2,3
 883 528 883 528 848 561 c 256,4,5
 813 594 813 594 764 594 c 0,6,7
 720 594 720 594 689 561 c 0,8,9
 658 529 658 529 658 483 c 0,10,11
 658 439 658 439 677 400 c 1,12,-1
 794 400 l 1,13,-1
 794 367 l 1,14,-1
 705 367 l 1,15,-1
 705 0 l 1,16,-1
 630 0 l 1,17,-1
 630 367 l 1,18,-1
 484 367 l 1,19,-1
 484 0 l 1,20,-1
 409 0 l 1,21,-1
 409 235 l 1,22,23
 389 294 389 294 348 331 c 0,24,25
 306 367 306 367 260 367 c 0,26,27
 180 367 180 367 124 309 c 0,28,29
 67 252 67 252 67 170 c 0,30,31
 67 124 67 124 87 89 c 0,32,33
 108 53 108 53 141 41 c 1,34,35
 131 52 131 52 125 74 c 0,36,37
 120 97 120 97 120 127 c 0,38,39
 120 176 120 176 145 206 c 0,40,41
 171 235 171 235 213 235 c 0,42,43
 267 235 267 235 299 204 c 256,44,45
 331 173 331 173 331 122 c 0,46,47
 331 66 331 66 295 33 c 0,48,49
 259 -1 259 -1 199 -1 c 0,50,51
 132 -1 132 -1 84 48 c 0,52,53
 37 98 37 98 37 168 c 0,54,55
 37 263 37 263 102 330 c 0,56,57
 168 397 168 397 260 397 c 0,58,59
 316 397 316 397 361 379 c 256,60,61
 406 361 406 361 431 329 c 1,62,-1
 431 400 l 1,63,-1
 640 400 l 1,64,65
 629 427 629 427 624 448 c 256,66,67
 619 469 619 469 621 482 c 0,68,69
 621 556 621 556 664 609 c 0,70,71
 707 661 707 661 767 661 c 256,72,73
 827 661 827 661 870 608 c 0,74,75
 913 554 913 554 913 479 c 2,76,-1
 913 0 l 1,77,-1
 913 0 l 1,0,-1
256 119 m 1,78,79
 256 148 256 148 240 169 c 0,80,81
 225 190 225 190 203 190 c 256,82,83
 181 190 181 190 166 169 c 0,84,85
 150 148 150 148 150 118 c 0,86,87
 150 87 150 87 165 66 c 0,88,89
 180 44 180 44 202 44 c 256,90,91
 224 44 224 44 240 66 c 256,92,93
 256 88 256 88 256 119 c 1,94,-1
 256 119 l 1,78,79
EndSplineSet
Ligature2: "'abvs' Above Base Substitutions in Tamil lookup 2 subtable" uni0BB3 uni0BBF
EndChar

StartChar: uni0BB4_uni0BBF
Encoding: 350 -1 95
Width: 841
GlyphClass: 2
Flags: W
LayerCount: 2
Back
Fore
SplineSet
771 0 m 1,0,-1
 741 0 l 1,1,-1
 741 462 l 2,2,3
 741 517 741 517 701 555 c 0,4,5
 661 594 661 594 604 594 c 0,6,7
 550 594 550 594 512 561 c 256,8,9
 474 528 474 528 474 482 c 0,10,11
 474 438 474 438 490 400 c 1,12,13
 552 393 552 393 594 332 c 0,14,15
 636 270 636 270 636 185 c 0,16,17
 636 101 636 101 603 51 c 0,18,19
 569 0 569 0 514 0 c 2,20,-1
 405 0 l 1,21,22
 405 -29 405 -29 418 -50 c 256,23,24
 431 -71 431 -71 449 -71 c 2,25,-1
 533 -71 l 1,26,-1
 533 -101 l 1,27,-1
 425 -101 l 2,28,29
 396 -101 396 -101 376 -126 c 0,30,31
 356 -150 356 -150 356 -185 c 0,32,33
 356 -224 356 -224 307 -252 c 0,34,35
 259 -280 259 -280 190 -280 c 0,36,37
 126 -280 126 -280 88 -251 c 256,38,39
 50 -222 50 -222 50 -173 c 0,40,41
 50 -131 50 -131 85 -101 c 256,42,43
 120 -71 120 -71 169 -71 c 0,44,45
 189 -71 189 -71 204 -86 c 0,46,47
 218 -100 218 -100 218 -121 c 0,48,49
 218 -138 218 -138 207 -151 c 0,50,51
 196 -163 196 -163 180 -163 c 0,52,53
 165 -163 165 -163 154 -152 c 256,54,55
 143 -141 143 -141 143 -126 c 0,56,57
 142 -120 142 -120 144 -114 c 0,58,59
 147 -108 147 -108 152 -105 c 1,60,61
 122 -105 122 -105 101 -125 c 256,62,63
 80 -145 80 -145 80 -174 c 0,64,65
 80 -205 80 -205 112 -228 c 0,66,67
 144 -250 144 -250 189 -250 c 0,68,69
 227 -250 227 -250 254 -224 c 0,70,71
 281 -197 281 -197 281 -160 c 256,72,73
 281 -123 281 -123 314 -97 c 0,74,75
 345 -71 345 -71 390 -71 c 1,76,77
 365 -67 365 -67 348 -48 c 0,78,79
 331 -28 331 -28 331 0 c 1,80,-1
 70 0 l 1,81,-1
 70 400 l 1,82,-1
 145 400 l 1,83,-1
 145 30 l 1,84,-1
 331 30 l 1,85,-1
 331 267 l 2,86,87
 331 317 331 317 367 355 c 256,88,89
 403 393 403 393 457 400 c 1,90,91
 444 438 444 438 444 480 c 0,92,93
 444 555 444 555 491 608 c 0,94,95
 539 661 539 661 606 661 c 0,96,97
 674 661 674 661 723 603 c 0,98,99
 771 546 771 546 771 464 c 2,100,-1
 771 0 l 1,0,-1
406 30 m 1,101,-1
 515 30 l 2,102,103
 553 30 553 30 579 78 c 0,104,105
 606 127 606 127 606 195 c 0,106,107
 606 266 606 266 570 316 c 0,108,109
 535 366 535 366 484 366 c 0,110,111
 452 366 452 366 429 338 c 256,112,113
 406 310 406 310 406 271 c 2,114,-1
 406 30 l 1,101,-1
EndSplineSet
Ligature2: "'abvs' Above Base Substitutions in Tamil lookup 2 subtable" uni0BB4 uni0BBF
EndChar

StartChar: uni0BB5_uni0BBF
Encoding: 351 -1 96
Width: 910
GlyphClass: 2
Flags: W
LayerCount: 2
Back
Fore
SplineSet
840 0 m 1,0,-1
 810 0 l 1,1,-1
 810 452 l 2,2,3
 810 511 810 511 771 552 c 0,4,5
 732 594 732 594 677 594 c 0,6,7
 615 594 615 594 572 554 c 0,8,9
 528 514 528 514 528 458 c 0,10,11
 528 410 528 410 553 376 c 256,12,13
 578 342 578 342 613 342 c 1,14,-1
 613 400 l 1,15,-1
 688 400 l 1,16,-1
 688 0 l 1,17,-1
 348 0 l 1,18,-1
 348 27 l 1,19,20
 385 46 385 46 406 91 c 0,21,22
 428 137 428 137 428 196 c 0,23,24
 428 266 428 266 375 316 c 0,25,26
 323 366 323 366 248 366 c 0,27,28
 174 366 174 366 121 313 c 0,29,30
 69 260 69 260 69 185 c 0,31,32
 69 139 69 139 86 102 c 0,33,34
 104 65 104 65 134 44 c 1,35,36
 122 59 122 59 115 79 c 0,37,38
 109 100 109 100 109 123 c 0,39,40
 109 171 109 171 135 199 c 0,41,42
 162 228 162 228 206 228 c 0,43,44
 255 228 255 228 285 199 c 256,45,46
 315 170 315 170 315 122 c 0,47,48
 315 67 315 67 283 34 c 256,49,50
 251 1 251 1 197 1 c 0,51,52
 125 1 125 1 82 51 c 0,53,54
 39 102 39 102 39 185 c 0,55,56
 39 272 39 272 105 334 c 0,57,58
 170 396 170 396 263 396 c 0,59,60
 362 396 362 396 433 334 c 0,61,62
 503 272 503 272 503 185 c 0,63,64
 503 133 503 133 487 92 c 256,65,66
 471 51 471 51 443 30 c 1,67,-1
 613 30 l 1,68,-1
 613 309 l 1,69,70
 565 311 565 311 531 356 c 0,71,72
 498 401 498 401 498 465 c 0,73,74
 498 546 498 546 550 604 c 0,75,76
 602 661 602 661 676 661 c 0,77,78
 744 661 744 661 792 598 c 0,79,80
 840 534 840 534 840 445 c 2,81,-1
 840 0 l 1,82,-1
 840 0 l 1,0,-1
240 119 m 1,83,84
 240 152 240 152 226 175 c 256,85,86
 212 198 212 198 192 198 c 0,87,88
 170 198 170 198 155 175 c 0,89,90
 139 152 139 152 139 120 c 0,91,92
 139 83 139 83 154 57 c 0,93,94
 168 31 168 31 189 31 c 256,95,96
 210 31 210 31 225 57 c 256,97,98
 240 83 240 83 240 119 c 1,99,-1
 240 119 l 1,83,84
EndSplineSet
Ligature2: "'abvs' Above Base Substitutions in Tamil lookup 2 subtable" uni0BB5 uni0BBF
EndChar

StartChar: uni0BB7_uni0BBF
Encoding: 352 -1 97
Width: 1144
GlyphClass: 2
Flags: W
LayerCount: 2
Back
Fore
SplineSet
1074 0 m 1,0,-1
 1044 0 l 1,1,-1
 1044 462 l 2,2,3
 1044 517 1044 517 986 555 c 0,4,5
 927 594 927 594 845 594 c 0,6,7
 773 594 773 594 721 560 c 0,8,9
 670 526 670 526 670 478 c 0,10,11
 670 448 670 448 693 401 c 1,12,13
 725 392 725 392 746 365 c 0,14,15
 766 338 766 338 766 304 c 2,16,-1
 766 190 l 1,17,18
 817 190 817 190 862 221 c 0,19,20
 906 252 906 252 932 304 c 1,21,-1
 946 304 l 1,22,-1
 946 0 l 1,23,-1
 766 0 l 1,24,-1
 766 -242 l 1,25,-1
 691 -242 l 1,26,-1
 691 0 l 1,27,-1
 351 0 l 1,28,-1
 351 27 l 1,29,30
 388 48 388 48 410 94 c 0,31,32
 431 139 431 139 431 196 c 0,33,34
 431 264 431 264 382 311 c 0,35,36
 333 359 333 359 264 359 c 0,37,38
 182 359 182 359 125 308 c 0,39,40
 67 257 67 257 67 185 c 0,41,42
 67 141 67 141 86 104 c 0,43,44
 104 66 104 66 137 44 c 1,45,46
 125 59 125 59 118 78 c 0,47,48
 112 97 112 97 112 118 c 0,49,50
 112 172 112 172 139 205 c 0,51,52
 167 238 167 238 212 238 c 0,53,54
 260 238 260 238 289 206 c 0,55,56
 318 175 318 175 318 122 c 0,57,58
 318 65 318 65 284 30 c 0,59,60
 251 -4 251 -4 195 -4 c 0,61,62
 130 -4 130 -4 83 51 c 0,63,64
 37 107 37 107 37 185 c 0,65,66
 37 269 37 269 104 329 c 256,67,68
 171 389 171 389 266 389 c 0,69,70
 365 389 365 389 436 329 c 0,71,72
 506 269 506 269 506 185 c 0,73,74
 506 134 506 134 489 93 c 0,75,76
 473 52 473 52 443 30 c 1,77,-1
 691 30 l 1,78,-1
 691 164 l 1,79,80
 633 164 633 164 599 196 c 0,81,82
 564 228 564 228 564 281 c 0,83,84
 564 326 564 326 591 359 c 0,85,86
 617 392 617 392 657 398 c 1,87,88
 640 430 640 430 640 480 c 0,89,90
 640 555 640 555 700 608 c 256,91,92
 760 661 760 661 845 661 c 0,93,94
 940 661 940 661 1007 603 c 0,95,96
 1074 546 1074 546 1074 464 c 2,97,-1
 1074 0 l 1,98,-1
 1074 0 l 1,0,-1
691 185 m 1,99,-1
 691 302 l 2,100,101
 691 326 691 326 679 342 c 0,102,103
 667 359 667 359 650 359 c 0,104,105
 627 359 627 359 610 336 c 0,106,107
 594 313 594 313 594 281 c 0,108,109
 594 241 594 241 622 213 c 0,110,111
 651 185 651 185 691 185 c 1,112,-1
 691 185 l 1,99,-1
243 119 m 1,113,114
 243 148 243 148 227 168 c 0,115,116
 212 188 212 188 190 188 c 0,117,118
 170 188 170 188 156 168 c 256,119,120
 142 148 142 148 142 120 c 0,121,122
 142 91 142 91 157 71 c 0,123,124
 171 51 171 51 192 51 c 256,125,126
 213 51 213 51 228 71 c 256,127,128
 243 91 243 91 243 119 c 1,129,-1
 243 119 l 1,113,114
871 30 m 1,130,-1
 871 185 l 1,131,132
 857 175 857 175 830 169 c 0,133,134
 803 164 803 164 766 164 c 1,135,-1
 766 30 l 1,136,-1
 871 30 l 1,137,-1
 871 30 l 1,130,-1
EndSplineSet
Ligature2: "'abvs' Above Base Substitutions in Tamil lookup 2 subtable" uni0BB7 uni0BBF
EndChar

StartChar: uni0BB8_uni0BBF
Encoding: 353 -1 98
Width: 1195
GlyphClass: 2
Flags: W
LayerCount: 2
Back
Fore
SplineSet
1125 0 m 1,0,-1
 1095 0 l 1,1,-1
 1095 459 l 2,2,3
 1095 515 1095 515 1051 554 c 0,4,5
 1007 594 1007 594 944 594 c 256,6,7
 881 594 881 594 837 557 c 0,8,9
 792 520 792 520 792 467 c 0,10,11
 792 416 792 416 821 379 c 0,12,13
 851 343 851 343 892 343 c 1,14,-1
 883 353 l 2,15,16
 859 379 859 379 859 387 c 0,17,18
 859 401 859 401 869 412 c 0,19,20
 878 422 878 422 892 422 c 0,21,22
 932 422 932 422 961 358 c 0,23,24
 989 294 989 294 989 204 c 0,25,26
 989 109 989 109 944 51 c 0,27,28
 899 -6 899 -6 825 -6 c 0,29,30
 762 -6 762 -6 725 27 c 0,31,32
 687 60 687 60 687 114 c 2,33,-1
 687 257 l 2,34,35
 687 302 687 302 658 333 c 0,36,37
 630 365 630 365 589 365 c 0,38,39
 553 365 553 365 527 337 c 256,40,41
 501 309 501 309 501 269 c 2,42,-1
 501 0 l 1,43,-1
 426 0 l 1,44,-1
 426 235 l 2,45,46
 426 291 426 291 379 331 c 256,47,48
 332 371 332 371 265 371 c 0,49,50
 183 371 183 371 126 312 c 0,51,52
 68 253 68 253 68 170 c 0,53,54
 68 124 68 124 88 89 c 0,55,56
 109 53 109 53 142 41 c 1,57,58
 129 56 129 56 123 77 c 0,59,60
 116 99 116 99 116 124 c 0,61,62
 116 174 116 174 145 205 c 0,63,64
 175 235 175 235 224 235 c 256,65,66
 273 235 273 235 303 204 c 0,67,68
 332 173 332 173 332 122 c 0,69,70
 332 69 332 69 293 31 c 0,71,72
 255 -6 255 -6 200 -6 c 0,73,74
 133 -6 133 -6 85 45 c 0,75,76
 38 96 38 96 38 168 c 0,77,78
 38 265 38 265 105 333 c 256,79,80
 172 401 172 401 266 401 c 0,81,82
 340 401 340 401 397 375 c 256,83,84
 454 349 454 349 475 305 c 1,85,86
 485 345 485 345 520 370 c 0,87,88
 554 395 554 395 599 395 c 0,89,90
 667 395 667 395 714 354 c 0,91,92
 762 314 762 314 762 256 c 2,93,-1
 762 117 l 2,94,95
 762 78 762 78 782 51 c 256,96,97
 802 24 802 24 830 24 c 0,98,99
 889 24 889 24 924 73 c 256,100,101
 959 122 959 122 959 204 c 0,102,103
 959 233 959 233 950 259 c 0,104,105
 941 284 941 284 924 303 c 2,106,-1
 917 310 l 1,107,-1
 907 308 l 1,108,109
 847 308 847 308 804 355 c 0,110,111
 762 401 762 401 762 467 c 0,112,113
 762 547 762 547 815 604 c 0,114,115
 869 661 869 661 944 661 c 256,116,117
 1019 661 1019 661 1072 601 c 256,118,119
 1125 541 1125 541 1125 456 c 2,120,-1
 1125 0 l 1,0,-1
257 119 m 0,121,122
 257 148 257 148 241 169 c 0,123,124
 224 190 224 190 201 190 c 256,125,126
 178 190 178 190 162 170 c 256,127,128
 146 150 146 150 146 122 c 0,129,130
 146 90 146 90 162 67 c 256,131,132
 178 44 178 44 201 44 c 256,133,134
 224 44 224 44 241 66 c 0,135,136
 257 88 257 88 257 119 c 0,121,122
EndSplineSet
Ligature2: "'abvs' Above Base Substitutions in Tamil lookup 2 subtable" uni0BB8 uni0BBF
EndChar

StartChar: uni0BB9_uni0BBF
Encoding: 354 -1 99
Width: 1308
GlyphClass: 2
Flags: W
LayerCount: 2
Back
Fore
SplineSet
1238 0 m 1,0,-1
 1208 0 l 1,1,-1
 1208 467 l 2,2,3
 1208 520 1208 520 1166 557 c 0,4,5
 1123 594 1123 594 1063 594 c 0,6,7
 1008 594 1008 594 970 561 c 0,8,9
 931 528 931 528 931 482 c 0,10,11
 931 457 931 457 938 435 c 0,12,13
 944 414 944 414 957 398 c 1,14,15
 1024 393 1024 393 1069 328 c 0,16,17
 1115 263 1115 263 1115 172 c 0,18,19
 1115 62 1115 62 1045 -16 c 0,20,21
 976 -94 976 -94 877 -94 c 2,22,-1
 141 -94 l 2,23,24
 111 -94 111 -94 89 -107 c 0,25,26
 68 -120 68 -120 68 -139 c 1,27,-1
 93 -135 l 2,28,29
 110 -135 110 -135 121 -148 c 0,30,31
 133 -162 133 -162 133 -181 c 0,32,33
 133 -197 133 -197 120 -209 c 0,34,35
 106 -220 106 -220 87 -220 c 0,36,37
 67 -220 67 -220 52 -204 c 0,38,39
 38 -187 38 -187 38 -164 c 0,40,41
 38 -123 38 -123 68 -93 c 0,42,43
 98 -64 98 -64 140 -64 c 2,44,-1
 872 -64 l 2,45,46
 942 -64 942 -64 991 5 c 0,47,48
 1040 73 1040 73 1040 170 c 0,49,50
 1040 258 1040 258 1010 311 c 256,51,52
 980 364 980 364 930 364 c 0,53,54
 898 364 898 364 875 336 c 256,55,56
 852 308 852 308 852 269 c 2,57,-1
 852 0 l 1,58,-1
 777 0 l 1,59,-1
 777 295 l 2,60,61
 777 324 777 324 761 344 c 256,62,63
 745 364 745 364 723 364 c 0,64,65
 700 364 700 364 683 343 c 0,66,67
 667 323 667 323 667 294 c 2,68,-1
 667 0 l 1,69,-1
 348 0 l 1,70,-1
 348 27 l 1,71,72
 385 48 385 48 407 94 c 0,73,74
 428 139 428 139 428 196 c 0,75,76
 428 268 428 268 379 320 c 0,77,78
 330 371 330 371 261 371 c 0,79,80
 181 371 181 371 125 317 c 0,81,82
 68 262 68 262 68 185 c 0,83,84
 68 140 68 140 86 102 c 0,85,86
 103 65 103 65 134 44 c 1,87,88
 122 56 122 56 115 77 c 0,89,90
 109 97 109 97 109 123 c 0,91,92
 109 171 109 171 136 199 c 0,93,94
 164 228 164 228 209 228 c 0,95,96
 257 228 257 228 286 199 c 256,97,98
 315 170 315 170 315 122 c 0,99,100
 315 65 315 65 281 30 c 0,101,102
 248 -4 248 -4 192 -4 c 0,103,104
 128 -4 128 -4 83 51 c 0,105,106
 38 107 38 107 38 185 c 0,107,108
 38 274 38 274 104 338 c 0,109,110
 170 401 170 401 263 401 c 0,111,112
 362 401 362 401 433 338 c 0,113,114
 503 274 503 274 503 185 c 0,115,116
 503 134 503 134 486 93 c 0,117,118
 470 52 470 52 440 30 c 1,119,-1
 637 30 l 1,120,-1
 637 292 l 2,121,122
 637 334 637 334 664 364 c 256,123,124
 691 394 691 394 729 394 c 0,125,126
 766 394 766 394 795 377 c 0,127,128
 824 359 824 359 834 331 c 1,129,130
 843 358 843 358 868 376 c 0,131,132
 892 395 892 395 925 398 c 1,133,134
 901 441 901 441 901 482 c 0,135,136
 901 556 901 556 950 609 c 0,137,138
 999 661 999 661 1068 661 c 0,139,140
 1138 661 1138 661 1188 605 c 256,141,142
 1238 549 1238 549 1238 469 c 2,143,-1
 1238 0 l 1,144,-1
 1238 0 l 1,0,-1
240 114 m 1,145,146
 240 143 240 143 226 163 c 256,147,148
 212 183 212 183 192 183 c 0,149,150
 170 183 170 183 155 163 c 0,151,152
 139 143 139 143 139 114 c 0,153,154
 139 86 139 86 154 66 c 0,155,156
 168 46 168 46 189 46 c 256,157,158
 210 46 210 46 225 66 c 256,159,160
 240 86 240 86 240 114 c 1,161,-1
 240 114 l 1,145,146
EndSplineSet
Ligature2: "'abvs' Above Base Substitutions in Tamil lookup 2 subtable" uni0BB9 uni0BBF
EndChar

StartChar: uni0B95_uni0BC0
Encoding: 355 -1 100
Width: 573
GlyphClass: 2
Flags: W
LayerCount: 2
Back
Fore
SplineSet
453 535 m 1,0,1
 453 564 453 564 441 584 c 0,2,3
 428 604 428 604 411 604 c 0,4,5
 392 604 392 604 379 584 c 256,6,7
 366 564 366 564 366 535 c 0,8,9
 366 509 366 509 379 490 c 0,10,11
 392 472 392 472 410 472 c 256,12,13
 428 472 428 472 440 490 c 0,14,15
 453 509 453 509 453 535 c 1,16,-1
 453 535 l 1,0,1
543 114 m 1,17,18
 543 53 543 53 509 26 c 0,19,20
 475 0 475 0 396 0 c 1,21,-1
 396 30 l 1,22,23
 436 30 436 30 452 48 c 0,24,25
 468 67 468 67 468 113 c 0,26,27
 468 149 468 149 458 167 c 0,28,29
 449 185 449 185 430 185 c 2,30,-1
 369 185 l 1,31,-1
 369 131 l 2,32,33
 369 65 369 65 320 32 c 0,34,35
 271 -2 271 -2 174 -2 c 0,36,37
 117 -2 117 -2 77 38 c 256,38,39
 37 78 37 78 37 134 c 0,40,41
 37 171 37 171 63 193 c 256,42,43
 89 215 89 215 132 215 c 1,44,45
 101 245 101 245 84 289 c 0,46,47
 67 332 67 332 67 382 c 0,48,49
 67 499 67 499 149 575 c 0,50,51
 231 652 231 652 357 652 c 0,52,53
 438 652 438 652 483 620 c 256,54,55
 528 588 528 588 528 530 c 0,56,57
 528 486 528 486 499 464 c 0,58,59
 471 442 471 442 415 442 c 0,60,61
 382 442 382 442 359 469 c 256,62,63
 336 496 336 496 336 535 c 0,64,65
 336 556 336 556 343 574 c 256,66,67
 350 592 350 592 362 604 c 1,68,-1
 351 604 l 2,69,70
 231 604 231 604 164 545 c 0,71,72
 97 485 97 485 97 378 c 0,73,74
 97 327 97 327 113 287 c 0,75,76
 128 248 128 248 156 229 c 1,77,-1
 156 400 l 1,78,-1
 503 400 l 1,79,-1
 503 370 l 1,80,-1
 369 370 l 1,81,-1
 369 215 l 1,82,-1
 463 215 l 2,83,84
 499 215 499 215 521 187 c 0,85,86
 543 160 543 160 543 114 c 1,87,-1
 543 114 l 1,17,18
294 215 m 1,88,-1
 294 370 l 1,89,-1
 186 370 l 1,90,-1
 186 215 l 1,91,-1
 294 215 l 1,92,-1
 294 215 l 1,88,-1
294 138 m 1,93,-1
 294 185 l 1,94,-1
 125 185 l 2,95,96
 99 185 99 185 83 171 c 0,97,98
 67 158 67 158 67 135 c 0,99,100
 67 86 67 86 96 57 c 0,101,102
 126 28 126 28 175 28 c 256,103,104
 224 28 224 28 259 60 c 256,105,106
 294 92 294 92 294 138 c 1,107,-1
 294 138 l 1,93,-1
EndSplineSet
Ligature2: "'abvs' Above Base Substitutions in Tamil lookup 2 subtable" uni0B95 uni0BC0
EndChar

StartChar: uni0B99_uni0BC0
Encoding: 356 -1 101
Width: 769
GlyphClass: 2
Flags: W
LayerCount: 2
Back
Fore
SplineSet
796 535 m 1,0,1
 796 564 796 564 783 584 c 256,2,3
 770 604 770 604 752 604 c 0,4,5
 733 604 733 604 719 584 c 0,6,7
 706 564 706 564 706 535 c 0,8,9
 706 509 706 509 719 491 c 256,10,11
 732 473 732 473 751 473 c 256,12,13
 770 473 770 473 783 491 c 256,14,15
 796 509 796 509 796 535 c 1,16,-1
 796 535 l 1,0,1
699 0 m 1,17,-1
 246 0 l 1,18,-1
 246 30 l 1,19,-1
 397 30 l 1,20,21
 427 47 427 47 444 76 c 0,22,23
 461 104 461 104 461 137 c 0,24,25
 461 180 461 180 437 210 c 256,26,27
 413 240 413 240 379 240 c 0,28,29
 363 240 363 240 348 233 c 0,30,31
 333 225 333 225 321 212 c 1,32,-1
 321 110 l 1,33,-1
 246 110 l 1,34,-1
 246 370 l 1,35,-1
 100 370 l 1,36,-1
 100 0 l 1,37,-1
 70 0 l 1,38,-1
 70 400 l 1,39,-1
 446 400 l 1,40,-1
 446 370 l 1,41,-1
 321 370 l 1,42,-1
 321 247 l 1,43,44
 337 258 337 258 359 264 c 256,45,46
 381 270 381 270 407 270 c 0,47,48
 466 270 466 270 501 234 c 0,49,50
 536 197 536 197 536 137 c 0,51,52
 536 103 536 103 514 74 c 0,53,54
 493 44 493 44 457 30 c 1,55,-1
 624 30 l 1,56,-1
 624 307 l 1,57,58
 575 316 575 316 543 361 c 256,59,60
 511 406 511 406 511 467 c 0,61,62
 511 551 511 551 565 601 c 0,63,64
 618 652 618 652 707 652 c 0,65,66
 785 652 785 652 828 620 c 256,67,68
 871 588 871 588 871 530 c 0,69,70
 871 491 871 491 842 467 c 0,71,72
 814 443 814 443 766 443 c 0,73,74
 725 443 725 443 701 468 c 0,75,76
 676 493 676 493 676 534 c 0,77,78
 676 559 676 559 684 579 c 0,79,80
 691 599 691 599 705 611 c 1,81,82
 631 611 631 611 586 570 c 256,83,84
 541 529 541 529 541 460 c 0,85,86
 541 415 541 415 564 381 c 0,87,88
 588 346 588 346 624 338 c 1,89,-1
 624 400 l 1,90,-1
 699 400 l 1,91,-1
 699 0 l 1,92,-1
 699 0 l 1,17,-1
EndSplineSet
Ligature2: "'abvs' Above Base Substitutions in Tamil lookup 2 subtable" uni0B99 uni0BC0
EndChar

StartChar: uni0B9A_uni0BC0
Encoding: 357 -1 102
Width: 499
GlyphClass: 2
Flags: W
LayerCount: 2
Back
Fore
SplineSet
448 535 m 1,0,1
 448 564 448 564 435 584 c 256,2,3
 422 604 422 604 404 604 c 0,4,5
 385 604 385 604 371 584 c 0,6,7
 358 564 358 564 358 535 c 0,8,9
 358 509 358 509 371 490 c 0,10,11
 384 472 384 472 403 472 c 256,12,13
 422 472 422 472 435 490 c 0,14,15
 448 509 448 509 448 535 c 1,16,-1
 448 535 l 1,0,1
488 185 m 1,17,-1
 373 185 l 1,18,-1
 373 137 l 2,19,20
 373 68 373 68 330 33 c 256,21,22
 287 -2 287 -2 202 -2 c 0,23,24
 129 -2 129 -2 85 36 c 256,25,26
 41 74 41 74 41 137 c 0,27,28
 41 172 41 172 64 194 c 0,29,30
 87 215 87 215 126 215 c 1,31,32
 95 245 95 245 79 288 c 0,33,34
 62 332 62 332 62 382 c 0,35,36
 62 499 62 499 144 575 c 0,37,38
 225 652 225 652 350 652 c 0,39,40
 428 652 428 652 476 619 c 0,41,42
 523 585 523 585 523 530 c 0,43,44
 523 490 523 490 492 466 c 0,45,46
 460 442 460 442 408 442 c 0,47,48
 375 442 375 442 351 469 c 0,49,50
 328 496 328 496 328 534 c 0,51,52
 328 555 328 555 335 573 c 256,53,54
 342 591 342 591 355 604 c 1,55,-1
 344 604 l 2,56,57
 230 604 230 604 161 542 c 0,58,59
 92 481 92 481 92 378 c 0,60,61
 92 326 92 326 107 286 c 0,62,63
 123 247 123 247 150 229 c 1,64,-1
 150 400 l 1,65,-1
 488 400 l 1,66,-1
 488 370 l 1,67,-1
 373 370 l 1,68,-1
 373 215 l 1,69,-1
 488 215 l 1,70,-1
 488 185 l 1,71,-1
 488 185 l 1,17,-1
298 215 m 1,72,-1
 298 370 l 1,73,-1
 180 370 l 1,74,-1
 180 215 l 1,75,-1
 298 215 l 1,76,-1
 298 215 l 1,72,-1
298 137 m 1,77,-1
 298 185 l 1,78,-1
 129 185 l 2,79,80
 103 185 103 185 87 172 c 256,81,82
 71 159 71 159 71 137 c 0,83,84
 71 88 71 88 107 58 c 256,85,86
 143 28 143 28 203 28 c 0,87,88
 246 28 246 28 272 58 c 256,89,90
 298 88 298 88 298 137 c 1,91,-1
 298 137 l 1,77,-1
EndSplineSet
Ligature2: "'abvs' Above Base Substitutions in Tamil lookup 2 subtable" uni0B9A uni0BC0
EndChar

StartChar: uni0B9C_uni0BC0
Encoding: 358 -1 103
Width: 718
GlyphClass: 2
Flags: W
LayerCount: 2
Back
Fore
SplineSet
805 530 m 1,0,1
 805 490 805 490 779 465 c 0,2,3
 753 441 753 441 709 441 c 0,4,5
 666 441 666 441 641 467 c 0,6,7
 615 492 615 492 615 535 c 0,8,9
 615 560 615 560 622 580 c 256,10,11
 629 600 629 600 642 610 c 1,12,13
 586 610 586 610 546 573 c 0,14,15
 506 537 506 537 506 485 c 0,16,17
 506 442 506 442 534 403 c 1,18,19
 597 400 597 400 641 349 c 0,20,21
 684 298 684 298 684 228 c 0,22,23
 684 154 684 154 623 102 c 0,24,25
 563 50 563 50 477 50 c 2,26,-1
 215 50 l 2,27,28
 167 50 167 50 134 17 c 0,29,30
 100 -17 100 -17 100 -64 c 0,31,32
 100 -115 100 -115 131 -152 c 0,33,34
 162 -188 162 -188 205 -188 c 0,35,36
 234 -188 234 -188 273 -162 c 0,37,38
 313 -136 313 -136 358 -88 c 0,39,40
 399 -44 399 -44 447 -20 c 0,41,42
 494 4 494 4 541 4 c 0,43,44
 606 4 606 4 645 -28 c 256,45,46
 684 -60 684 -60 684 -114 c 0,47,48
 684 -166 684 -166 644 -197 c 0,49,50
 605 -228 605 -228 539 -228 c 0,51,52
 504 -228 504 -228 473 -216 c 0,53,54
 442 -203 442 -203 421 -181 c 1,55,-1
 436 -157 l 1,56,57
 459 -177 459 -177 485 -187 c 0,58,59
 512 -198 512 -198 539 -198 c 0,60,61
 568 -198 568 -198 588 -173 c 0,62,63
 609 -148 609 -148 609 -113 c 0,64,65
 609 -77 609 -77 586 -51 c 0,66,67
 563 -26 563 -26 531 -26 c 0,68,69
 463 -26 463 -26 366 -122 c 256,70,71
 269 -218 269 -218 201 -218 c 0,72,73
 121 -218 121 -218 73 -176 c 256,74,75
 25 -134 25 -134 25 -64 c 0,76,77
 25 -4 25 -4 79 38 c 256,78,79
 133 80 133 80 210 80 c 2,80,-1
 478 80 l 2,81,82
 532 80 532 80 571 124 c 0,83,84
 609 168 609 168 609 231 c 0,85,86
 609 288 609 288 580 328 c 0,87,88
 552 368 552 368 511 368 c 0,89,90
 475 368 475 368 449 340 c 0,91,92
 423 311 423 311 423 271 c 2,93,-1
 423 138 l 1,94,-1
 348 138 l 1,95,-1
 348 259 l 2,96,97
 348 304 348 304 301 336 c 0,98,99
 255 368 255 368 189 368 c 0,100,101
 137 368 137 368 101 337 c 0,102,103
 64 306 64 306 64 262 c 0,104,105
 64 219 64 219 84 188 c 256,106,107
 104 157 104 157 133 154 c 1,108,109
 116 160 116 160 106 180 c 0,110,111
 96 201 96 201 96 229 c 0,112,113
 96 273 96 273 121 299 c 256,114,115
 146 325 146 325 188 325 c 256,116,117
 230 325 230 325 255 298 c 0,118,119
 280 270 280 270 280 225 c 0,120,121
 280 181 280 181 249 154 c 0,122,123
 219 127 219 127 168 127 c 0,124,125
 107 127 107 127 71 163 c 0,126,127
 34 199 34 199 34 258 c 0,128,129
 34 316 34 316 85 357 c 0,130,131
 135 398 135 398 207 398 c 0,132,133
 273 398 273 398 324 377 c 0,134,135
 374 356 374 356 397 320 c 1,136,137
 408 351 408 351 436 373 c 256,138,139
 464 395 464 395 500 401 c 1,140,141
 476 439 476 439 476 484 c 0,142,143
 476 554 476 554 527 604 c 256,144,145
 578 654 578 654 650 654 c 0,146,147
 727 654 727 654 766 623 c 0,148,149
 805 591 805 591 805 530 c 1,150,-1
 805 530 l 1,0,1
730 535 m 1,151,152
 730 564 730 564 717 584 c 0,153,154
 704 605 704 605 686 605 c 0,155,156
 669 605 669 605 657 585 c 256,157,158
 645 565 645 565 645 536 c 0,159,160
 645 509 645 509 657 490 c 0,161,162
 668 471 668 471 685 471 c 0,163,164
 704 471 704 471 717 490 c 0,165,166
 730 508 730 508 730 535 c 1,167,-1
 730 535 l 1,151,152
217 225 m 1,168,169
 217 254 217 254 204 274 c 0,170,171
 191 295 191 295 173 295 c 0,172,173
 154 295 154 295 140 276 c 0,174,175
 126 256 126 256 126 229 c 0,176,177
 126 199 126 199 139 178 c 256,178,179
 152 157 152 157 170 157 c 0,180,181
 189 157 189 157 203 177 c 256,182,183
 217 197 217 197 217 225 c 1,184,-1
 217 225 l 1,168,169
EndSplineSet
Ligature2: "'abvs' Above Base Substitutions in Tamil lookup 2 subtable" uni0B9C uni0BC0
EndChar

StartChar: uni0B9E_uni0BC0
Encoding: 359 -1 104
Width: 930
GlyphClass: 2
Flags: W
LayerCount: 2
Back
Fore
SplineSet
851 535 m 1,0,1
 851 564 851 564 838 584 c 0,2,3
 825 605 825 605 807 605 c 0,4,5
 788 605 788 605 774 585 c 256,6,7
 760 565 760 565 760 536 c 0,8,9
 760 509 760 509 773 491 c 0,10,11
 787 472 787 472 806 472 c 256,12,13
 825 472 825 472 838 490 c 0,14,15
 851 509 851 509 851 535 c 1,16,-1
 851 535 l 1,0,1
898 88 m 1,17,18
 898 -77 898 -77 780 -168 c 0,19,20
 661 -259 661 -259 448 -259 c 0,21,22
 274 -259 274 -259 160 -150 c 256,23,24
 46 -41 46 -41 46 126 c 0,25,26
 46 200 46 200 75 270 c 256,27,28
 104 340 104 340 157 395 c 1,29,-1
 177 373 l 1,30,31
 128 321 128 321 102 257 c 0,32,33
 76 192 76 192 76 125 c 0,34,35
 76 -28 76 -28 181 -129 c 0,36,37
 287 -229 287 -229 448 -229 c 0,38,39
 618 -229 618 -229 713 -145 c 0,40,41
 807 -62 807 -62 807 89 c 0,42,43
 807 140 807 140 781 176 c 256,44,45
 755 212 755 212 718 212 c 0,46,47
 697 212 697 212 680 200 c 1,48,-1
 680 0 l 1,49,-1
 605 0 l 1,50,-1
 605 370 l 1,51,-1
 435 370 l 2,52,53
 344 370 344 370 279 316 c 0,54,55
 215 262 215 262 215 185 c 0,56,57
 215 139 215 139 232 103 c 0,58,59
 248 67 248 67 277 50 c 1,60,61
 267 62 267 62 261 79 c 0,62,63
 256 96 256 96 256 115 c 0,64,65
 256 173 256 173 285 207 c 0,66,67
 315 242 315 242 364 242 c 0,68,69
 423 242 423 242 458 209 c 0,70,71
 493 175 493 175 493 120 c 0,72,73
 493 64 493 64 454 31 c 0,74,75
 416 -3 416 -3 352 -3 c 0,76,77
 276 -3 276 -3 231 48 c 0,78,79
 185 99 185 99 185 184 c 0,80,81
 185 278 185 278 256 339 c 0,82,83
 328 400 328 400 437 400 c 2,84,-1
 612 400 l 1,85,86
 598 414 598 414 591 436 c 0,87,88
 583 459 583 459 583 486 c 0,89,90
 583 556 583 556 637 605 c 0,91,92
 690 654 690 654 766 654 c 0,93,94
 839 654 839 654 882 621 c 0,95,96
 926 589 926 589 926 535 c 0,97,98
 926 493 926 493 899 467 c 0,99,100
 872 442 872 442 828 442 c 0,101,102
 787 442 787 442 759 469 c 0,103,104
 730 496 730 496 730 534 c 0,105,106
 730 559 730 559 738 579 c 0,107,108
 745 599 745 599 759 610 c 1,109,110
 699 610 699 610 656 573 c 256,111,112
 613 536 613 536 613 483 c 0,113,114
 613 460 613 460 623 438 c 0,115,116
 634 417 634 417 653 400 c 1,117,-1
 801 400 l 1,118,-1
 801 370 l 1,119,-1
 680 370 l 1,120,-1
 680 228 l 1,121,122
 711 242 711 242 747 242 c 0,123,124
 816 242 816 242 857 200 c 256,125,126
 898 158 898 158 898 88 c 1,127,-1
 898 88 l 1,17,18
418 119 m 1,128,129
 418 152 418 152 399 175 c 0,130,131
 379 198 379 198 352 198 c 256,132,133
 325 198 325 198 305 174 c 0,134,135
 286 151 286 151 286 117 c 0,136,137
 286 86 286 86 305 64 c 0,138,139
 325 42 325 42 352 42 c 256,140,141
 379 42 379 42 399 65 c 0,142,143
 418 87 418 87 418 119 c 1,144,-1
 418 119 l 1,128,129
EndSplineSet
Ligature2: "'abvs' Above Base Substitutions in Tamil lookup 2 subtable" uni0B9E uni0BC0
EndChar

StartChar: uni0B9F_uni0BC0
Encoding: 360 -1 105
Width: 774
GlyphClass: 2
Flags: W
LayerCount: 2
Back
Fore
SplineSet
769 0 m 1,0,-1
 70 0 l 1,1,-1
 70 400 l 1,2,-1
 145 400 l 1,3,-1
 145 30 l 1,4,-1
 424 30 l 1,5,6
 380 52 380 52 355 97 c 0,7,8
 329 142 329 142 329 197 c 0,9,10
 329 269 329 269 383 319 c 0,11,12
 437 370 437 370 513 370 c 0,13,14
 592 370 592 370 633 339 c 0,15,16
 673 308 673 308 673 248 c 0,17,18
 673 207 673 207 644 183 c 0,19,20
 616 158 616 158 568 158 c 0,21,22
 527 158 527 158 502 184 c 256,23,24
 477 210 477 210 477 253 c 0,25,26
 477 275 477 275 484 295 c 256,27,28
 491 315 491 315 505 331 c 1,29,30
 443 326 443 326 401 286 c 0,31,32
 359 247 359 247 359 195 c 0,33,34
 359 145 359 145 389 101 c 0,35,36
 419 56 419 56 470 30 c 1,37,-1
 769 30 l 1,38,-1
 769 0 l 1,39,-1
 769 0 l 1,0,-1
598 253 m 1,40,41
 598 282 598 282 585 302 c 0,42,43
 572 323 572 323 554 323 c 0,44,45
 535 323 535 323 521 303 c 256,46,47
 507 283 507 283 507 254 c 0,48,49
 507 227 507 227 520 207 c 0,50,51
 534 188 534 188 553 188 c 256,52,53
 572 188 572 188 585 207 c 256,54,55
 598 226 598 226 598 253 c 1,56,-1
 598 253 l 1,40,41
EndSplineSet
Ligature2: "'abvs' Above Base Substitutions in Tamil lookup 2 subtable" uni0B9F uni0BC0
EndChar

StartChar: uni0BA3_uni0BC0
Encoding: 361 -1 106
Width: 1175
GlyphClass: 2
Flags: W
LayerCount: 2
Back
Fore
SplineSet
1298 530 m 1,0,1
 1298 486 1298 486 1271 459 c 256,2,3
 1244 432 1244 432 1200 432 c 256,4,5
 1156 432 1156 432 1129 460 c 0,6,7
 1102 489 1102 489 1102 536 c 0,8,9
 1102 560 1102 560 1109 579 c 0,10,11
 1117 599 1117 599 1130 610 c 1,12,13
 1073 610 1073 610 1032 575 c 0,14,15
 992 541 992 541 992 492 c 0,16,17
 992 469 992 469 1003 446 c 0,18,19
 1014 422 1014 422 1034 400 c 1,20,-1
 1169 400 l 1,21,-1
 1169 369 l 1,22,-1
 1061 369 l 1,23,-1
 1061 0 l 1,24,-1
 986 0 l 1,25,-1
 986 369 l 1,26,-1
 928 369 l 2,27,28
 891 369 891 369 861 360 c 0,29,30
 830 352 830 352 809 335 c 1,31,32
 850 295 850 295 873 244 c 0,33,34
 895 192 895 192 895 137 c 0,35,36
 895 72 895 72 866 33 c 0,37,38
 836 -6 836 -6 787 -6 c 256,39,40
 738 -6 738 -6 709 33 c 256,41,42
 680 72 680 72 680 137 c 0,43,44
 680 186 680 186 696 232 c 0,45,46
 713 278 713 278 744 315 c 1,47,48
 722 341 722 341 693 355 c 256,49,50
 664 369 664 369 633 369 c 256,51,52
 602 369 602 369 574 359 c 256,53,54
 546 349 546 349 523 330 c 1,55,56
 565 292 565 292 589 241 c 0,57,58
 612 191 612 191 612 137 c 0,59,60
 612 72 612 72 580 33 c 0,61,62
 549 -6 549 -6 496 -6 c 0,63,64
 445 -6 445 -6 414 33 c 256,65,66
 383 72 383 72 383 137 c 0,67,68
 383 185 383 185 401 230 c 0,69,70
 420 275 420 275 454 312 c 1,71,72
 423 340 423 340 379 354 c 0,73,74
 335 369 335 369 283 369 c 0,75,76
 194 369 194 369 132 312 c 0,77,78
 69 255 69 255 69 175 c 0,79,80
 69 125 69 125 88 88 c 0,81,82
 106 51 106 51 137 39 c 1,83,84
 124 54 124 54 118 74 c 0,85,86
 111 95 111 95 111 118 c 0,87,88
 111 168 111 168 138 199 c 0,89,90
 166 229 166 229 211 229 c 0,91,92
 257 229 257 229 289 197 c 256,93,94
 321 165 321 165 321 120 c 0,95,96
 321 63 321 63 285 28 c 0,97,98
 250 -6 250 -6 191 -6 c 0,99,100
 128 -6 128 -6 84 46 c 0,101,102
 39 99 39 99 39 173 c 0,103,104
 39 276 39 276 111 337 c 0,105,106
 183 399 183 399 302 399 c 0,107,108
 367 399 367 399 417 386 c 0,109,110
 467 374 467 374 495 350 c 1,111,112
 523 374 523 374 560 386 c 0,113,114
 598 399 598 399 639 399 c 0,115,116
 685 399 685 399 722 388 c 0,117,118
 760 377 760 377 785 357 c 1,119,120
 842 400 842 400 906 400 c 2,121,-1
 1000 400 l 1,122,123
 982 421 982 421 972 446 c 0,124,125
 962 472 962 472 962 498 c 0,126,127
 962 568 962 568 1010 610 c 256,128,129
 1058 652 1058 652 1137 652 c 0,130,131
 1217 652 1217 652 1257 621 c 0,132,133
 1298 590 1298 590 1298 530 c 1,134,-1
 1298 530 l 1,0,1
1223 535 m 1,135,136
 1223 567 1223 567 1211 586 c 256,137,138
 1199 605 1199 605 1179 605 c 0,139,140
 1158 605 1158 605 1145 586 c 256,141,142
 1132 567 1132 567 1132 536 c 0,143,144
 1132 502 1132 502 1145 482 c 0,145,146
 1157 462 1157 462 1178 462 c 0,147,148
 1198 462 1198 462 1211 482 c 0,149,150
 1223 502 1223 502 1223 535 c 1,151,-1
 1223 535 l 1,135,136
820 137 m 1,152,153
 820 181 820 181 806 220 c 0,154,155
 792 260 792 260 765 288 c 1,156,157
 739 261 739 261 724 221 c 0,158,159
 710 182 710 182 710 137 c 0,160,161
 710 98 710 98 727 71 c 256,162,163
 744 44 744 44 768 44 c 0,164,165
 790 44 790 44 805 71 c 256,166,167
 820 98 820 98 820 137 c 1,168,-1
 820 137 l 1,152,153
537 137 m 1,169,170
 537 180 537 180 522 219 c 0,171,172
 506 259 506 259 478 289 c 1,173,174
 447 259 447 259 430 219 c 0,175,176
 413 180 413 180 413 137 c 0,177,178
 413 98 413 98 431 71 c 256,179,180
 449 44 449 44 474 44 c 0,181,182
 500 44 500 44 519 71 c 0,183,184
 537 98 537 98 537 137 c 1,185,-1
 537 137 l 1,169,170
246 118 m 1,186,187
 246 147 246 147 230 168 c 256,188,189
 214 189 214 189 192 189 c 0,190,191
 171 189 171 189 156 168 c 256,192,193
 141 147 141 147 141 117 c 256,194,195
 141 87 141 87 156 65 c 0,196,197
 171 44 171 44 192 44 c 0,198,199
 214 44 214 44 230 66 c 0,200,201
 246 87 246 87 246 118 c 1,202,-1
 246 118 l 1,186,187
EndSplineSet
Ligature2: "'abvs' Above Base Substitutions in Tamil lookup 2 subtable" uni0BA3 uni0BC0
EndChar

StartChar: uni0BA4_uni0BC0
Encoding: 362 -1 107
Width: 577
GlyphClass: 2
Flags: W
LayerCount: 2
Back
Fore
SplineSet
454 535 m 1,0,1
 454 564 454 564 441 584 c 256,2,3
 428 604 428 604 410 604 c 0,4,5
 391 604 391 604 378 584 c 256,6,7
 365 564 365 564 365 535 c 0,8,9
 365 509 365 509 378 490 c 0,10,11
 391 472 391 472 409 472 c 0,12,13
 428 472 428 472 441 490 c 0,14,15
 454 509 454 509 454 535 c 1,16,-1
 454 535 l 1,0,1
548 90 m 1,17,18
 548 5 548 5 485 -47 c 0,19,20
 421 -98 421 -98 316 -98 c 2,21,-1
 104 -98 l 2,22,23
 80 -98 80 -98 63 -109 c 0,24,25
 46 -121 46 -121 46 -137 c 1,26,-1
 56 -135 l 2,27,28
 73 -135 73 -135 85 -148 c 0,29,30
 97 -160 97 -160 97 -178 c 256,31,32
 97 -196 97 -196 83 -209 c 256,33,34
 69 -222 69 -222 50 -222 c 0,35,36
 30 -222 30 -222 15 -206 c 0,37,38
 1 -191 1 -191 1 -169 c 0,39,40
 1 -127 1 -127 32 -98 c 0,41,42
 64 -68 64 -68 108 -68 c 2,43,-1
 320 -68 l 2,44,45
 383 -68 383 -68 428 -22 c 0,46,47
 473 23 473 23 473 88 c 0,48,49
 473 128 473 128 451 157 c 0,50,51
 428 185 428 185 397 185 c 2,52,-1
 368 185 l 1,53,-1
 368 137 l 2,54,55
 368 68 368 68 319 33 c 256,56,57
 270 -2 270 -2 173 -2 c 0,58,59
 116 -2 116 -2 76 39 c 0,60,61
 36 79 36 79 36 137 c 0,62,63
 36 172 36 172 62 194 c 0,64,65
 88 215 88 215 131 215 c 1,66,67
 100 245 100 245 83 289 c 0,68,69
 66 332 66 332 66 382 c 0,70,71
 66 494 66 494 151 573 c 256,72,73
 236 652 236 652 356 652 c 0,74,75
 438 652 438 652 484 620 c 0,76,77
 529 588 529 588 529 530 c 0,78,79
 529 490 529 490 500 466 c 256,80,81
 471 442 471 442 422 442 c 0,82,83
 383 442 383 442 359 467 c 0,84,85
 335 493 335 493 335 535 c 0,86,87
 335 553 335 553 342 571 c 0,88,89
 348 589 348 589 361 604 c 1,90,91
 241 604 241 604 168 544 c 0,92,93
 96 483 96 483 96 383 c 0,94,95
 96 333 96 333 112 293 c 256,96,97
 128 253 128 253 156 230 c 1,98,-1
 156 400 l 1,99,-1
 502 400 l 1,100,-1
 502 370 l 1,101,-1
 368 370 l 1,102,-1
 368 215 l 1,103,-1
 408 215 l 2,104,105
 466 215 466 215 507 178 c 0,106,107
 548 142 548 142 548 90 c 1,108,-1
 548 90 l 1,17,18
293 215 m 1,109,-1
 293 370 l 1,110,-1
 186 370 l 1,111,-1
 186 215 l 1,112,-1
 293 215 l 1,113,-1
 293 215 l 1,109,-1
293 137 m 1,114,-1
 293 185 l 1,115,-1
 124 185 l 2,116,117
 100 185 100 185 83 171 c 256,118,119
 66 157 66 157 66 137 c 0,120,121
 66 88 66 88 95 58 c 0,122,123
 125 28 125 28 174 28 c 256,124,125
 223 28 223 28 258 60 c 256,126,127
 293 92 293 92 293 137 c 1,128,-1
 293 137 l 1,114,-1
EndSplineSet
Ligature2: "'abvs' Above Base Substitutions in Tamil lookup 2 subtable" uni0BA4 uni0BC0
EndChar

StartChar: uni0BA8_uni0BC0
Encoding: 363 -1 108
Width: 572
GlyphClass: 2
Flags: W
LayerCount: 2
Back
Fore
SplineSet
577 540 m 1,0,1
 577 495 577 495 551 468 c 256,2,3
 525 441 525 441 482 441 c 256,4,5
 439 441 439 441 413 467 c 0,6,7
 387 492 387 492 387 535 c 0,8,9
 387 561 387 561 394 580 c 0,10,11
 401 600 401 600 413 610 c 1,12,13
 354 610 354 610 312 574 c 0,14,15
 270 539 270 539 270 488 c 0,16,17
 270 461 270 461 279 438 c 0,18,19
 287 415 287 415 303 400 c 1,20,-1
 514 400 l 1,21,-1
 514 370 l 1,22,-1
 331 370 l 1,23,-1
 331 230 l 1,24,25
 359 247 359 247 402 247 c 0,26,27
 458 247 458 247 497 205 c 256,28,29
 536 163 536 163 536 104 c 0,30,31
 536 8 536 8 480 -45 c 256,32,33
 424 -98 424 -98 322 -98 c 2,34,-1
 142 -98 l 2,35,36
 117 -98 117 -98 99 -109 c 0,37,38
 80 -120 80 -120 76 -137 c 1,39,-1
 94 -135 l 2,40,41
 111 -135 111 -135 122 -148 c 0,42,43
 134 -162 134 -162 134 -181 c 0,44,45
 134 -197 134 -197 121 -209 c 0,46,47
 107 -220 107 -220 88 -220 c 0,48,49
 68 -220 68 -220 53 -205 c 0,50,51
 39 -190 39 -190 39 -169 c 0,52,53
 39 -127 39 -127 70 -98 c 0,54,55
 102 -68 102 -68 146 -68 c 2,56,-1
 325 -68 l 2,57,58
 392 -68 392 -68 427 -24 c 0,59,60
 461 19 461 19 461 105 c 0,61,62
 461 151 461 151 437 184 c 0,63,64
 414 217 414 217 380 217 c 0,65,66
 368 217 368 217 356 211 c 0,67,68
 343 205 343 205 331 194 c 1,69,-1
 331 0 l 1,70,-1
 256 0 l 1,71,-1
 256 370 l 1,72,-1
 100 370 l 1,73,-1
 100 0 l 1,74,-1
 70 0 l 1,75,-1
 70 400 l 1,76,-1
 264 400 l 1,77,78
 240 437 240 437 240 489 c 0,79,80
 240 557 240 557 293 606 c 0,81,82
 346 654 346 654 421 654 c 0,83,84
 501 654 501 654 539 626 c 0,85,86
 577 599 577 599 577 540 c 1,87,-1
 577 540 l 1,0,1
502 535 m 1,88,89
 502 564 502 564 489 584 c 0,90,91
 476 605 476 605 458 605 c 0,92,93
 441 605 441 605 429 585 c 256,94,95
 417 565 417 565 417 536 c 0,96,97
 417 509 417 509 429 490 c 0,98,99
 440 471 440 471 457 471 c 0,100,101
 476 471 476 471 489 490 c 0,102,103
 502 508 502 508 502 535 c 1,104,-1
 502 535 l 1,88,89
EndSplineSet
Ligature2: "'abvs' Above Base Substitutions in Tamil lookup 2 subtable" uni0BA8 uni0BC0
EndChar

StartChar: uni0BA9_uni0BC0
Encoding: 364 -1 109
Width: 882
GlyphClass: 2
Flags: W
LayerCount: 2
Back
Fore
SplineSet
1021 530 m 1,0,1
 1021 490 1021 490 994 465 c 0,2,3
 967 441 967 441 923 441 c 256,4,5
 879 441 879 441 852 467 c 0,6,7
 826 492 826 492 826 535 c 0,8,9
 826 561 826 561 834 581 c 256,10,11
 842 601 842 601 857 610 c 1,12,13
 798 610 798 610 756 574 c 0,14,15
 714 539 714 539 714 488 c 0,16,17
 714 463 714 463 722 441 c 0,18,19
 729 418 729 418 744 400 c 1,20,-1
 876 400 l 1,21,-1
 876 367 l 1,22,-1
 768 367 l 1,23,-1
 768 0 l 1,24,-1
 693 0 l 1,25,-1
 693 367 l 1,26,-1
 635 367 l 2,27,28
 592 367 592 367 559 357 c 0,29,30
 527 346 527 346 510 327 c 1,31,32
 551 291 551 291 574 241 c 256,33,34
 597 191 597 191 597 137 c 0,35,36
 597 78 597 78 566 37 c 0,37,38
 534 -5 534 -5 490 -5 c 256,39,40
 446 -5 446 -5 414 37 c 0,41,42
 383 78 383 78 383 137 c 0,43,44
 383 190 383 190 401 236 c 0,45,46
 420 282 420 282 453 312 c 1,47,48
 421 339 421 339 377 353 c 256,49,50
 333 367 333 367 282 367 c 0,51,52
 193 367 193 367 130 310 c 256,53,54
 67 253 67 253 67 172 c 0,55,56
 67 121 67 121 88 83 c 0,57,58
 108 45 108 45 141 35 c 1,59,60
 126 45 126 45 117 70 c 0,61,62
 108 94 108 94 108 127 c 0,63,64
 108 176 108 176 136 205 c 0,65,66
 165 234 165 234 212 234 c 0,67,68
 255 234 255 234 286 201 c 0,69,70
 317 167 317 167 317 120 c 0,71,72
 317 63 317 63 281 29 c 256,73,74
 245 -5 245 -5 185 -5 c 0,75,76
 124 -5 124 -5 80 46 c 0,77,78
 37 98 37 98 37 170 c 0,79,80
 37 264 37 264 113 331 c 0,81,82
 188 397 188 397 295 397 c 0,83,84
 360 397 360 397 410 384 c 0,85,86
 461 372 461 372 490 348 c 1,87,88
 511 373 511 373 549 386 c 0,89,90
 587 400 587 400 636 400 c 2,91,-1
 707 400 l 1,92,93
 684 437 684 437 684 489 c 0,94,95
 684 557 684 557 738 606 c 0,96,97
 793 654 793 654 870 654 c 0,98,99
 939 654 939 654 980 620 c 256,100,101
 1021 586 1021 586 1021 530 c 1,102,-1
 1021 530 l 1,0,1
946 535 m 1,103,104
 946 564 946 564 933 584 c 0,105,106
 920 605 920 605 902 605 c 0,107,108
 883 605 883 605 869 585 c 0,109,110
 856 565 856 565 856 536 c 0,111,112
 856 509 856 509 869 490 c 256,113,114
 882 471 882 471 901 471 c 256,115,116
 920 471 920 471 933 490 c 0,117,118
 946 508 946 508 946 535 c 1,119,-1
 946 535 l 1,103,104
522 137 m 1,120,121
 522 184 522 184 508 223 c 0,122,123
 493 261 493 261 467 284 c 1,124,125
 441 264 441 264 427 225 c 0,126,127
 413 187 413 187 413 137 c 0,128,129
 413 100 413 100 429 73 c 0,130,131
 445 47 445 47 468 47 c 0,132,133
 490 47 490 47 506 73 c 0,134,135
 522 100 522 100 522 137 c 1,136,-1
 522 137 l 1,120,121
242 120 m 1,137,138
 242 149 242 149 227 169 c 256,139,140
 212 189 212 189 190 189 c 256,141,142
 168 189 168 189 153 169 c 0,143,144
 138 150 138 150 138 122 c 0,145,146
 138 91 138 91 154 69 c 256,147,148
 170 47 170 47 192 47 c 0,149,150
 213 47 213 47 227 68 c 0,151,152
 242 90 242 90 242 120 c 1,153,-1
 242 120 l 1,137,138
EndSplineSet
Ligature2: "'abvs' Above Base Substitutions in Tamil lookup 2 subtable" uni0BA9 uni0BC0
EndChar

StartChar: uni0BAA_uni0BC0
Encoding: 365 -1 110
Width: 665
GlyphClass: 2
Flags: W
LayerCount: 2
Back
Fore
SplineSet
766 535 m 1,0,1
 766 493 766 493 737 467 c 0,2,3
 709 442 709 442 661 442 c 0,4,5
 620 442 620 442 596 467 c 0,6,7
 571 492 571 492 571 534 c 0,8,9
 571 559 571 559 579 579 c 0,10,11
 586 599 586 599 600 611 c 1,12,13
 531 611 531 611 483 567 c 0,14,15
 434 523 434 523 434 460 c 0,16,17
 434 409 434 409 459 374 c 0,18,19
 484 338 484 338 520 338 c 1,20,-1
 520 400 l 1,21,-1
 595 400 l 1,22,-1
 595 0 l 1,23,-1
 70 0 l 1,24,-1
 70 400 l 1,25,-1
 145 400 l 1,26,-1
 145 30 l 1,27,-1
 520 30 l 1,28,-1
 520 307 l 1,29,30
 472 307 472 307 438 353 c 256,31,32
 404 399 404 399 404 464 c 0,33,34
 404 542 404 542 462 597 c 256,35,36
 520 652 520 652 602 652 c 0,37,38
 676 652 676 652 721 620 c 256,39,40
 766 588 766 588 766 535 c 1,41,-1
 766 535 l 1,0,1
691 535 m 1,42,43
 691 564 691 564 678 584 c 0,44,45
 666 604 666 604 648 604 c 0,46,47
 629 604 629 604 615 584 c 256,48,49
 601 564 601 564 601 535 c 0,50,51
 601 509 601 509 614 490 c 0,52,53
 628 472 628 472 647 472 c 0,54,55
 665 472 665 472 678 490 c 0,56,57
 691 509 691 509 691 535 c 1,58,-1
 691 535 l 1,42,43
EndSplineSet
Ligature2: "'abvs' Above Base Substitutions in Tamil lookup 2 subtable" uni0BAA uni0BC0
EndChar

StartChar: uni0BAE_uni0BC0
Encoding: 366 -1 111
Width: 681
GlyphClass: 2
Flags: W
LayerCount: 2
Back
Fore
SplineSet
331 272 m 1,0,1
 331 320 331 320 365 357 c 0,2,3
 400 394 400 394 452 402 c 1,4,5
 424 442 424 442 424 498 c 0,6,7
 424 568 424 568 472 610 c 256,8,9
 520 652 520 652 599 652 c 256,10,11
 678 652 678 652 719 621 c 0,12,13
 759 590 759 590 759 530 c 0,14,15
 759 490 759 490 730 466 c 0,16,17
 702 442 702 442 654 442 c 0,18,19
 613 442 613 442 589 468 c 0,20,21
 564 493 564 493 564 536 c 0,22,23
 564 560 564 560 571 579 c 0,24,25
 579 599 579 599 592 610 c 1,26,27
 535 610 535 610 494 575 c 0,28,29
 454 541 454 541 454 492 c 0,30,31
 454 441 454 441 483 404 c 1,32,33
 546 404 546 404 591 338 c 256,34,35
 636 272 636 272 636 178 c 0,36,37
 636 97 636 97 603 49 c 0,38,39
 570 0 570 0 515 0 c 2,40,-1
 70 0 l 1,41,-1
 70 400 l 1,42,-1
 145 400 l 1,43,-1
 145 30 l 1,44,-1
 331 30 l 1,45,-1
 331 272 l 1,46,-1
 331 272 l 1,0,1
406 275 m 1,47,-1
 406 30 l 1,48,-1
 505 30 l 2,49,50
 551 30 551 30 578 71 c 0,51,52
 606 112 606 112 606 180 c 0,53,54
 606 267 606 267 573 319 c 0,55,56
 539 371 539 371 484 371 c 0,57,58
 452 371 452 371 429 343 c 256,59,60
 406 315 406 315 406 275 c 1,61,-1
 406 275 l 1,47,-1
684 535 m 1,62,63
 684 567 684 567 672 586 c 0,64,65
 661 605 661 605 641 605 c 0,66,67
 620 605 620 605 607 586 c 256,68,69
 594 567 594 567 594 536 c 0,70,71
 594 507 594 507 607 489 c 0,72,73
 619 472 619 472 640 472 c 0,74,75
 660 472 660 472 672 489 c 256,76,77
 684 506 684 506 684 535 c 1,78,-1
 684 535 l 1,62,63
EndSplineSet
Ligature2: "'abvs' Above Base Substitutions in Tamil lookup 2 subtable" uni0BAE uni0BC0
EndChar

StartChar: uni0BAF_uni0BC0
Encoding: 367 -1 112
Width: 683
GlyphClass: 2
Flags: W
LayerCount: 2
Back
Fore
SplineSet
784 535 m 1,0,1
 784 493 784 493 754 467 c 0,2,3
 724 442 724 442 675 442 c 0,4,5
 636 442 636 442 612 467 c 256,6,7
 588 492 588 492 588 534 c 0,8,9
 588 558 588 558 596 578 c 0,10,11
 603 599 603 599 617 611 c 1,12,13
 549 611 549 611 500 567 c 0,14,15
 452 523 452 523 452 460 c 0,16,17
 452 409 452 409 477 374 c 0,18,19
 502 338 502 338 538 338 c 1,20,-1
 538 400 l 1,21,-1
 613 400 l 1,22,-1
 613 0 l 1,23,-1
 261 0 l 1,24,-1
 261 66 l 1,25,26
 253 37 253 37 226 19 c 256,27,28
 199 1 199 1 164 1 c 0,29,30
 123 1 123 1 93 36 c 0,31,32
 64 70 64 70 64 119 c 2,33,-1
 64 400 l 1,34,-1
 139 400 l 1,35,-1
 139 113 l 2,36,37
 139 79 139 79 154 55 c 256,38,39
 169 31 169 31 191 31 c 256,40,41
 213 31 213 31 228 55 c 0,42,43
 244 78 244 78 244 112 c 2,44,-1
 244 400 l 1,45,-1
 319 400 l 1,46,-1
 319 30 l 1,47,-1
 538 30 l 1,48,-1
 538 307 l 1,49,50
 490 307 490 307 456 352 c 0,51,52
 422 398 422 398 422 462 c 0,53,54
 422 541 422 541 480 596 c 0,55,56
 537 652 537 652 619 652 c 0,57,58
 697 652 697 652 741 621 c 0,59,60
 784 591 784 591 784 535 c 1,61,-1
 784 535 l 1,0,1
709 535 m 1,62,63
 709 564 709 564 696 584 c 256,64,65
 683 604 683 604 665 604 c 0,66,67
 646 604 646 604 632 584 c 256,68,69
 618 564 618 564 618 535 c 0,70,71
 618 509 618 509 631 490 c 0,72,73
 645 472 645 472 664 472 c 256,74,75
 683 472 683 472 696 490 c 0,76,77
 709 509 709 509 709 535 c 1,78,-1
 709 535 l 1,62,63
EndSplineSet
Ligature2: "'abvs' Above Base Substitutions in Tamil lookup 2 subtable" uni0BAF uni0BC0
EndChar

StartChar: uni0BB0_uni0BC0
Encoding: 368 -1 113
Width: 450
GlyphClass: 2
Flags: W
LayerCount: 2
Back
Fore
SplineSet
496 535 m 1,0,1
 496 564 496 564 483 584 c 0,2,3
 470 605 470 605 452 605 c 0,4,5
 433 605 433 605 419 585 c 256,6,7
 405 565 405 565 405 536 c 0,8,9
 405 509 405 509 418 490 c 0,10,11
 432 471 432 471 451 471 c 256,12,13
 470 471 470 471 483 490 c 0,14,15
 496 508 496 508 496 535 c 1,16,-1
 496 535 l 1,0,1
323 14 m 1,17,-1
 62 -165 l 1,18,-1
 46 -142 l 1,19,-1
 248 0 l 1,20,-1
 248 370 l 1,21,-1
 100 370 l 1,22,-1
 100 0 l 1,23,-1
 70 0 l 1,24,-1
 70 400 l 1,25,-1
 263 400 l 1,26,27
 234 438 234 438 234 494 c 0,28,29
 234 560 234 560 287 607 c 256,30,31
 340 654 340 654 415 654 c 0,32,33
 486 654 486 654 528 620 c 0,34,35
 571 586 571 586 571 530 c 0,36,37
 571 493 571 493 541 467 c 256,38,39
 511 441 511 441 469 441 c 0,40,41
 426 441 426 441 401 467 c 0,42,43
 375 492 375 492 375 535 c 0,44,45
 375 561 375 561 383 581 c 256,46,47
 391 601 391 601 406 610 c 1,48,49
 347 610 347 610 306 573 c 0,50,51
 264 536 264 536 264 483 c 0,52,53
 264 458 264 458 273 437 c 0,54,55
 281 415 281 415 297 400 c 1,56,-1
 445 400 l 1,57,-1
 445 370 l 1,58,-1
 323 370 l 1,59,-1
 323 14 l 1,60,-1
 323 14 l 1,17,-1
EndSplineSet
Ligature2: "'abvs' Above Base Substitutions in Tamil lookup 2 subtable" uni0BB0 uni0BC0
EndChar

StartChar: uni0BB1_uni0BC0
Encoding: 369 -1 114
Width: 636
GlyphClass: 2
Flags: W
LayerCount: 2
Back
Fore
SplineSet
699 530 m 1,0,1
 699 490 699 490 673 465 c 0,2,3
 647 441 647 441 603 441 c 0,4,5
 560 441 560 441 535 467 c 0,6,7
 509 492 509 492 509 535 c 0,8,9
 509 560 509 560 516 580 c 256,10,11
 523 600 523 600 536 610 c 1,12,13
 480 610 480 610 440 573 c 0,14,15
 400 537 400 537 400 485 c 0,16,17
 400 438 400 438 429 398 c 1,18,19
 498 391 498 391 545 326 c 0,20,21
 591 261 591 261 591 172 c 0,22,23
 591 60 591 60 524 -19 c 256,24,25
 457 -98 457 -98 362 -98 c 2,26,-1
 153 -98 l 2,27,28
 128 -98 128 -98 110 -109 c 0,29,30
 91 -120 91 -120 87 -137 c 1,31,-1
 105 -135 l 2,32,33
 122 -135 122 -135 133 -148 c 0,34,35
 145 -162 145 -162 145 -181 c 0,36,37
 145 -197 145 -197 132 -209 c 0,38,39
 118 -220 118 -220 99 -220 c 0,40,41
 79 -220 79 -220 64 -204 c 0,42,43
 50 -187 50 -187 50 -164 c 0,44,45
 50 -124 50 -124 80 -96 c 256,46,47
 110 -68 110 -68 152 -68 c 2,48,-1
 359 -68 l 2,49,50
 424 -68 424 -68 470 2 c 0,51,52
 516 73 516 73 516 172 c 0,53,54
 516 252 516 252 484 308 c 256,55,56
 452 364 452 364 406 364 c 0,57,58
 370 364 370 364 345 335 c 0,59,60
 320 307 320 307 320 266 c 2,61,-1
 320 0 l 1,62,-1
 245 0 l 1,63,-1
 245 310 l 2,64,65
 245 337 245 337 223 355 c 0,66,67
 202 374 202 374 171 374 c 256,68,69
 140 374 140 374 117 353 c 0,70,71
 95 333 95 333 95 304 c 2,72,-1
 95 0 l 1,73,-1
 65 0 l 1,74,-1
 65 302 l 2,75,76
 65 344 65 344 98 374 c 256,77,78
 131 404 131 404 177 404 c 0,79,80
 221 404 221 404 256 384 c 0,81,82
 290 364 290 364 302 331 c 1,83,84
 313 358 313 358 338 376 c 256,85,86
 363 394 363 394 396 398 c 1,87,88
 370 438 370 438 370 486 c 0,89,90
 370 556 370 556 421 605 c 256,91,92
 472 654 472 654 544 654 c 0,93,94
 621 654 621 654 660 623 c 0,95,96
 699 591 699 591 699 530 c 1,97,-1
 699 530 l 1,0,1
624 535 m 1,98,99
 624 564 624 564 611 584 c 0,100,101
 598 605 598 605 580 605 c 0,102,103
 563 605 563 605 551 585 c 256,104,105
 539 565 539 565 539 536 c 0,106,107
 539 509 539 509 551 490 c 256,108,109
 563 471 563 471 580 471 c 0,110,111
 598 471 598 471 611 490 c 0,112,113
 624 508 624 508 624 535 c 1,114,-1
 624 535 l 1,98,99
EndSplineSet
Ligature2: "'abvs' Above Base Substitutions in Tamil lookup 2 subtable" uni0BB1 uni0BC0
EndChar

StartChar: uni0BB2_uni0BC0
Encoding: 370 -1 115
Width: 736
GlyphClass: 2
Flags: W
LayerCount: 2
Back
Fore
SplineSet
825 535 m 1,0,1
 825 493 825 493 798 467 c 0,2,3
 770 442 770 442 725 442 c 0,4,5
 681 442 681 442 655 467 c 256,6,7
 629 492 629 492 629 534 c 0,8,9
 629 559 629 559 637 579 c 0,10,11
 644 599 644 599 658 611 c 1,12,13
 589 611 589 611 541 567 c 0,14,15
 492 523 492 523 492 460 c 0,16,17
 492 407 492 407 522 370 c 256,18,19
 552 333 552 333 595 333 c 1,20,-1
 571 360 l 2,21,22
 564 367 564 367 560 376 c 0,23,24
 556 384 556 384 556 392 c 0,25,26
 556 404 556 404 566 413 c 0,27,28
 575 422 575 422 589 422 c 0,29,30
 629 422 629 422 658 358 c 0,31,32
 686 294 686 294 686 204 c 0,33,34
 686 104 686 104 645 52 c 0,35,36
 603 1 603 1 522 1 c 0,37,38
 457 1 457 1 418 32 c 256,39,40
 379 63 379 63 379 114 c 2,41,-1
 379 247 l 2,42,43
 379 302 379 302 346 336 c 0,44,45
 313 369 313 369 259 369 c 0,46,47
 180 369 180 369 124 314 c 256,48,49
 68 259 68 259 68 182 c 0,50,51
 68 138 68 138 85 101 c 0,52,53
 103 65 103 65 133 44 c 1,54,55
 121 56 121 56 114 77 c 0,56,57
 108 97 108 97 108 123 c 0,58,59
 108 166 108 166 136 197 c 0,60,61
 163 228 163 228 202 228 c 0,62,63
 253 228 253 228 283 199 c 0,64,65
 314 169 314 169 314 120 c 0,66,67
 314 66 314 66 280 34 c 0,68,69
 247 1 247 1 191 1 c 0,70,71
 128 1 128 1 83 53 c 0,72,73
 38 106 38 106 38 180 c 0,74,75
 38 271 38 271 104 336 c 0,76,77
 169 400 169 400 262 400 c 0,78,79
 349 400 349 400 402 358 c 0,80,81
 454 316 454 316 454 246 c 2,82,-1
 454 117 l 2,83,84
 454 81 454 81 473 56 c 256,85,86
 492 31 492 31 519 31 c 0,87,88
 581 31 581 31 619 78 c 0,89,90
 656 126 656 126 656 204 c 0,91,92
 656 227 656 227 645 254 c 256,93,94
 634 281 634 281 614 309 c 1,95,-1
 600 309 l 2,96,97
 543 309 543 309 502 354 c 0,98,99
 462 399 462 399 462 462 c 0,100,101
 462 541 462 541 520 596 c 0,102,103
 578 652 578 652 660 652 c 0,104,105
 735 652 735 652 780 620 c 256,106,107
 825 588 825 588 825 535 c 1,108,-1
 825 535 l 1,0,1
750 535 m 1,109,110
 750 564 750 564 737 584 c 256,111,112
 724 604 724 604 706 604 c 0,113,114
 687 604 687 604 673 584 c 256,115,116
 659 564 659 564 659 535 c 0,117,118
 659 509 659 509 672 490 c 0,119,120
 686 472 686 472 705 472 c 256,121,122
 724 472 724 472 737 490 c 0,123,124
 750 509 750 509 750 535 c 1,125,-1
 750 535 l 1,109,110
239 119 m 1,126,127
 239 152 239 152 225 175 c 256,128,129
 211 198 211 198 191 198 c 0,130,131
 169 198 169 198 154 176 c 0,132,133
 138 155 138 155 138 124 c 0,134,135
 138 85 138 85 153 58 c 0,136,137
 167 31 167 31 188 31 c 256,138,139
 209 31 209 31 224 57 c 256,140,141
 239 83 239 83 239 119 c 1,142,-1
 239 119 l 1,126,127
EndSplineSet
Ligature2: "'abvs' Above Base Substitutions in Tamil lookup 2 subtable" uni0BB2 uni0BC0
EndChar

StartChar: uni0BB3_uni0BC0
Encoding: 371 -1 116
Width: 825
GlyphClass: 2
Flags: W
LayerCount: 2
Back
Fore
SplineSet
949 535 m 1,0,1
 949 490 949 490 922 463 c 256,2,3
 895 436 895 436 851 436 c 256,4,5
 807 436 807 436 780 463 c 0,6,7
 754 490 754 490 754 535 c 0,8,9
 754 559 754 559 762 579 c 256,10,11
 770 599 770 599 785 610 c 1,12,13
 726 610 726 610 684 576 c 0,14,15
 642 541 642 541 642 493 c 0,16,17
 642 466 642 466 651 442 c 256,18,19
 660 418 660 418 676 400 c 1,20,-1
 819 400 l 1,21,-1
 819 367 l 1,22,-1
 705 367 l 1,23,-1
 705 0 l 1,24,-1
 630 0 l 1,25,-1
 630 367 l 1,26,-1
 484 367 l 1,27,-1
 484 0 l 1,28,-1
 409 0 l 1,29,-1
 409 238 l 1,30,31
 389 296 389 296 348 331 c 0,32,33
 307 367 307 367 260 367 c 0,34,35
 180 367 180 367 124 309 c 0,36,37
 67 252 67 252 67 170 c 0,38,39
 67 126 67 126 90 90 c 0,40,41
 113 55 113 55 151 41 c 1,42,43
 136 58 136 58 128 80 c 256,44,45
 120 102 120 102 120 127 c 0,46,47
 120 176 120 176 149 206 c 0,48,49
 177 235 177 235 225 235 c 256,50,51
 273 235 273 235 302 204 c 256,52,53
 331 173 331 173 331 122 c 0,54,55
 331 66 331 66 295 33 c 0,56,57
 259 -1 259 -1 199 -1 c 0,58,59
 132 -1 132 -1 84 48 c 0,60,61
 37 98 37 98 37 168 c 0,62,63
 37 263 37 263 102 330 c 0,64,65
 168 397 168 397 260 397 c 0,66,67
 316 397 316 397 361 379 c 256,68,69
 406 361 406 361 431 329 c 1,70,-1
 431 400 l 1,71,-1
 643 400 l 1,72,73
 628 418 628 418 620 442 c 256,74,75
 612 466 612 466 612 494 c 0,76,77
 612 567 612 567 661 610 c 0,78,79
 711 654 711 654 793 654 c 0,80,81
 864 654 864 654 906 621 c 0,82,83
 949 589 949 589 949 535 c 1,84,-1
 949 535 l 1,0,1
874 535 m 1,85,86
 874 564 874 564 861 584 c 0,87,88
 848 605 848 605 830 605 c 0,89,90
 811 605 811 605 797 585 c 0,91,92
 784 565 784 565 784 536 c 256,93,94
 784 507 784 507 797 487 c 0,95,96
 810 466 810 466 829 466 c 256,97,98
 848 466 848 466 861 486 c 256,99,100
 874 506 874 506 874 535 c 1,101,-1
 874 535 l 1,85,86
256 119 m 1,102,103
 256 148 256 148 240 169 c 0,104,105
 225 190 225 190 203 190 c 256,106,107
 181 190 181 190 166 169 c 0,108,109
 150 148 150 148 150 118 c 0,110,111
 150 87 150 87 165 66 c 0,112,113
 180 44 180 44 202 44 c 256,114,115
 224 44 224 44 240 66 c 256,116,117
 256 88 256 88 256 119 c 1,118,-1
 256 119 l 1,102,103
EndSplineSet
Ligature2: "'abvs' Above Base Substitutions in Tamil lookup 2 subtable" uni0BB3 uni0BC0
EndChar

StartChar: uni0BB4_uni0BC0
Encoding: 372 -1 117
Width: 681
GlyphClass: 2
Flags: W
LayerCount: 2
Back
Fore
SplineSet
761 530 m 0,0,1
 761 490 761 490 733 465 c 0,2,3
 705 441 705 441 659 441 c 0,4,5
 620 441 620 441 596 467 c 0,6,7
 572 492 572 492 572 535 c 0,8,9
 572 561 572 561 579 580 c 0,10,11
 586 600 586 600 598 610 c 1,12,13
 542 610 542 610 502 573 c 0,14,15
 462 537 462 537 462 485 c 0,16,17
 462 462 462 462 470 440 c 256,18,19
 478 418 478 418 493 400 c 1,20,21
 554 392 554 392 595 333 c 256,22,23
 636 274 636 274 636 193 c 0,24,25
 636 105 636 105 603 53 c 0,26,27
 569 0 569 0 514 0 c 2,28,-1
 405 0 l 1,29,30
 405 -29 405 -29 418 -50 c 256,31,32
 431 -71 431 -71 449 -71 c 2,33,-1
 533 -71 l 1,34,-1
 533 -101 l 1,35,-1
 425 -101 l 2,36,37
 396 -101 396 -101 376 -126 c 0,38,39
 356 -150 356 -150 356 -185 c 0,40,41
 356 -224 356 -224 307 -252 c 0,42,43
 259 -280 259 -280 190 -280 c 0,44,45
 126 -280 126 -280 88 -251 c 256,46,47
 50 -222 50 -222 50 -173 c 0,48,49
 50 -131 50 -131 85 -101 c 256,50,51
 120 -71 120 -71 169 -71 c 0,52,53
 189 -71 189 -71 204 -86 c 0,54,55
 218 -100 218 -100 218 -121 c 0,56,57
 218 -138 218 -138 207 -151 c 0,58,59
 196 -163 196 -163 180 -163 c 0,60,61
 165 -163 165 -163 154 -152 c 256,62,63
 143 -141 143 -141 143 -126 c 0,64,65
 142 -120 142 -120 144 -114 c 0,66,67
 147 -108 147 -108 152 -105 c 1,68,69
 122 -105 122 -105 101 -125 c 256,70,71
 80 -145 80 -145 80 -174 c 0,72,73
 80 -205 80 -205 112 -228 c 0,74,75
 144 -250 144 -250 189 -250 c 0,76,77
 227 -250 227 -250 254 -224 c 0,78,79
 281 -197 281 -197 281 -160 c 256,80,81
 281 -123 281 -123 314 -97 c 0,82,83
 345 -71 345 -71 390 -71 c 1,84,85
 365 -67 365 -67 348 -48 c 0,86,87
 331 -28 331 -28 331 0 c 1,88,-1
 70 0 l 1,89,-1
 70 400 l 1,90,-1
 145 400 l 1,91,-1
 145 30 l 1,92,-1
 331 30 l 1,93,-1
 331 267 l 2,94,95
 331 317 331 317 368 355 c 0,96,97
 404 393 404 393 459 400 c 1,98,99
 446 417 446 417 439 439 c 256,100,101
 432 461 432 461 432 486 c 0,102,103
 432 556 432 556 483 605 c 0,104,105
 535 654 535 654 607 654 c 0,106,107
 680 654 680 654 721 621 c 0,108,109
 761 589 761 589 761 530 c 0,0,1
406 30 m 1,110,-1
 515 30 l 2,111,112
 553 30 553 30 579 78 c 0,113,114
 606 127 606 127 606 195 c 0,115,116
 606 266 606 266 570 316 c 0,117,118
 535 366 535 366 484 366 c 0,119,120
 452 366 452 366 429 338 c 256,121,122
 406 310 406 310 406 271 c 2,123,-1
 406 30 l 1,110,-1
686 535 m 0,124,125
 686 564 686 564 673 584 c 0,126,127
 661 605 661 605 643 605 c 0,128,129
 626 605 626 605 614 585 c 256,130,131
 602 565 602 565 602 536 c 0,132,133
 602 509 602 509 614 490 c 0,134,135
 625 471 625 471 642 471 c 0,136,137
 660 471 660 471 673 490 c 0,138,139
 686 508 686 508 686 535 c 0,124,125
EndSplineSet
Ligature2: "'abvs' Above Base Substitutions in Tamil lookup 2 subtable" uni0BB4 uni0BC0
EndChar

StartChar: uni0BB5_uni0BC0
Encoding: 373 -1 118
Width: 757
GlyphClass: 2
Flags: W
LayerCount: 2
Back
Fore
SplineSet
851 530 m 1,0,1
 851 488 851 488 824 462 c 0,2,3
 797 437 797 437 753 437 c 256,4,5
 709 437 709 437 682 463 c 0,6,7
 655 490 655 490 655 534 c 0,8,9
 655 558 655 558 663 578 c 0,10,11
 670 599 670 599 684 611 c 1,12,13
 615 611 615 611 566 567 c 256,14,15
 517 523 517 523 517 460 c 0,16,17
 517 409 517 409 545 374 c 0,18,19
 573 338 573 338 612 338 c 1,20,-1
 612 400 l 1,21,-1
 687 400 l 1,22,-1
 687 0 l 1,23,-1
 347 0 l 1,24,-1
 347 27 l 1,25,26
 384 46 384 46 405 91 c 0,27,28
 427 137 427 137 427 196 c 0,29,30
 427 266 427 266 374 316 c 0,31,32
 322 366 322 366 247 366 c 0,33,34
 173 366 173 366 120 312 c 0,35,36
 68 258 68 258 68 182 c 0,37,38
 68 138 68 138 85 101 c 0,39,40
 103 65 103 65 133 44 c 1,41,42
 121 59 121 59 114 79 c 0,43,44
 108 100 108 100 108 123 c 0,45,46
 108 171 108 171 134 199 c 0,47,48
 161 228 161 228 205 228 c 0,49,50
 254 228 254 228 284 199 c 256,51,52
 314 170 314 170 314 122 c 0,53,54
 314 67 314 67 282 34 c 256,55,56
 250 1 250 1 196 1 c 0,57,58
 124 1 124 1 81 50 c 0,59,60
 38 100 38 100 38 182 c 0,61,62
 38 271 38 271 104 333 c 0,63,64
 169 396 169 396 262 396 c 0,65,66
 361 396 361 396 432 335 c 0,67,68
 502 274 502 274 502 188 c 0,69,70
 502 135 502 135 486 93 c 256,71,72
 470 51 470 51 442 30 c 1,73,-1
 612 30 l 1,74,-1
 612 307 l 1,75,76
 560 309 560 309 523 355 c 0,77,78
 487 402 487 402 487 467 c 0,79,80
 487 544 487 544 545 598 c 0,81,82
 604 652 604 652 686 652 c 0,83,84
 761 652 761 652 806 619 c 0,85,86
 851 585 851 585 851 530 c 1,87,-1
 851 530 l 1,0,1
776 535 m 1,88,89
 776 564 776 564 763 584 c 256,90,91
 750 604 750 604 732 604 c 0,92,93
 713 604 713 604 699 584 c 256,94,95
 685 564 685 564 685 535 c 0,96,97
 685 509 685 509 698 490 c 0,98,99
 712 472 712 472 731 472 c 256,100,101
 750 472 750 472 763 490 c 0,102,103
 776 509 776 509 776 535 c 1,104,-1
 776 535 l 1,88,89
239 119 m 1,105,106
 239 152 239 152 225 175 c 256,107,108
 211 198 211 198 191 198 c 0,109,110
 169 198 169 198 154 175 c 0,111,112
 138 152 138 152 138 120 c 0,113,114
 138 83 138 83 153 57 c 0,115,116
 167 31 167 31 188 31 c 256,117,118
 209 31 209 31 224 57 c 256,119,120
 239 83 239 83 239 119 c 1,121,-1
 239 119 l 1,105,106
EndSplineSet
Ligature2: "'abvs' Above Base Substitutions in Tamil lookup 2 subtable" uni0BB5 uni0BC0
EndChar

StartChar: uni0BB7_uni0BC0
Encoding: 374 -1 119
Width: 999
GlyphClass: 2
Flags: W
LayerCount: 2
Back
Fore
SplineSet
961 535 m 1,0,1
 961 492 961 492 935 467 c 0,2,3
 909 441 909 441 865 441 c 0,4,5
 820 441 820 441 793 467 c 0,6,7
 766 492 766 492 766 535 c 0,8,9
 766 557 766 557 774 577 c 256,10,11
 782 597 782 597 797 610 c 1,12,13
 741 610 741 610 702 573 c 0,14,15
 662 537 662 537 662 485 c 0,16,17
 662 434 662 434 689 398 c 1,18,19
 722 393 722 393 744 366 c 256,20,21
 766 339 766 339 766 304 c 2,22,-1
 766 193 l 1,23,24
 817 193 817 193 862 223 c 256,25,26
 907 253 907 253 932 304 c 1,27,-1
 946 304 l 1,28,-1
 946 0 l 1,29,-1
 766 0 l 1,30,-1
 766 -242 l 1,31,-1
 691 -242 l 1,32,-1
 691 0 l 1,33,-1
 351 0 l 1,34,-1
 351 27 l 1,35,36
 388 48 388 48 410 94 c 0,37,38
 431 139 431 139 431 196 c 0,39,40
 431 264 431 264 382 311 c 0,41,42
 333 359 333 359 264 359 c 0,43,44
 182 359 182 359 125 307 c 0,45,46
 67 255 67 255 67 182 c 0,47,48
 67 139 67 139 86 103 c 0,49,50
 104 66 104 66 137 44 c 1,51,52
 125 59 125 59 118 78 c 0,53,54
 112 97 112 97 112 118 c 0,55,56
 112 172 112 172 139 205 c 0,57,58
 167 238 167 238 212 238 c 0,59,60
 260 238 260 238 289 206 c 0,61,62
 318 175 318 175 318 122 c 0,63,64
 318 65 318 65 284 30 c 0,65,66
 251 -4 251 -4 195 -4 c 0,67,68
 130 -4 130 -4 83 51 c 0,69,70
 37 107 37 107 37 185 c 0,71,72
 37 269 37 269 104 329 c 256,73,74
 171 389 171 389 266 389 c 0,75,76
 365 389 365 389 436 331 c 0,77,78
 506 272 506 272 506 190 c 0,79,80
 506 137 506 137 489 95 c 0,81,82
 473 52 473 52 443 30 c 1,83,-1
 691 30 l 1,84,-1
 691 164 l 1,85,86
 633 164 633 164 599 196 c 0,87,88
 564 228 564 228 564 281 c 0,89,90
 564 326 564 326 591 359 c 0,91,92
 617 392 617 392 657 398 c 1,93,94
 632 434 632 434 632 484 c 0,95,96
 632 554 632 554 683 604 c 256,97,98
 734 654 734 654 806 654 c 0,99,100
 876 654 876 654 919 621 c 0,101,102
 961 589 961 589 961 535 c 1,103,-1
 961 535 l 1,0,1
886 535 m 1,104,105
 886 564 886 564 873 584 c 0,106,107
 860 605 860 605 842 605 c 0,108,109
 823 605 823 605 809 585 c 0,110,111
 796 565 796 565 796 536 c 0,112,113
 796 509 796 509 809 490 c 256,114,115
 822 471 822 471 841 471 c 256,116,117
 860 471 860 471 873 490 c 0,118,119
 886 508 886 508 886 535 c 1,120,-1
 886 535 l 1,104,105
691 192 m 1,121,-1
 691 302 l 2,122,123
 691 326 691 326 679 342 c 0,124,125
 667 359 667 359 650 359 c 0,126,127
 627 359 627 359 610 336 c 0,128,129
 594 313 594 313 594 281 c 0,130,131
 594 241 594 241 620 216 c 0,132,133
 647 192 647 192 691 192 c 1,134,-1
 691 192 l 1,121,-1
243 119 m 1,135,136
 243 148 243 148 228 168 c 256,137,138
 213 188 213 188 192 188 c 256,139,140
 171 188 171 188 157 168 c 0,141,142
 142 148 142 148 142 120 c 0,143,144
 142 91 142 91 157 71 c 0,145,146
 171 51 171 51 192 51 c 256,147,148
 213 51 213 51 228 71 c 256,149,150
 243 91 243 91 243 119 c 1,151,-1
 243 119 l 1,135,136
871 30 m 1,152,-1
 871 194 l 1,153,154
 851 179 851 179 824 172 c 0,155,156
 797 164 797 164 766 164 c 1,157,-1
 766 30 l 1,158,-1
 871 30 l 1,159,-1
 871 30 l 1,152,-1
EndSplineSet
Ligature2: "'abvs' Above Base Substitutions in Tamil lookup 2 subtable" uni0BB7 uni0BC0
EndChar

StartChar: uni0BB8_uni0BC0
Encoding: 375 -1 120
Width: 1038
GlyphClass: 2
Flags: W
LayerCount: 2
Back
Fore
SplineSet
1131 530 m 1,0,1
 1131 490 1131 490 1104 466 c 0,2,3
 1076 442 1076 442 1031 442 c 0,4,5
 988 442 988 442 962 467 c 256,6,7
 936 492 936 492 936 534 c 0,8,9
 936 559 936 559 944 579 c 0,10,11
 951 599 951 599 965 611 c 1,12,13
 896 611 896 611 848 567 c 0,14,15
 799 523 799 523 799 460 c 0,16,17
 799 415 799 415 824 381 c 0,18,19
 848 347 848 347 886 340 c 1,20,21
 873 357 873 357 866 370 c 0,22,23
 859 384 859 384 859 392 c 0,24,25
 859 404 859 404 869 413 c 0,26,27
 878 422 878 422 892 422 c 0,28,29
 932 422 932 422 961 358 c 0,30,31
 989 294 989 294 989 204 c 0,32,33
 989 109 989 109 944 51 c 0,34,35
 899 -6 899 -6 825 -6 c 0,36,37
 762 -6 762 -6 725 27 c 0,38,39
 687 60 687 60 687 114 c 2,40,-1
 687 257 l 2,41,42
 687 302 687 302 658 333 c 0,43,44
 630 365 630 365 589 365 c 0,45,46
 553 365 553 365 527 337 c 256,47,48
 501 309 501 309 501 269 c 2,49,-1
 501 0 l 1,50,-1
 426 0 l 1,51,-1
 426 235 l 2,52,53
 426 291 426 291 379 331 c 256,54,55
 332 371 332 371 265 371 c 0,56,57
 183 371 183 371 126 312 c 0,58,59
 68 253 68 253 68 170 c 0,60,61
 68 124 68 124 88 89 c 0,62,63
 109 53 109 53 142 41 c 1,64,65
 129 56 129 56 123 77 c 0,66,67
 116 99 116 99 116 124 c 0,68,69
 116 174 116 174 145 205 c 0,70,71
 175 235 175 235 224 235 c 256,72,73
 273 235 273 235 303 204 c 0,74,75
 332 173 332 173 332 122 c 0,76,77
 332 69 332 69 293 31 c 0,78,79
 255 -6 255 -6 200 -6 c 0,80,81
 133 -6 133 -6 85 45 c 0,82,83
 38 96 38 96 38 168 c 0,84,85
 38 265 38 265 105 333 c 256,86,87
 172 401 172 401 266 401 c 0,88,89
 340 401 340 401 397 375 c 256,90,91
 454 349 454 349 475 305 c 1,92,93
 485 345 485 345 520 370 c 0,94,95
 554 395 554 395 599 395 c 0,96,97
 667 395 667 395 714 354 c 0,98,99
 762 314 762 314 762 256 c 2,100,-1
 762 117 l 2,101,102
 762 78 762 78 782 51 c 256,103,104
 802 24 802 24 830 24 c 0,105,106
 889 24 889 24 924 73 c 256,107,108
 959 122 959 122 959 204 c 0,109,110
 959 227 959 227 949 252 c 0,111,112
 938 277 938 277 919 301 c 1,113,114
 856 303 856 303 813 349 c 0,115,116
 769 395 769 395 769 458 c 0,117,118
 769 538 769 538 827 595 c 256,119,120
 885 652 885 652 967 652 c 0,121,122
 1045 652 1045 652 1088 620 c 256,123,124
 1131 588 1131 588 1131 530 c 1,125,-1
 1131 530 l 1,0,1
1056 535 m 1,126,127
 1056 564 1056 564 1043 584 c 256,128,129
 1030 604 1030 604 1012 604 c 0,130,131
 993 604 993 604 979 584 c 0,132,133
 966 564 966 564 966 535 c 0,134,135
 966 509 966 509 979 490 c 0,136,137
 993 472 993 472 1012 472 c 0,138,139
 1030 472 1030 472 1043 490 c 0,140,141
 1056 509 1056 509 1056 535 c 1,142,-1
 1056 535 l 1,126,127
257 119 m 1,143,144
 257 148 257 148 241 169 c 0,145,146
 224 190 224 190 201 190 c 256,147,148
 178 190 178 190 162 170 c 256,149,150
 146 150 146 150 146 122 c 0,151,152
 146 92 146 92 162 70 c 0,153,154
 178 49 178 49 201 49 c 256,155,156
 224 49 224 49 241 70 c 0,157,158
 257 90 257 90 257 119 c 1,159,-1
 257 119 l 1,143,144
EndSplineSet
Ligature2: "'abvs' Above Base Substitutions in Tamil lookup 2 subtable" uni0BB8 uni0BC0
EndChar

